{
.appVersion = "3151";
.formatVersion = 3;
axes = (
{
name = Weight;
tag = wght;
}
);
classes = (
{
automatic = 1;
code = "A Aacute Abreve Abreveacute Abrevedotbelow Abrevegrave Abrevehookabove Abrevetilde Acircumflex Acircumflexacute Acircumflexdotbelow Acircumflexgrave Acircumflexhookabove Acircumflextilde Adblgrave Adieresis Adotbelow Agrave Ahookabove Ainvertedbreve Amacron Aogonek Aring Aringacute Atilde AE AEacute B C Cacute Ccaron Ccedilla Ccircumflex Cdotaccent D DZcaron Eth Dcaron Dcroat Dzcaron E Eacute Ebreve Ecaron Ecircumflex Ecircumflexacute Ecircumflexdotbelow Ecircumflexgrave Ecircumflexhookabove Ecircumflextilde Edblgrave Edieresis Edotaccent Edotbelow Egrave Ehookabove Einvertedbreve Emacron Eogonek Etilde Schwa Ezh Ezhcaron F G Gbreve Gcaron Gcircumflex Gcommaaccent Gdotaccent Gstroke H Hbar Hcircumflex I IJ Iacute Ibreve Icircumflex Idblgrave Idieresis Idotaccent Idotbelow Igrave Ihookabove Iinvertedbreve Imacron Iogonek Itilde J Jacute Jcircumflex K Kcaron Kcommaaccent L LJ Lacute Lcaron Lcommaaccent Ldot Lj Lslash M N NJ Nacute Ncaron Ncommaaccent Nj Ntilde Eng O Oacute Obreve Ocircumflex Ocircumflexacute Ocircumflexdotbelow Ocircumflexgrave Ocircumflexhookabove Ocircumflextilde Odblgrave Odieresis Odieresismacron Odotaccentmacron Odotbelow Ograve Ohookabove Ohorn Ohornacute Ohorndotbelow Ohorngrave Ohornhookabove Ohorntilde Ohungarumlaut Oinvertedbreve Omacron Oogonek Oslash Oslashacute Otilde Otildemacron OE P Thorn Q R Racute Rcaron Rcommaaccent Rdblgrave Rinvertedbreve S Sacute Scaron Scedilla Scircumflex Scommaaccent Germandbls T Tbar Tcaron Tcedilla Tcommaaccent U Uacute Ubreve Ucircumflex Udblgrave Udieresis Udotbelow Ugrave Uhookabove Uhorn Uhornacute Uhorndotbelow Uhorngrave Uhornhookabove Uhorntilde Uhungarumlaut Uinvertedbreve Umacron Uogonek Uring Utilde V W Wacute Wcircumflex Wdieresis Wgrave X Y Yacute Ycircumflex Ydieresis Ydotbelow Ygrave Yhookabove Ymacron Ytilde Z Zacute Zcaron Zdotaccent";
name = Uppercase;
},
{

glyphs = (
{
glyphname = .notdef;
lastChange = "2024-02-22 10:41:11 +0000";
layers = (
{
layerId = "ACBCE007-E73D-46AC-8E41-1CDF677894E7";
shapes = (
{
closed = 1;
nodes = (
(774,-300,l),
(459,960,l),
(-69,960,l),
(246,-300,l)
);
}
);
width = 720;
},
{
background = {
shapes = (
{
closed = 1;
nodes = (
(634,0,l),
(634,914,l),
(86,914,l),
(86,0,l)
);
},
{
closed = 1;
nodes = (
(189,823,l),
(531,823,l),
(531,91,l),
(189,91,l)
);
}
);
};
layerId = "AC72BC7B-7DA4-4629-8F76-12EBC1936C54";
shapes = (
{
closed = 1;
nodes = (
(774,-300,l),
(459,960,l),
(-69,960,l),
(246,-300,l)
);
}
);
width = 720;
},
{
background = {
shapes = (
{
closed = 1;
nodes = (
(634,0,l),
(634,914,l),
(86,914,l),
(86,0,l)
);
},
{
closed = 1;
nodes = (
(189,823,l),
(531,823,l),
(531,91,l),
(189,91,l)
);
}
);
};
layerId = "01A22628-B541-4374-9232-A2213F2D24BF";
shapes = (
{
closed = 1;
nodes = (
(774,-300,l),
(459,960,l),
(-69,960,l),
(246,-300,l)
);
}
);
width = 720;
},
{
layerId = "40756F1B-8CBD-42F6-8842-73C8ADC25AA8";
shapes = (
{
closed = 1;
nodes = (
(774,-300,l),
(459,960,l),
(-69,960,l),
(246,-300,l)
);
}
);
width = 720;
}
);
},
{
color = 3;
glyphname = A;
kernLeft = A;
kernRight = A;
lastChange = "2024-03-04 22:02:27 +0000";
layers = (
{
anchors = (
{
name = bottom;
pos = (463,0);
},
{
name = ogonek;
pos = (786,0);
},
{
name = top;
pos = (240,900);
},
{
name = "top-vertical";
pos = (5,720);
}
);
guides = (
{
angle = 104.036;
pos = (110,300);
},
{
angle = 262.8902;
pos = (178,465);
}
);
layerId = "ACBCE007-E73D-46AC-8E41-1CDF677894E7";
shapes = (
{
closed = 1;
nodes = (
(161,0,l),
(207,374,l),
(531,374,l),
(761,0,l),
(810,0,l),
(238,930,l),
(236,930,l),
(120,0,l)
);
},
{
closed = 1;
nodes = (
(241,660,ls),
(249,730,o),
(254,764,o),
(258,828,c),
(292,764,o),
(314,730,o),
(357,660,cs),
(509,412,l),
(211,412,l)
);
}
);
width = 780;
},
{
anchors = (
{
name = bottom;
pos = (468,0);
},
{
name = ogonek;
pos = (794,0);
},
{
name = top;
pos = (250,900);
},
{
name = "top-vertical";
pos = (15,720);
}
);
guides = (
{
angle = -104.036;
pos = (18,300);
},
{
angle = 260.6576;
pos = (170,465);
},
{
angle = 104.036;
pos = (120,300);
}
);
layerId = "AC72BC7B-7DA4-4629-8F76-12EBC1936C54";
shapes = (
{
closed = 1;
nodes = (
(202,0,l),
(243,267,l),
(558,267,l),
(730,0,l),
(857,0,l),
(248,930,l),
(246,930,l),
(93,0,l)
);
},
{
closed = 1;
nodes = (
(285,540,ls),
(292,585,o),
(297,624,o),
(298,686,c),
(329,624,o),
(352,586,o),
(382,540,cs),
(497,362,l),
(258,362,l)
);
}
);
width = 800;
},
{
anchors = (
{
name = bottom;
pos = (470,0);
},
{
name = ogonek;
pos = (787,0);
},
{
name = top;
pos = (261,900);
},
{
name = "top-vertical";
pos = (26,720);
}
);
background = {
shapes = (
{
closed = 1;
nodes = (
(262,0,l),
(289,160,l),
(595,160,l),
(702,0,l),
(883,0,l),
(254,932,l),
(252,932,l),
(87,0,l)
);
},
{
closed = 1;
nodes = (
(329,396,ls),
(338,445,o),
(345,488,o),
(345,548,c),
(376,487,o),
(404,445,o),
(437,396,cs),
(499,304,l),
(313,304,l)
);
}
);
};
guides = (
{
angle = 259.8413;
pos = (171,466);
}
);
layerId = "01A22628-B541-4374-9232-A2213F2D24BF";
shapes = (
{
closed = 1;
nodes = (
(250,0,l),
(277,160,l),
(583,160,l),
(690,0,l),
(883,0,l),
(256,932,l),
(254,932,l),
(87,0,l)
);
},
{
closed = 1;
nodes = (
(318,396,ls),
(327,445,o),
(335,487,o),
(336,548,c),
(366,488,o),
(393,445,o),
(426,396,cs),
(487,304,l),
(302,304,l)
);
}
);
width = 820;
},
{
anchors = (
{
name = bottom;
pos = (486,0);
},
{
name = ogonek;
pos = (795,0);
},
{
name = top;
pos = (281,900);
},
{
name = "top-vertical";
pos = (606,720);
}
);
guides = (
{
angle = 66.9745;
pos = (-16,0);
},
{
angle = 113.0255;
pos = (876,0);
},
{
angle = 247.7222;
pos = (-16,0);
}
);
layerId = "40756F1B-8CBD-42F6-8842-73C8ADC25AA8";
shapes = (
{
closed = 1;
nodes = (
(333,0,l),
(347,75,l),
(589,75,l),
(639,0,l),
(951,0,l),
(358,900,l),
(206,900,l),
(59,0,l)
);
},
{
closed = 1;
nodes = (
(367,266,ls),
(375,322,o),
(378,362,o),
(379,431,c),
(415,362,o),
(436,324,o),
(473,266,cs),
(491,237,l),
(363,237,l)
);
}
);
width = 860;
},
{
anchors = (
{
name = bottom;
pos = (430,0);
},
{
name = ogonek;
pos = (728,0);
},
{
name = top;
pos = (430,900);
},
{
name = "top-vertical";
pos = (150,720);
}
);
associatedMasterId = "40756F1B-8CBD-42F6-8842-73C8ADC25AA8";
guides = (
{
angle = 66.9745;
pos = (325,120);
}
);
hints = (
{
horizontal = 1;
place = (964, -20);
target = down;
type = TopGhost;
}
);
layerId = "B779F9BA-3A36-4DA0-8B0B-3ADC161D5551";
name = "4 Jan 24, 15:48";
shapes = (
{
closed = 1;
nodes = (
(274,0,l),
(306,75,l),
(548,75,l),
(580,0,l),
(876,0,l),
(432,980,l),
(427,980,l),
(-16,0,l)
);
},
{
closed = 1;
nodes = (
(379,263,ls),
(399,316,o),
(410,350,o),
(427,413,c),
(443,350,o),
(455,314,o),
(475,263,cs),
(485,237,l),
(369,237,l)
);
}
);
width = 860;
}
);
unicode = 65;
},
{
color = 3;
glyphname = Aogonek;
kernLeft = A;
kernRight = A;
lastChange = "2024-02-25 12:48:29 +0000";
layers = (
{
layerId = "ACBCE007-E73D-46AC-8E41-1CDF677894E7";
shapes = (
{
closed = 1;
nodes = (
(879,-244,l),
(803,-244,o),
(746,-193,o),
(746,-125,cs),
(746,-76,o),
(765,-38,o),
(810,0,c),
(238,930,l),
(236,930,l),
(120,0,l),
(161,0,l),
(207,374,l),
(531,374,l),
(763,-3,l),
(723,-42,o),
(706,-82,o),
(706,-127,cs),
(706,-215,o),
(778,-280,o),
(879,-282,c)
);
},
{
closed = 1;
nodes = (
(241,660,ls),
(249,730,o),
(254,764,o),
(258,828,c),
(292,764,o),
(314,730,o),
(357,660,cs),
(509,412,l),
(211,412,l)
);
}
);
width = 780;
},
{
background = {
shapes = (
{
closed = 1;
nodes = (
(133,0,l),
(349,540,l),
(367,586,o),
(381,624,o),
(397,686,c),
(413,624,o),
(428,585,o),
(446,540,c),
(661,0,l),
(782,0,l),
(400,930,l),
(18,0,l)
);
},
{
closed = 1;
nodes = (
(548,362,l),
(247,362,l),
(211,267,l),
(583,267,l)
);
},
{
closed = 1;
nodes = (
(784,-312,o),
(823,-299,o),
(852,-277,c),
(828,-180,l),
(813,-205,o),
(790,-228,o),
(750,-228,cs),
(705,-228,o),
(678,-199,o),
(678,-157,cs),
(678,-98,o),
(739,-40,o),
(782,0,c),
(661,0,l),
(591,-78,o),
(576,-128,o),
(576,-168,cs),
(576,-256,o),
(646,-312,o),
(737,-312,cs)
);
}
);
};
layerId = "AC72BC7B-7DA4-4629-8F76-12EBC1936C54";
shapes = (
{
closed = 1;
nodes = (
(883,-219,l),
(814,-219,o),
(774,-184,o),
(774,-121,cs),
(774,-68,o),
(805,-23,o),
(857,0,c),
(248,930,l),
(246,930,l),
(93,0,l),
(202,0,l),
(243,267,l),
(558,267,l),
(736,-8,l),
(703,-42,o),
(681,-88,o),
(681,-136,cs),
(681,-239,o),
(767,-312,o),
(883,-312,c)
);
},
{
closed = 1;
nodes = (
(285,540,ls),
(292,585,o),
(297,624,o),
(298,686,c),
(329,624,o),
(352,586,o),
(382,540,cs),
(497,362,l),
(258,362,l)
);
}
);
width = 800;
},
{
background = {
shapes = (
{
closed = 1;
nodes = (
(133,0,l),
(349,540,l),
(367,586,o),
(381,624,o),
(397,686,c),
(413,624,o),
(428,585,o),
(446,540,c),
(661,0,l),
(782,0,l),
(400,930,l),
(18,0,l)
);
},
{
closed = 1;
nodes = (
(548,362,l),
(247,362,l),
(211,267,l),
(583,267,l)
);
},
{
closed = 1;
nodes = (
(784,-312,o),
(823,-299,o),
(852,-277,c),
(828,-180,l),
(813,-205,o),
(790,-228,o),
(750,-228,cs),
(705,-228,o),
(678,-199,o),
(678,-157,cs),
(678,-98,o),
(739,-40,o),
(782,0,c),
(661,0,l),
(591,-78,o),
(576,-128,o),
(576,-168,cs),
(576,-256,o),
(646,-312,o),
(737,-312,cs)
);
}
);
};
layerId = "01A22628-B541-4374-9232-A2213F2D24BF";
shapes = (
{
closed = 1;
nodes = (
(867,-188,l),
(812,-186,o),
(774,-154,o),
(774,-105,cs),
(774,-54,o),
(814,-16,o),
(883,0,c),
(256,932,l),
(254,932,l),
(87,0,l),
(250,0,l),
(277,160,l),
(583,160,l),
(696,-9,l),
(643,-53,o),
(627,-98,o),
(627,-139,cs),
(627,-249,o),
(719,-318,o),
(867,-318,c)
);
},
{
closed = 1;
nodes = (
(318,396,ls),
(327,445,o),
(335,487,o),
(336,548,c),
(366,488,o),
(393,445,o),
(426,396,cs),
(487,304,l),
(302,304,l)
);
}
);
width = 820;
},
{
layerId = "40756F1B-8CBD-42F6-8842-73C8ADC25AA8";
shapes = (
{
closed = 1;
nodes = (
(979,-124,l),
(935,-121,o),
(885,-95,o),
(885,-60,cs),
(885,-39,o),
(903,-15,o),
(951,0,c),
(358,900,l),
(206,900,l),
(59,0,l),
(333,0,l),
(347,75,l),
(589,75,l),
(639,0,l),
(623,-33,o),
(615,-60,o),
(615,-95,cs),
(615,-225,o),
(737,-290,o),
(979,-290,c)
);
},
{
closed = 1;
nodes = (
(367,266,ls),
(375,322,o),
(378,362,o),
(379,431,c),
(415,362,o),
(436,324,o),
(473,266,cs),
(491,237,l),
(363,237,l)
);
}
);
width = 860;
}
);
unicode = 260;
},
{
color = 3;
glyphname = Aring;
kernLeft = A;
kernRight = A;
lastChange = "2024-02-22 10:39:36 +0000";
layers = (
{
background = {
shapes = (
{
closed = 1;
nodes = (
(17,0,l),
(247,374,l),
(571,374,l),
(617,0,l),
(660,0,l),
(556,830,l),
(624,843,o),
(679,906,o),
(679,974,cs),
(679,1044,o),
(622,1093,o),
(557,1093,cs),
(480,1093,o),
(407,1023,o),
(407,945,cs),
(407,894,o),
(439,852,o),
(484,835,c),
(-30,0,l)
);
},
{
closed = 1;
nodes = (
(421,660,ls),
(464,730,o),
(486,764,o),
(520,827,c),
(524,764,o),
(529,730,o),
(537,660,cs),
(567,412,l),
(269,412,l)
);
},
{
closed = 1;
nodes = (
(480,861,o),
(444,901,o),
(444,945,cs),
(444,1008,o),
(500,1059,o),
(558,1059,cs),
(606,1059,o),
(642,1020,o),
(642,975,cs),
(642,912,o),
(586,861,o),
(528,861,cs)
);
}
);
};
guides = (
{
angle = 6.0858;
pos = (559,1013);
}
);
layerId = "ACBCE007-E73D-46AC-8E41-1CDF677894E7";
shapes = (
{
closed = 1;
nodes = (
(161,0,l),
(207,374,l),
(531,374,l),
(761,0,l),
(810,0,l),
(266,884,l),
(319,897,o),
(357,943,o),
(357,998,cs),
(357,1076,o),
(284,1146,o),
(207,1146,cs),
(142,1146,o),
(85,1097,o),
(85,1027,cs),
(85,952,o),
(153,883,o),
(230,880,c),
(120,0,l)
);
},
{
closed = 1;
nodes = (
(241,660,ls),
(249,730,o),
(254,764,o),
(258,828,c),
(292,764,o),
(314,730,o),
(357,660,cs),
(509,412,l),
(211,412,l)
);
},
{
closed = 1;
nodes = (
(178,914,o),
(122,965,o),
(122,1028,cs),
(122,1073,o),
(158,1112,o),
(206,1112,cs),
(264,1112,o),
(320,1061,o),
(320,998,cs),
(320,954,o),
(284,914,o),
(236,914,cs)
);
}
);
width = 780;
},
{
layerId = "AC72BC7B-7DA4-4629-8F76-12EBC1936C54";
shapes = (
{
closed = 1;
nodes = (
(202,0,l),
(243,267,l),
(558,267,l),
(730,0,l),
(857,0,l),
(304,844,l),
(355,864,o),
(391,913,o),
(391,972,cs),
(391,1064,o),
(307,1146,o),
(214,1146,cs),
(136,1146,o),
(73,1087,o),
(73,1008,cs),
(73,923,o),
(145,846,o),
(229,835,c),
(93,0,l)
);
},
{
closed = 1;
nodes = (
(285,540,ls),
(291,585,o),
(297,624,o),
(298,686,c),
(329,624,o),
(352,586,o),
(382,540,cs),
(497,362,l),
(258,362,l)
);
},
{
closed = 1;
nodes = (
(194,906,o),
(148,950,o),
(148,1001,cs),
(148,1041,o),
(179,1074,o),
(221,1074,cs),
(270,1074,o),
(316,1030,o),
(316,979,cs),
(316,939,o),
(285,906,o),
(243,906,cs)
);
}
);
width = 800;
},
{
background = {
shapes = (
{
closed = 1;
nodes = (
(122,0,l),
(229,160,l),
(535,160,l),
(562,0,l),
(733,0,l),
(586,824,l),
(675,837,o),
(751,919,o),
(751,1010,cs),
(751,1093,o),
(686,1158,o),
(600,1158,cs),
(498,1158,o),
(409,1070,o),
(409,971,cs),
(409,907,o),
(446,857,o),
(498,834,c),
(-63,0,l)
);
},
{
closed = 1;
nodes = (
(386,396,ls),
(419,445,o),
(446,488,o),
(476,548,c),
(477,487,o),
(485,445,o),
(494,396,cs),
(510,304,l),
(325,304,l)
);
},
{
closed = 1;
nodes = (
(537,921,o),
(511,947,o),
(511,983,cs),
(511,1022,o),
(547,1059,o),
(587,1059,cs),
(623,1059,o),
(649,1032,o),
(649,997,cs),
(649,958,o),
(613,921,o),
(573,921,cs)
);
}
);
};
guides = (
{
angle = 186.5056;
pos = (573,979);
}
);
layerId = "01A22628-B541-4374-9232-A2213F2D24BF";
shapes = (
{
closed = 1;
nodes = (
(250,0,l),
(277,160,l),
(583,160,l),
(690,0,l),
(883,0,l),
(329,823,l),
(381,845,o),
(418,895,o),
(418,959,cs),
(418,1058,o),
(329,1146,o),
(227,1146,cs),
(141,1146,o),
(76,1081,o),
(76,998,cs),
(76,910,o),
(147,830,o),
(233,813,c),
(87,0,l)
);
},
{
closed = 1;
nodes = (
(318,396,ls),
(327,445,o),
(335,487,o),
(336,548,c),
(366,488,o),
(393,445,o),
(426,396,cs),
(487,304,l),
(302,304,l)
);
},
{
closed = 1;
nodes = (
(214,909,o),
(178,946,o),
(178,985,cs),
(178,1020,o),
(204,1047,o),
(240,1047,cs),
(280,1047,o),
(316,1010,o),
(316,971,cs),
(316,935,o),
(290,909,o),
(254,909,cs)
);
}
);
width = 820;
},
{
background = {
shapes = (
{
closed = 1;
nodes = (
(333,0,l),
(347,75,l),
(589,75,l),
(639,0,l),
(951,0,l),
(358,900,l),
(206,900,l),
(59,0,l)
);
},
{
closed = 1;
nodes = (
(367,266,ls),
(375,322,o),
(378,362,o),
(379,431,c),
(415,362,o),
(436,324,o),
(473,266,cs),
(491,237,l),
(363,237,l)
);
}
);
};
guides = (
{
angle = 246.8937;
pos = (290,38);
}
);
layerId = "40756F1B-8CBD-42F6-8842-73C8ADC25AA8";
shapes = (
{
closed = 1;
nodes = (
(333,0,l),
(347,75,l),
(589,75,l),
(639,0,l),
(951,0,l),
(395,844,l),
(426,873,o),
(446,914,o),
(446,963,cs),
(446,1071,o),
(349,1166,o),
(238,1166,cs),
(145,1166,o),
(74,1096,o),
(74,1006,cs),
(74,928,o),
(125,857,o),
(193,823,c),
(59,0,l)
);
},
{
closed = 1;
nodes = (
(367,266,ls),
(375,322,o),
(378,362,o),
(379,431,c),
(415,362,o),
(436,324,o),
(473,266,cs),
(491,237,l),
(363,237,l)
);
},
{
closed = 1;
nodes = (
(234,930,o),
(206,959,o),
(206,989,cs),
(206,1017,o),
(226,1038,o),
(255,1038,cs),
(286,1038,o),
(314,1009,o),
(314,979,cs),
(314,950,o),
(294,930,o),
(265,930,cs)
);
}
);
width = 860;
}
);
unicode = 197;
},
{
color = 3;
export = 0;
glyphname = A.ring;
kernLeft = A;
kernRight = A;
lastChange = "2024-02-22 10:40:36 +0000";
layers = (
{
anchors = (
{
name = top;
pos = (259,870);
}
);
layerId = "ACBCE007-E73D-46AC-8E41-1CDF677894E7";
shapes = (
{
closed = 1;
nodes = (
(161,0,l),
(207,374,l),
(531,374,l),
(761,0,l),
(810,0,l),
(293,840,l),
(225,840,l),
(120,0,l)
);
},
{
closed = 1;
nodes = (
(241,660,ls),
(249,730,o),
(254,764,o),
(258,828,c),
(292,764,o),
(314,730,o),
(357,660,cs),
(509,412,l),
(211,412,l)
);
}
);
width = 780;
},
{
associatedMasterId = "AC72BC7B-7DA4-4629-8F76-12EBC1936C54";
background = {
shapes = (
{
closed = 1;
nodes = (
(470,114,o),
(552,196,o),
(552,298,cs),
(552,400,o),
(470,482,o),
(368,482,cs),
(267,482,o),
(185,400,o),
(185,298,cs),
(185,196,o),
(267,114,o),
(368,114,cs)
);
},
{
closed = 1;
nodes = (
(533,0,o),
(666,133,o),
(666,298,cs),
(666,463,o),
(533,596,o),
(368,596,cs),
(204,596,o),
(70,463,o),
(70,298,cs),
(70,133,o),
(204,0,o),
(368,0,cs)
);
},
{
closed = 1;
nodes = (
(425,596,o),
(470,642,o),
(470,698,cs),
(470,754,o),
(425,800,o),
(368,800,cs),
(312,800,o),
(267,754,o),
(267,698,cs),
(267,642,o),
(312,596,o),
(368,596,cs)
);
},
{
closed = 1;
nodes = (
(487,482,o),
(585,579,o),
(585,698,cs),
(585,817,o),
(487,914,o),
(368,914,cs),
(249,914,o),
(152,817,o),
(152,698,cs),
(152,579,o),
(249,482,o),
(368,482,cs)
);
}
);
};
guides = (
{
angle = 180;
pos = (387,578);
},
{
angle = 90;
pos = (390,960);
}
);
layerId = "EFA4B0FA-1BFE-4903-B2DA-945ADB681139";
name = "Jan 8 17, 21:42";
shapes = (
{
closed = 1;
nodes = (
(11,0,l),
(123,0,l),
(409,754,l),
(371,948,l)
);
},
{
closed = 1;
nodes = (
(178,329,l),
(559,329,l),
(559,427,l),
(178,427,l)
);
},
{
closed = 1;
nodes = (
(614,0,l),
(731,0,l),
(371,948,l),
(328,754,l)
);
}
);
width = 743;
},
{
anchors = (
{
name = top;
pos = (428,914);
}
);
associatedMasterId = "AC72BC7B-7DA4-4629-8F76-12EBC1936C54";
background = {
shapes = (
{
closed = 1;
nodes = (
(235,272,l),
(616,272,l),
(616,369,l),
(235,369,l)
);
},
{
closed = 1;
nodes = (
(428,948,l),
(40,0,l),
(151,0,l),
(373,550,ls),
(391,596,o),
(409,636,o),
(426,699,c),
(442,636,o),
(460,596,o),
(478,550,cs),
(700,0,l),
(817,0,l)
);
}
);
};
guides = (
{
angle = 180;
pos = (447,578);
},
{
angle = 90;
pos = (450,960);
},
{
angle = -247.724;
pos = (735,0);
},
{
angle = 247.7241;
pos = (246,498);
},
{
angle = 247.7241;
pos = (159,0);
}
);
layerId = "05FECC81-C280-4EEE-850E-D76F2EC5D7A2";
name = "Mar 20 17, 10:17";
shapes = (
{
closed = 1;
nodes = (
(157,0,l),
(267,272,l),
(585,272,l),
(694,0,l),
(817,0,l),
(435,931,l),
(422,931,l),
(40,0,l)
);
},
{
closed = 1;
nodes = (
(376,550,ls),
(394,596,o),
(409,636,o),
(426,699,c),
(442,636,o),
(457,596,o),
(475,550,cs),
(548,369,l),
(303,369,l)
);
}
);
width = 857;
},
{
anchors = (
{
name = top;
pos = (254,900);
}
);
layerId = "AC72BC7B-7DA4-4629-8F76-12EBC1936C54";
shapes = (
{
closed = 1;
nodes = (
(202,0,l),
(243,267,l),
(558,267,l),
(730,0,l),
(857,0,l),
(268,900,l),
(240,900,l),
(93,0,l)
);
},
{
closed = 1;
nodes = (
(285,540,ls),
(291,585,o),
(297,624,o),
(298,686,c),
(329,624,o),
(352,586,o),
(382,540,cs),
(497,362,l),
(258,362,l)
);
}
);
width = 800;
},
{
associatedMasterId = "01A22628-B541-4374-9232-A2213F2D24BF";
background = {
shapes = (
{
closed = 1;
nodes = (
(470,114,o),
(552,196,o),
(552,298,cs),
(552,400,o),
(470,482,o),
(368,482,cs),
(267,482,o),
(185,400,o),
(185,298,cs),
(185,196,o),
(267,114,o),
(368,114,cs)
);
},
{
closed = 1;
nodes = (
(533,0,o),
(666,133,o),
(666,298,cs),
(666,463,o),
(533,596,o),
(368,596,cs),
(204,596,o),
(70,463,o),
(70,298,cs),
(70,133,o),
(204,0,o),
(368,0,cs)
);
},
{
closed = 1;
nodes = (
(425,596,o),
(470,642,o),
(470,698,cs),
(470,754,o),
(425,800,o),
(368,800,cs),
(312,800,o),
(267,754,o),
(267,698,cs),
(267,642,o),
(312,596,o),
(368,596,cs)
);
},
{
closed = 1;
nodes = (
(487,482,o),
(585,579,o),
(585,698,cs),
(585,817,o),
(487,914,o),
(368,914,cs),
(249,914,o),
(152,817,o),
(152,698,cs),
(152,579,o),
(249,482,o),
(368,482,cs)
);
}
);
};
guides = (
{
angle = 180;
pos = (387,578);
},
{
angle = 90;
pos = (390,960);
}
);
layerId = "B06D266C-02BA-40A5-8B9E-9EA29B8F9CFC";
name = "Jan 8 17, 21:42";
shapes = (
{
closed = 1;
nodes = (
(11,0,l),
(123,0,l),
(409,754,l),
(371,948,l)
);
},
{
closed = 1;
nodes = (
(178,329,l),
(559,329,l),
(559,427,l),
(178,427,l)
);
},
{
closed = 1;
nodes = (
(614,0,l),
(731,0,l),
(371,948,l),
(328,754,l)
);
}
);
width = 743;
},
{
anchors = (
{
name = top;
pos = (428,914);
}
);
associatedMasterId = "01A22628-B541-4374-9232-A2213F2D24BF";
background = {
shapes = (
{
closed = 1;
nodes = (
(235,272,l),
(616,272,l),
(616,369,l),
(235,369,l)
);
},
{
closed = 1;
nodes = (
(428,948,l),
(40,0,l),
(151,0,l),
(373,550,ls),
(391,596,o),
(409,636,o),
(426,699,c),
(442,636,o),
(460,596,o),
(478,550,cs),
(700,0,l),
(817,0,l)
);
}
);
};
guides = (
{
angle = 180;
pos = (447,578);
},
{
angle = 90;
pos = (450,960);
},
{
angle = -247.724;
pos = (735,0);
},
{
angle = 247.7241;
pos = (246,498);
},
{
angle = 247.7241;
pos = (159,0);
}
);
layerId = "E1570C22-D667-4BD4-8DB8-1DBF958FF452";
name = "Mar 20 17, 10:17";
shapes = (
{
closed = 1;
nodes = (
(157,0,l),
(267,272,l),
(585,272,l),
(694,0,l),
(817,0,l),
(435,931,l),
(422,931,l),
(40,0,l)
);
},
{
closed = 1;
nodes = (
(376,550,ls),
(394,596,o),
(409,636,o),
(426,699,c),
(442,636,o),
(457,596,o),
(475,550,cs),
(548,369,l),
(303,369,l)
);
}
);
width = 857;
},
{
anchors = (
{
name = top;
pos = (263,900);
}
);
layerId = "01A22628-B541-4374-9232-A2213F2D24BF";
shapes = (
{
closed = 1;
nodes = (
(250,0,l),
(277,160,l),
(583,160,l),
(690,0,l),
(883,0,l),
(278,900,l),
(248,900,l),
(87,0,l)
);
},
{
closed = 1;
nodes = (
(318,396,ls),
(327,445,o),
(335,487,o),
(336,548,c),
(366,488,o),
(393,445,o),
(426,396,cs),
(487,304,l),
(302,304,l)
);
}
);
width = 820;
},
{
anchors = (
{
name = top;
pos = (281,900);
}
);
layerId = "40756F1B-8CBD-42F6-8842-73C8ADC25AA8";
shapes = (
{
closed = 1;
nodes = (
(333,0,l),
(347,75,l),
(589,75,l),
(639,0,l),
(951,0,l),
(358,900,l),
(206,900,l),
(59,0,l)
);
},
{
closed = 1;
nodes = (
(367,266,ls),
(375,322,o),
(378,362,o),
(379,431,c),
(415,362,o),
(436,324,o),
(473,266,cs),
(491,237,l),
(363,237,l)
);
}
);
width = 860;
}
);
},
{
color = 3;
glyphname = Aringacute;
kernLeft = A;
kernRight = A;
lastChange = "2024-02-22 10:39:33 +0000";
layers = (
{
background = {
shapes = (
{
closed = 1;
nodes = (
(17,0,l),
(247,374,l),
(571,374,l),
(617,0,l),
(660,0,l),
(556,830,l),
(624,843,o),
(679,906,o),
(679,974,cs),
(679,1044,o),
(622,1093,o),
(557,1093,cs),
(480,1093,o),
(407,1023,o),
(407,945,cs),
(407,894,o),
(439,852,o),
(484,835,c),
(-30,0,l)
);
},
{
closed = 1;
nodes = (
(421,660,ls),
(464,730,o),
(486,764,o),
(520,827,c),
(524,764,o),
(529,730,o),
(537,660,cs),
(567,412,l),
(269,412,l)
);
},
{
closed = 1;
nodes = (
(480,861,o),
(444,901,o),
(444,945,cs),
(444,1008,o),
(500,1059,o),
(558,1059,cs),
(606,1059,o),
(642,1020,o),
(642,975,cs),
(642,912,o),
(586,861,o),
(528,861,cs)
);
},
{
closed = 1;
nodes = (
(601,1132,l),
(706,1240,l),
(659,1240,l),
(563,1132,l)
);
}
);
};
guides = (
{
angle = 217.0617;
pos = (626,1246);
}
);
layerId = "ACBCE007-E73D-46AC-8E41-1CDF677894E7";
shapes = (
{
closed = 1;
nodes = (
(161,0,l),
(207,374,l),
(531,374,l),
(761,0,l),
(808,0,l),
(264,884,l),
(317,897,o),
(355,943,o),
(355,998,cs),
(355,1076,o),
(282,1146,o),
(205,1146,cs),
(140,1146,o),
(83,1097,o),
(83,1027,cs),
(83,952,o),
(151,883,o),
(228,880,c),
(118,0,l)
);
},
{
closed = 1;
nodes = (
(241,660,ls),
(249,730,o),
(254,764,o),
(258,828,c),
(292,764,o),
(314,730,o),
(357,660,cs),
(509,412,l),
(211,412,l)
);
},
{
closed = 1;
nodes = (
(176,914,o),
(120,965,o),
(120,1028,cs),
(120,1073,o),
(156,1112,o),
(204,1112,cs),
(262,1112,o),
(318,1061,o),
(318,998,cs),
(318,954,o),
(282,914,o),
(234,914,cs)
);
},
{
closed = 1;
nodes = (
(190,1185,l),
(243,1293,l),
(204,1293,l),
(160,1185,l)
);
}
);
width = 780;
},
{
guides = (
{
angle = 65.7508;
pos = (232,1262);
}
);
layerId = "AC72BC7B-7DA4-4629-8F76-12EBC1936C54";
shapes = (
{
closed = 1;
nodes = (
(186,0,l),
(227,267,l),
(542,267,l),
(714,0,l),
(839,0,l),
(286,844,l),
(337,864,o),
(373,913,o),
(373,972,cs),
(373,1064,o),
(289,1146,o),
(196,1146,cs),
(118,1146,o),
(55,1087,o),
(55,1008,cs),
(55,923,o),
(127,846,o),
(211,835,c),
(75,0,l)
);
},
{
closed = 1;
nodes = (
(269,540,ls),
(276,585,o),
(281,624,o),
(282,686,c),
(313,624,o),
(336,586,o),
(366,540,cs),
(481,362,l),
(242,362,l)
);
},
{
closed = 1;
nodes = (
(176,906,o),
(130,950,o),
(130,1001,cs),
(130,1041,o),
(161,1074,o),
(203,1074,cs),
(252,1074,o),
(298,1030,o),
(298,979,cs),
(298,939,o),
(267,906,o),
(225,906,cs)
);
},
{
closed = 1;
nodes = (
(197,1194,l),
(260,1335,l),
(165,1335,l),
(123,1194,l)
);
}
);
width = 800;
},
{
layerId = "01A22628-B541-4374-9232-A2213F2D24BF";
shapes = (
{
closed = 1;
nodes = (
(250,0,l),
(277,160,l),
(583,160,l),
(690,0,l),
(883,0,l),
(329,823,l),
(381,845,o),
(418,895,o),
(418,959,cs),
(418,1058,o),
(329,1146,o),
(227,1146,cs),
(141,1146,o),
(76,1081,o),
(76,998,cs),
(76,910,o),
(147,830,o),
(233,813,c),
(87,0,l)
);
},
{
closed = 1;
nodes = (
(318,396,ls),
(327,445,o),
(335,487,o),
(336,548,c),
(366,488,o),
(393,445,o),
(426,396,cs),
(487,304,l),
(302,304,l)
);
},
{
closed = 1;
nodes = (
(214,909,o),
(178,946,o),
(178,985,cs),
(178,1020,o),
(204,1047,o),
(240,1047,cs),
(280,1047,o),
(316,1010,o),
(316,971,cs),
(316,935,o),
(290,909,o),
(254,909,cs)
);
},
{
closed = 1;
nodes = (
(251,1194,l),
(325,1356,l),
(177,1356,l),
(137,1194,l)
);
}
);
width = 820;
},
{
background = {
shapes = (
{
closed = 1;
nodes = (
(301,1202,l),
(187,1376,l),
(-49,1376,l),
(125,1202,l)
);
}
);
};
layerId = "40756F1B-8CBD-42F6-8842-73C8ADC25AA8";
shapes = (
{
closed = 1;
nodes = (
(333,0,l),
(347,75,l),
(589,75,l),
(639,0,l),
(951,0,l),
(395,844,l),
(426,873,o),
(446,914,o),
(446,963,cs),
(446,1071,o),
(349,1166,o),
(238,1166,cs),
(145,1166,o),
(74,1096,o),
(74,1006,cs),
(74,928,o),
(125,857,o),
(193,823,c),
(59,0,l)
);
},
{
closed = 1;
nodes = (
(367,266,ls),
(375,322,o),
(378,362,o),
(379,431,c),
(415,362,o),
(437,324,o),
(473,266,cs),
(491,237,l),
(363,237,l)
);
},
{
closed = 1;
nodes = (
(234,930,o),
(206,959,o),
(206,989,cs),
(206,1017,o),
(226,1038,o),
(255,1038,cs),
(286,1038,o),
(314,1009,o),
(314,979,cs),
(314,950,o),
(294,930,o),
(265,930,cs)
);
},
{
closed = 1;
nodes = (
(293,1202,l),
(403,1376,l),
(183,1376,l),
(133,1202,l)
);
}
);
width = 860;
}
);
unicode = 506;
},
{
color = 3;
glyphname = AE;
kernLeft = A;
kernRight = A;
lastChange = "2024-02-25 12:47:24 +0000";
layers = (
{
anchors = (
{
name = bottom;
pos = (431,0);
},
{
name = top;
pos = (422,900);
}
);
guides = (
{
angle = -64.186;
pos = (771,430);
}
);
layerId = "ACBCE007-E73D-46AC-8E41-1CDF677894E7";
shapes = (
{
closed = 1;
nodes = (
(161,0,l),
(207,374,l),
(499,374,l),
(701,0,l),
(1039,0,l),
(1020,40,l),
(728,40,l),
(458,536,l),
(720,536,l),
(701,574,l),
(436,574,l),
(281,860,l),
(623,860,l),
(604,900,l),
(231,900,l),
(120,0,l)
);
},
{
closed = 1;
nodes = (
(240,660,ls),
(248,730,o),
(254,764,o),
(257,828,c),
(288,764,o),
(306,730,o),
(344,660,cs),
(478,412,l),
(210,412,l)
);
}
);
width = 1000;
},
{
anchors = (
{
name = bottom;
pos = (454,0);
},
{
name = top;
pos = (437,900);
}
);
guides = (
{
angle = -104.036;
pos = (18,300);
},
{
angle = -64.5663;
pos = (850,450);
}
);
layerId = "AC72BC7B-7DA4-4629-8F76-12EBC1936C54";
shapes = (
{
closed = 1;
nodes = (
(200,0,l),
(241,267,l),
(546,267,l),
(694,0,l),
(1064,0,l),
(1015,102,l),
(759,102,l),
(536,504,l),
(764,504,l),
(716,606,l),
(479,606,l),
(372,798,l),
(661,798,l),
(612,900,l),
(238,900,l),
(92,0,l)
);
},
{
closed = 1;
nodes = (
(282,540,ls),
(290,594,o),
(298,647,o),
(302,713,c),
(335,647,o),
(365,594,o),
(395,540,cs),
(493,362,l),
(255,362,l)
);
}
);
width = 1020;
},
{
anchors = (
{
name = bottom;
pos = (1148,0);
},
{
name = ogonek;
pos = (1370,0);
},
{
name = top;
pos = (400,900);
},
{
name = topleft;
pos = (926,900);
}
);
associatedMasterId = "AC72BC7B-7DA4-4629-8F76-12EBC1936C54";
guides = (
{
angle = -68.2901;
pos = (554,270);
},
{
angle = 180;
pos = (609,798);
}
);
layerId = "BC8738AA-4D07-4588-BF79-40736E67523D";
name = "27 May 22, 14:15";
shapes = (
{
closed = 1;
nodes = (
(133,0,l),
(349,540,ls),
(367,586,o),
(381,624,o),
(397,686,c),
(413,624,o),
(428,585,o),
(446,540,cs),
(661,0,l),
(972,0,l),
(972,102,l),
(740,102,l),
(575,504,l),
(785,504,l),
(785,606,l),
(533,606,l),
(454,798,l),
(785,798,l),
(785,900,l),
(303,900,l),
(344,798,l),
(18,0,l)
);
},
{
closed = 1;
nodes = (
(548,362,l),
(247,362,l),
(211,267,l),
(583,267,l)
);
}
);
width = 1020;
},
{
anchors = (
{
name = bottom;
pos = (482,0);
},
{
name = top;
pos = (455,900);
}
);
guides = (
{
angle = 67.257;
pos = (270,198);
},
{
angle = -70.9595;
pos = (525,297);
},
{
pos = (353,396);
},
{
angle = -104.036;
pos = (12,300);
},
{
angle = 270;
pos = (935,81);
},
{
angle = -61.1892;
pos = (844,450);
}
);
layerId = "01A22628-B541-4374-9232-A2213F2D24BF";
shapes = (
{
closed = 1;
nodes = (
(254,0,l),
(281,160,l),
(599,160,l),
(694,0,l),
(1091,0,l),
(1007,162,l),
(780,162,l),
(605,456,l),
(792,456,l),
(714,606,l),
(516,606,l),
(434,744,l),
(677,744,l),
(596,900,l),
(247,900,l),
(87,0,l)
);
},
{
closed = 1;
nodes = (
(321,396,ls),
(331,456,o),
(343,517,o),
(346,597,c),
(385,517,o),
(422,456,o),
(458,396,cs),
(513,304,l),
(305,304,l)
);
}
);
width = 1040;
},
{
anchors = (
{
name = bottom;
pos = (1148,0);
},
{
name = ogonek;
pos = (1370,0);
},
{
name = top;
pos = (400,900);
},
{
name = topleft;
pos = (926,900);
}
);
associatedMasterId = "01A22628-B541-4374-9232-A2213F2D24BF";
guides = (
{
angle = -68.2901;
pos = (554,270);
},
{
angle = 180;
pos = (609,798);
}
);
layerId = "06773367-0D9A-4F21-8B63-39149027F545";
name = "27 May 22, 14:21";
shapes = (
{
closed = 1;
nodes = (
(133,0,l),
(349,540,ls),
(367,586,o),
(381,624,o),
(397,686,c),
(413,624,o),
(428,585,o),
(446,540,cs),
(661,0,l),
(972,0,l),
(972,102,l),
(740,102,l),
(575,504,l),
(785,504,l),
(785,606,l),
(533,606,l),
(454,798,l),
(785,798,l),
(785,900,l),
(303,900,l),
(344,798,l),
(18,0,l)
);
},
{
closed = 1;
nodes = (
(548,362,l),
(247,362,l),
(211,267,l),
(583,267,l)
);
}
);
width = 1020;
},
{
anchors = (
{
name = bottom;
pos = (509,0);
},
{
name = top;
pos = (406,900);
}
);
background = {
shapes = (
{
closed = 1;
nodes = (
(239,0,l),
(268,53,l),
(599,53,l),
(627,0,l),
(1042,0,l),
(980,223,l),
(783,223,l),
(705,412,l),
(860,412,l),
(802,614,l),
(632,614,l),
(601,688,l),
(808,688,l),
(748,900,l),
(405,900,l),
(1,0,l)
);
},
{
closed = 1;
nodes = (
(361,258,ls),
(387,319,o),
(420,390,o),
(445,481,c),
(467,390,o),
(494,319,o),
(518,258,cs),
(529,248,l),
(351,248,l)
);
}
);
};
guides = (
{
angle = -67.0866;
pos = (975,240);
}
);
layerId = "40756F1B-8CBD-42F6-8842-73C8ADC25AA8";
shapes = (
{
closed = 1;
nodes = (
(333,0,l),
(347,75,l),
(589,75,l),
(639,0,l),
(1151,0,l),
(990,240,l),
(782,240,l),
(688,378,l),
(897,378,l),
(769,570,l),
(561,570,l),
(496,666,l),
(763,666,l),
(607,900,l),
(204,900,l),
(59,0,l)
);
},
{
closed = 1;
nodes = (
(367,266,ls),
(374,324,o),
(377,362,o),
(379,431,c),
(414,362,o),
(438,322,o),
(473,266,cs),
(491,237,l),
(363,237,l)
);
}
);
width = 1060;
}
);
unicode = 198;
},
{
color = 3;
glyphname = B;
kernLeft = B;
kernRight = B;
lastChange = "2024-02-18 12:56:12 +0000";
layers = (
{
background = {
shapes = (
{
closed = 1;
nodes = (
(401,0,ls),
(568,0,o),
(668,102,o),
(668,241,cs),
(668,405,o),
(527,545,o),
(336,545,c),
(289,520,l),
(409,520,o),
(480,591,o),
(480,688,cs),
(480,803,o),
(379,900,o),
(243,900,cs),
(-14,900,l),
(211,0,l)
);
},
{
closed = 1;
nodes = (
(127,510,l),
(330,510,ls),
(506,510,o),
(624,387,o),
(624,245,cs),
(624,126,o),
(542,38,o),
(390,38,cs),
(245,38,l)
);
},
{
closed = 1;
nodes = (
(40,862,l),
(242,862,ls),
(360,862,o),
(438,779,o),
(438,685,cs),
(438,605,o),
(383,546,o),
(282,546,cs),
(118,546,l)
);
}
);
};
guides = (
{
angle = 104.036;
pos = (136,300);
},
{
angle = 104.036;
pos = (180,300);
},
{
angle = 104.036;
pos = (662,300);
},
{
angle = 104.036;
pos = (582,300);
}
);
layerId = "ACBCE007-E73D-46AC-8E41-1CDF677894E7";
shapes = (
{
closed = 1;
nodes = (
(401,0,ls),
(568,0,o),
(668,102,o),
(668,241,cs),
(668,389,o),
(553,518,o),
(390,541,c),
(448,569,o),
(480,623,o),
(480,688,cs),
(480,803,o),
(379,900,o),
(243,900,cs),
(-14,900,l),
(211,0,l)
);
},
{
closed = 1;
nodes = (
(127,510,l),
(330,510,ls),
(506,510,o),
(624,387,o),
(624,245,cs),
(624,126,o),
(542,38,o),
(390,38,cs),
(245,38,l)
);
},
{
closed = 1;
nodes = (
(40,862,l),
(242,862,ls),
(360,862,o),
(438,779,o),
(438,685,cs),
(438,605,o),
(383,546,o),
(282,546,cs),
(118,546,l)
);
}
);
width = 730;
},
{
background = {
shapes = (
{
closed = 1;
nodes = (
(453,0,ls),
(657,0,o),
(729,144,o),
(694,287,cs),
(666,399,o),
(576,492,o),
(468,536,c),
(510,570,o),
(528,627,o),
(512,692,cs),
(490,778,o),
(400,900,o),
(229,900,cs),
(-23,900,l),
(201,0,l)
);
},
{
closed = 1;
nodes = (
(196,480,l),
(326,480,ls),
(477,480,o),
(558,375,o),
(579,291,cs),
(600,204,o),
(567,102,o),
(420,102,cs),
(290,102,l)
);
},
{
closed = 1;
nodes = (
(116,798,l),
(249,798,ls),
(324,798,o),
(387,759,o),
(405,686,cs),
(423,615,o),
(380,576,o),
(301,576,cs),
(172,576,l)
);
}
);
};
guides = (
{
angle = 104.036;
pos = (126,300);
},
{
angle = 104.036;
pos = (690,300);
},
{
angle = 104.036;
pos = (240,300);
},
{
angle = 104.036;
pos = (609,300);
}
);
layerId = "AC72BC7B-7DA4-4629-8F76-12EBC1936C54";
shapes = (
{
closed = 1;
nodes = (
(424,0,ls),
(581,0,o),
(693,104,o),
(693,253,cs),
(693,389,o),
(596,509,o),
(470,555,c),
(497,585,o),
(512,624,o),
(512,668,cs),
(512,793,o),
(398,900,o),
(248,900,cs),
(-24,900,l),
(201,0,l)
);
},
{
closed = 1;
nodes = (
(196,480,l),
(358,480,ls),
(477,480,o),
(579,381,o),
(579,265,cs),
(579,169,o),
(507,102,o),
(406,102,cs),
(290,102,l)
);
},
{
closed = 1;
nodes = (
(115,798,l),
(265,798,ls),
(344,798,o),
(404,740,o),
(404,672,cs),
(404,615,o),
(362,576,o),
(303,576,cs),
(172,576,l)
);
}
);
width = 750;
},
{
background = {
shapes = (
{
closed = 1;
nodes = (
(440,3,ls),
(622,26,o),
(704,145,o),
(704,273,cs),
(704,392,o),
(632,516,o),
(498,575,c),
(517,602,o),
(527,634,o),
(527,668,cs),
(527,771,o),
(435,894,o),
(274,894,cs),
(260,894,o),
(245,893,o),
(230,891,cs),
(-47,857,l),
(174,-30,l)
);
},
{
closed = 1;
nodes = (
(228,468,l),
(331,468,ls),
(424,468,o),
(506,387,o),
(506,294,cs),
(506,217,o),
(449,162,o),
(367,162,cs),
(305,162,l)
);
},
{
closed = 1;
nodes = (
(153,768,l),
(259,768,ls),
(312,768,o),
(359,722,o),
(359,669,cs),
(359,625,o),
(326,594,o),
(280,594,cs),
(196,594,l)
);
}
);
};
guides = (
{
angle = 104.036;
pos = (702,300);
},
{
angle = 104.036;
pos = (270,300);
},
{
angle = 104.036;
pos = (96,300);
},
{
angle = 104.036;
pos = (621,300);
}
);
layerId = "01A22628-B541-4374-9232-A2213F2D24BF";
shapes = (
{
closed = 1;
nodes = (
(394,0,ls),
(572,0,o),
(699,116,o),
(699,273,cs),
(699,393,o),
(626,517,o),
(496,576,c),
(514,603,o),
(524,634,o),
(524,668,cs),
(524,785,o),
(417,900,o),
(251,900,cs),
(-54,900,l),
(171,0,l)
);
},
{
closed = 1;
nodes = (
(228,468,l),
(331,468,ls),
(424,468,o),
(506,387,o),
(506,294,cs),
(506,217,o),
(449,162,o),
(367,162,cs),
(305,162,l)
);
},
{
closed = 1;
nodes = (
(153,768,l),
(259,768,ls),
(312,768,o),
(359,722,o),
(359,669,cs),
(359,625,o),
(326,594,o),
(280,594,cs),
(196,594,l)
);
}
);
width = 750;
},
{
associatedMasterId = "01A22628-B541-4374-9232-A2213F2D24BF";
background = {
shapes = (
{
closed = 1;
nodes = (
(228,468,l),
(331,468,ls),
(424,468,o),
(506,387,o),
(506,294,cs),
(506,217,o),
(449,162,o),
(367,162,cs),
(305,162,l)
);
},
{
closed = 1;
nodes = (
(153,768,l),
(259,768,ls),
(312,768,o),
(359,722,o),
(359,669,cs),
(359,625,o),
(326,594,o),
(280,594,cs),
(196,594,l)
);
},
{
closed = 0;
nodes = (
(329,468,l),
(444,468,o),
(525,545,o),
(525,652,cs),
(525,729,o),
(483,802,o),
(420,843,c)
);
},
{
closed = 0;
nodes = (
(277,900,l),
(-54,900,l),
(171,0,l),
(447,0,ls)
);
},
{
closed = 0;
nodes = (
(615,68,l),
(669,115,o),
(703,184,o),
(703,262,cs),
(703,437,o),
(538,593,o),
(354,593,cs)
);
}
);
};
guides = (
{
angle = 3.1798;
pos = (555,686);
},
{
angle = -2.0096;
pos = (633,311);
},
{
angle = 104.036;
pos = (702,300);
},
{
angle = 104.036;
pos = (270,300);
},
{
angle = 104.036;
pos = (96,300);
},
{
angle = 104.036;
pos = (621,300);
}
);
layerId = "D12CF7C7-782C-42EE-84A2-15654A618C31";
name = "23 Sep 23, 09:12";
shapes = (
{
closed = 1;
nodes = (
(421,0,ls),
(578,0,o),
(694,114,o),
(694,275,cs),
(694,410,o),
(617,512,o),
(486,565,c),
(510,593,o),
(523,629,o),
(523,669,cs),
(523,793,o),
(408,900,o),
(275,900,cs),
(-54,900,l),
(171,0,l)
);
},
{
closed = 1;
nodes = (
(228,468,l),
(331,468,ls),
(424,468,o),
(506,387,o),
(506,294,cs),
(506,217,o),
(449,162,o),
(367,162,cs),
(305,162,l)
);
},
{
closed = 1;
nodes = (
(153,768,l),
(259,768,ls),
(312,768,o),
(359,722,o),
(359,669,cs),
(359,625,o),
(326,594,o),
(280,594,cs),
(196,594,l)
);
}
);
width = 750;
},
{
associatedMasterId = "40756F1B-8CBD-42F6-8842-73C8ADC25AA8";
layerId = "DA5CEDA7-1462-4CC2-8D69-D5558E4E998E";
name = "4 Jan 24, 10:02";
shapes = (
{
closed = 1;
nodes = (
(359,0,ls),
(597,0,o),
(718,170,o),
(718,330,cs),
(718,426,o),
(675,511,o),
(613,572,c),
(630,610,o),
(637,646,o),
(637,684,cs),
(637,767,o),
(579,900,o),
(382,900,cs),
(71,900,l),
(71,0,l)
);
},
{
closed = 1;
nodes = (
(308,452,l),
(337,452,ls),
(431,452,o),
(457,382,o),
(457,337,cs),
(457,292,o),
(428,223,o),
(334,223,cs),
(308,223,l)
);
},
{
closed = 1;
nodes = (
(308,730,l),
(339,730,ls),
(378,730,o),
(408,714,o),
(408,671,cs),
(408,630,o),
(378,615,o),
(336,615,cs),
(308,615,l)
);
}
);
width = 755;
},
{
associatedMasterId = "40756F1B-8CBD-42F6-8842-73C8ADC25AA8";
background = {
shapes = (
{
closed = 1;
nodes = (
(528,0,ls),
(734,0,o),
(852,119,o),
(807,296,cs),
(787,379,o),
(735,452,o),
(656,503,c),
(684,542,o),
(689,592,o),
(675,646,cs),
(637,798,o),
(487,900,o),
(312,900,cs),
(-89,900,l),
(135,0,l)
);
},
{
closed = 1;
nodes = (
(324,396,l),
(402,396,ls),
(457,396,o),
(502,364,o),
(516,309,cs),
(529,256,o),
(499,222,o),
(446,222,cs),
(368,222,l)
);
},
{
closed = 1;
nodes = (
(247,708,l),
(319,708,ls),
(363,708,o),
(403,680,o),
(414,636,cs),
(425,591,o),
(400,564,o),
(355,564,cs),
(283,564,l)
);
}
);
};
guides = (
{
angle = 104.036;
pos = (806,300);
},
{
angle = 104.036;
pos = (60,300);
},
{
angle = 104.036;
pos = (363,900);
},
{
angle = 104.036;
pos = (758,300);
},
{
angle = 104.036;
pos = (477,0);
},
{
angle = 104.036;
pos = (347,300);
}
);
layerId = "B44439D5-7E1F-4290-9166-57634FB4942A";
name = "18 Feb 24, 13:38";
shapes = (
{
closed = 1;
nodes = (
(522,7,ls),
(724,32,o),
(840,167,o),
(796,341,cs),
(776,423,o),
(725,491,o),
(647,533,c),
(675,576,o),
(680,627,o),
(666,681,cs),
(629,830,o),
(481,916,o),
(308,894,cs),
(-87,846,l),
(134,-41,l)
);
},
{
closed = 1;
nodes = (
(321,384,l),
(397,394,ls),
(452,400,o),
(496,373,o),
(510,319,cs),
(523,267,o),
(493,229,o),
(441,222,cs),
(364,213,l)
);
},
{
closed = 1;
nodes = (
(244,692,l),
(315,700,ls),
(359,706,o),
(398,682,o),
(409,639,cs),
(420,594,o),
(395,564,o),
(351,558,cs),
(280,550,l)
);
}
);
width = 830;
},
{
guides = (
{
angle = 104.036;
pos = (806,300);
},
{
angle = 104.036;
pos = (60,300);
},
{
angle = 104.036;
pos = (363,900);
},
{
angle = 104.036;
pos = (758,300);
},
{
angle = 104.036;
pos = (477,0);
},
{
angle = 104.036;
pos = (347,300);
}
);
layerId = "40756F1B-8CBD-42F6-8842-73C8ADC25AA8";
name = "Black Backslant";
shapes = (
{
closed = 1;
nodes = (
(477,0,ls),
(688,0,o),
(807,94,o),
(807,260,cs),
(807,404,o),
(717,491,o),
(639,533,c),
(657,561,o),
(666,592,o),
(666,633,cs),
(666,795,o),
(547,900,o),
(363,900,cs),
(-90,900,l),
(135,0,l)
);
},
{
closed = 1;
nodes = (
(324,396,l),
(417,396,ls),
(471,396,o),
(515,351,o),
(515,296,cs),
(515,251,o),
(486,222,o),
(439,222,cs),
(367,222,l)
);
},
{
closed = 1;
nodes = (
(245,708,l),
(331,708,ls),
(375,708,o),
(412,671,o),
(412,625,cs),
(412,588,o),
(388,564,o),
(349,564,cs),
(281,564,l)
);
}
);
width = 830;
}
);
unicode = 66;
},
{
color = 3;
glyphname = C;
kernLeft = C;
kernRight = C;
lastChange = "2024-02-26 20:31:20 +0000";
layers = (
{
anchors = (
{
name = bottom;
pos = (538,0);
},
{
name = top;
pos = (431,900);
}
);
background = {
guides = (
{
angle = 270;
pos = (799,149);
},
{
angle = 244.359;
pos = (947,751);
}
);
shapes = (
{
closed = 1;
nodes = (
(569,-12,o),
(696,40,o),
(799,124,c),
(799,174,l),
(703,86,o),
(580,30,o),
(455,30,cs),
(226,30,o),
(93,218,o),
(150,450,cs),
(207,682,o),
(432,870,o),
(661,870,cs),
(786,870,o),
(883,814,o),
(935,726,c),
(959,776,l),
(898,860,o),
(797,912,o),
(672,912,cs),
(421,912,o),
(167,706,o),
(104,450,cs),
(41,194,o),
(193,-12,o),
(444,-12,cs)
);
}
);
};
guides = (
{
angle = 270;
pos = (829,149);
},
{
angle = 244.359;
pos = (917,751);
},
{
angle = 104.036;
pos = (67,300);
}
);
layerId = "ACBCE007-E73D-46AC-8E41-1CDF677894E7";
shapes = (
{
closed = 1;
nodes = (
(671,-12,o),
(790,51,o),
(867,159,c),
(845,205,l),
(780,95,o),
(665,30,o),
(536,30,cs),
(297,30,o),
(76,258,o),
(76,506,cs),
(76,713,o),
(230,870,o),
(431,870,cs),
(536,870,o),
(640,828,o),
(724,752,c),
(724,807,l),
(638,875,o),
(535,912,o),
(431,912,cs),
(205,912,o),
(30,734,o),
(30,505,cs),
(30,236,o),
(274,-12,o),
(539,-12,cs)
);
}
);
width = 881;
},
{
anchors = (
{
name = bottom;
pos = (544,0);
},
{
name = top;
pos = (414,900);
}
);
background = {
shapes = (
{
closed = 1;
nodes = (
(580,-18,o),
(707,33,o),
(813,115,c),
(813,253,l),
(727,155,o),
(604,90,o),
(478,90,cs),
(280,90,o),
(166,251,o),
(215,450,cs),
(264,649,o),
(458,810,o),
(656,810,cs),
(781,810,o),
(873,745,o),
(911,647,c),
(977,785,l),
(913,867,o),
(810,918,o),
(682,918,cs),
(422,918,o),
(161,709,o),
(97,450,cs),
(33,191,o),
(192,-18,o),
(452,-18,cs)
);
}
);
};
guides = (
{
angle = 270;
pos = (754,709);
},
{
angle = 115.9819;
pos = (819,190);
},
{
angle = 104.036;
pos = (60,300);
},
{
angle = -104.036;
pos = (1000,300);
}
);
layerId = "AC72BC7B-7DA4-4629-8F76-12EBC1936C54";
shapes = (
{
closed = 1;
nodes = (
(679,-18,o),
(796,38,o),
(874,136,c),
(817,255,l),
(771,155,o),
(661,90,o),
(539,90,cs),
(330,90,o),
(142,283,o),
(142,496,cs),
(142,674,o),
(274,810,o),
(449,810,cs),
(547,810,o),
(646,766,o),
(723,688,c),
(723,826,l),
(634,886,o),
(534,918,o),
(438,918,cs),
(204,918,o),
(24,738,o),
(24,505,cs),
(24,231,o),
(273,-18,o),
(548,-18,cs)
);
}
);
width = 900;
},
{
anchors = (
{
name = bottom;
pos = (539,0);
},
{
name = top;
pos = (449,900);
}
);
background = {
shapes = (
{
closed = 1;
nodes = (
(571,-18,o),
(687,24,o),
(788,93,c),
(789,303,l),
(719,220,o),
(613,156,o),
(501,156,cs),
(338,156,o),
(245,287,o),
(285,450,cs),
(325,613,o),
(482,744,o),
(645,744,cs),
(758,744,o),
(832,680,o),
(861,597,c),
(964,807,l),
(898,877,o),
(800,918,o),
(682,918,cs),
(419,918,o),
(155,709,o),
(91,450,cs),
(27,191,o),
(189,-18,o),
(452,-18,cs)
);
}
);
};
guides = (
{
angle = 269.7094;
pos = (810,191);
},
{
angle = 244.0181;
pos = (875,710);
},
{
angle = 104.036;
pos = (54,300);
},
{
angle = -104.036;
pos = (1006,300);
}
);
layerId = "01A22628-B541-4374-9232-A2213F2D24BF";
shapes = (
{
closed = 1;
nodes = (
(671,-18,o),
(785,32,o),
(864,120,c),
(769,317,l),
(736,221,o),
(640,156,o),
(531,156,cs),
(360,156,o),
(208,312,o),
(208,486,cs),
(208,632,o),
(317,744,o),
(459,744,cs),
(550,744,o),
(641,697,o),
(704,617,c),
(704,842,l),
(622,892,o),
(531,918,o),
(439,918,cs),
(201,918,o),
(18,738,o),
(18,504,cs),
(18,229,o),
(269,-18,o),
(547,-18,cs)
);
}
);
width = 870;
},
{
anchors = (
{
name = bottom;
pos = (535,0);
},
{
name = top;
pos = (374,900);
}
);
background = {
shapes = (
{
closed = 1;
nodes = (
(709,-20,o),
(808,12,o),
(872,68,c),
(719,377,l),
(684,306,o),
(623,268,o),
(548,268,cs),
(444,268,o),
(344,348,o),
(319,450,cs),
(294,552,o),
(354,632,o),
(458,632,cs),
(533,632,o),
(612,594,o),
(683,523,c),
(682,832,l),
(590,888,o),
(475,920,o),
(368,920,cs),
(95,920,o),
(-65,715,o),
(1,450,cs),
(67,185,o),
(329,-20,o),
(602,-20,cs)
);
}
);
};
guides = (
{
angle = 104.036;
pos = (38,300);
},
{
angle = 104.036;
pos = (356,300);
}
);
layerId = "40756F1B-8CBD-42F6-8842-73C8ADC25AA8";
shapes = (
{
closed = 1;
nodes = (
(652,-20,o),
(766,18,o),
(843,82,c),
(702,369,l),
(664,306,o),
(600,269,o),
(529,269,cs),
(416,269,o),
(319,363,o),
(319,471,cs),
(319,565,o),
(391,632,o),
(490,632,cs),
(563,632,o),
(638,595,o),
(704,527,c),
(704,849,l),
(619,895,o),
(528,920,o),
(437,920,cs),
(187,920,o),
(2,743,o),
(2,504,cs),
(2,223,o),
(249,-20,o),
(535,-20,cs)
);
}
);
width = 830;
}
);
unicode = 67;
},
{
color = 3;
glyphname = Ccedilla;
kernLeft = C;
kernRight = C;
lastChange = "2024-02-26 20:31:26 +0000";
layers = (
{
layerId = "ACBCE007-E73D-46AC-8E41-1CDF677894E7";
shapes = (
{
closed = 1;
nodes = (
(434,-180,l),
(548,-12,l),
(666,-9,o),
(773,44,o),
(848,135,c),
(826,181,l),
(758,85,o),
(652,30,o),
(535,30,cs),
(296,30,o),
(75,258,o),
(75,506,cs),
(75,713,o),
(229,870,o),
(430,870,cs),
(548,870,o),
(664,817,o),
(753,722,c),
(753,781,l),
(662,865,o),
(546,912,o),
(430,912,cs),
(204,912,o),
(29,734,o),
(29,505,cs),
(29,246,o),
(256,6,o),
(510,-11,c),
(384,-180,l)
);
}
);
width = 880;
},
{
layerId = "AC72BC7B-7DA4-4629-8F76-12EBC1936C54";
shapes = (
{
closed = 1;
nodes = (
(455,-180,l),
(585,-16,l),
(701,-7,o),
(803,47,o),
(874,136,c),
(817,255,l),
(771,155,o),
(661,90,o),
(539,90,cs),
(330,90,o),
(142,283,o),
(142,496,cs),
(142,674,o),
(274,810,o),
(449,810,cs),
(547,810,o),
(646,766,o),
(723,688,c),
(723,826,l),
(634,886,o),
(534,918,o),
(438,918,cs),
(204,918,o),
(24,738,o),
(24,505,cs),
(24,255,o),
(232,25,o),
(478,-13,c),
(312,-180,l)
);
}
);
width = 900;
},
{
layerId = "01A22628-B541-4374-9232-A2213F2D24BF";
shapes = (
{
closed = 1;
nodes = (
(516,-192,l),
(607,-14,l),
(707,-1,o),
(798,46,o),
(864,120,c),
(769,317,l),
(736,221,o),
(640,156,o),
(531,156,cs),
(360,156,o),
(208,312,o),
(208,486,cs),
(208,632,o),
(317,744,o),
(459,744,cs),
(550,744,o),
(641,697,o),
(704,617,c),
(704,842,l),
(622,892,o),
(531,918,o),
(439,918,cs),
(201,918,o),
(18,738,o),
(18,504,cs),
(18,259,o),
(217,36,o),
(457,-9,c),
(325,-192,l)
);
}
);
width = 870;
},
{
layerId = "40756F1B-8CBD-42F6-8842-73C8ADC25AA8";
shapes = (
{
closed = 1;
nodes = (
(598,-220,l),
(664,-5,l),
(732,12,o),
(795,42,o),
(843,82,c),
(702,369,l),
(664,306,o),
(600,269,o),
(529,269,cs),
(416,269,o),
(319,363,o),
(319,471,cs),
(319,565,o),
(391,632,o),
(490,632,cs),
(563,632,o),
(638,595,o),
(704,527,c),
(704,849,l),
(619,895,o),
(528,920,o),
(437,920,cs),
(187,920,o),
(2,743,o),
(2,504,cs),
(2,267,o),
(178,57,o),
(404,-3,c),
(258,-220,l)
);
}
);
width = 830;
}
);
unicode = 199;
},
{
color = 3;
glyphname = D;
kernLeft = B;
kernRight = D;
lastChange = "2024-02-26 20:31:39 +0000";
layers = (
{
anchors = (
{
name = bottom;
pos = (448,0);
},
{
name = center;
pos = (113,480);
},
{
name = top;
pos = (343,900);
}
);
background = {
shapes = (
{
closed = 1;
nodes = (
(431,0,ls),
(702,0,o),
(950,225,o),
(950,509,cs),
(950,750,o),
(773,900,o),
(543,900,cs),
(306,900,l),
(81,0,l)
);
},
{
closed = 1;
nodes = (
(350,858,l),
(528,858,ls),
(747,858,o),
(904,716,o),
(904,505,cs),
(904,253,o),
(683,42,o),
(421,42,cs),
(145,42,l)
);
}
);
};
guides = (
{
angle = 104.036;
pos = (136,300);
}
);
layerId = "ACBCE007-E73D-46AC-8E41-1CDF677894E7";
shapes = (
{
closed = 1;
nodes = (
(453,0,ls),
(681,0,o),
(856,172,o),
(856,395,cs),
(856,657,o),
(612,900,o),
(348,900,cs),
(-14,900,l),
(211,0,l)
);
},
{
closed = 1;
nodes = (
(40,860,l),
(338,860,ls),
(586,860,o),
(810,640,o),
(810,397,cs),
(810,194,o),
(652,40,o),
(443,40,cs),
(245,40,l)
);
}
);
width = 960;
},
{
anchors = (
{
name = bottom;
pos = (555,0);
},
{
name = center;
pos = (138,480);
},
{
name = top;
pos = (330,900);
}
);
background = {
shapes = (
{
closed = 1;
nodes = (
(418,0,ls),
(573,0,o),
(681,47,o),
(764,132,cs),
(850,219,o),
(896,331,o),
(896,451,cs),
(896,579,o),
(843,687,o),
(763,768,cs),
(684,848,o),
(581,900,o),
(418,900,cs),
(127,900,l),
(127,0,l)
);
},
{
closed = 1;
nodes = (
(240,798,l),
(406,798,ls),
(541,798,o),
(621,757,o),
(681,696,cs),
(741,635,o),
(782,550,o),
(782,450,cs),
(782,350,o),
(741,265,o),
(681,204,cs),
(621,143,o),
(541,102,o),
(406,102,cs),
(240,102,l)
);
}
);
};
guides = (
{
angle = 104.036;
pos = (126,300);
},
{
angle = 104.036;
pos = (240,300);
}
);
layerId = "AC72BC7B-7DA4-4629-8F76-12EBC1936C54";
shapes = (
{
closed = 1;
nodes = (
(447,0,ls),
(681,0,o),
(861,162,o),
(861,395,cs),
(861,669,o),
(612,900,o),
(337,900,cs),
(-24,900,l),
(201,0,l)
);
},
{
closed = 1;
nodes = (
(115,798,l),
(336,798,ls),
(555,798,o),
(743,616,o),
(743,403,cs),
(743,225,o),
(610,102,o),
(424,102,cs),
(290,102,l)
);
}
);
width = 960;
},
{
anchors = (
{
name = bottom;
pos = (411,0);
},
{
name = center;
pos = (138,480);
},
{
name = top;
pos = (322,900);
}
);
background = {
shapes = (
{
closed = 1;
nodes = (
(418,0,ls),
(573,0,o),
(681,47,o),
(764,132,cs),
(850,219,o),
(896,331,o),
(896,451,cs),
(896,579,o),
(843,687,o),
(763,768,cs),
(684,848,o),
(581,900,o),
(418,900,cs),
(127,900,l),
(127,0,l)
);
},
{
closed = 1;
nodes = (
(240,798,l),
(406,798,ls),
(541,798,o),
(621,757,o),
(681,696,cs),
(741,635,o),
(782,550,o),
(782,450,cs),
(782,350,o),
(741,265,o),
(681,204,cs),
(621,143,o),
(541,102,o),
(406,102,cs),
(240,102,l)
);
}
);
};
guides = (
{
angle = 262.6742;
pos = (353,51);
},
{
angle = 70.0059;
pos = (549,849);
},
{
angle = 104.036;
pos = (96,300);
},
{
angle = 104.036;
pos = (270,300);
}
);
layerId = "01A22628-B541-4374-9232-A2213F2D24BF";
shapes = (
{
closed = 1;
nodes = (
(426,0,ls),
(664,0,o),
(847,174,o),
(847,399,cs),
(847,663,o),
(597,900,o),
(318,900,cs),
(-54,900,l),
(171,0,l)
);
},
{
closed = 1;
nodes = (
(160,738,l),
(326,738,ls),
(502,738,o),
(657,585,o),
(657,411,cs),
(657,266,o),
(548,162,o),
(395,162,cs),
(305,162,l)
);
}
);
width = 940;
},
{
anchors = (
{
name = bottom;
pos = (507,0);
},
{
name = center;
pos = (157,456);
},
{
name = top;
pos = (283,900);
}
);
background = {
anchors = (
{
name = bottom;
pos = (507,0);
},
{
name = center;
pos = (157,456);
},
{
name = top;
pos = (283,900);
}
);
shapes = (
{
closed = 1;
nodes = (
(507,0,ls),
(773,0,o),
(928,196,o),
(865,450,cs),
(802,704,o),
(548,900,o),
(283,900,cs),
(-89,900,l),
(135,0,l)
);
},
{
closed = 1;
nodes = (
(268,624,l),
(335,624,ls),
(443,624,o),
(542,550,o),
(567,450,cs),
(592,350,o),
(529,276,o),
(421,276,cs),
(354,276,l)
);
}
);
};
guides = (
{
angle = -104.036;
pos = (902,300);
},
{
angle = -104.036;
pos = (604,300);
},
{
angle = 262.7939;
pos = (415,0);
}
);
layerId = "40756F1B-8CBD-42F6-8842-73C8ADC25AA8";
shapes = (
{
closed = 1;
nodes = (
(445,0,ls),
(684,0,o),
(864,170,o),
(864,395,cs),
(864,676,o),
(632,900,o),
(331,900,cs),
(-89,900,l),
(135,0,l)
);
},
{
closed = 1;
nodes = (
(268,624,l),
(364,624,ls),
(480,624,o),
(568,533,o),
(568,426,cs),
(568,340,o),
(506,276,o),
(408,276,cs),
(354,276,l)
);
}
);
width = 940;
}
);
unicode = 68;
},
{
glyphname = Eth;
kernLeft = B;
kernRight = D;
lastChange = "2024-02-26 20:31:53 +0000";
layers = (
{
guides = (
{
angle = 104.036;
pos = (166,300);
}
);
layerId = "ACBCE007-E73D-46AC-8E41-1CDF677894E7";
shapes = (
{
closed = 1;
nodes = (
(483,0,ls),
(711,0,o),
(886,172,o),
(886,395,cs),
(886,657,o),
(642,900,o),
(378,900,cs),
(16,900,l),
(116,499,l),
(10,499,l),
(20,461,l),
(126,461,l),
(241,0,l)
);
},
{
closed = 1;
nodes = (
(170,461,l),
(500,461,l),
(490,499,l),
(160,499,l),
(70,860,l),
(368,860,ls),
(616,860,o),
(840,640,o),
(840,397,cs),
(840,194,o),
(682,40,o),
(473,40,cs),
(275,40,l)
);
}
);
width = 990;
},
{
background = {
shapes = (
{
closed = 1;
nodes = (
(442,0,ls),
(717,0,o),
(966,231,o),
(966,505,cs),
(966,738,o),
(786,900,o),
(552,900,cs),
(306,900,l),
(212,522,l),
(113,522,l),
(93,438,l),
(191,438,l),
(81,0,l)
);
},
{
closed = 1;
nodes = (
(304,438,l),
(573,438,l),
(593,522,l),
(326,522,l),
(395,798,l),
(529,798,ls),
(715,798,o),
(848,675,o),
(848,497,cs),
(848,284,o),
(660,102,o),
(441,102,cs),
(220,102,l)
);
}
);
};
layerId = "AC72BC7B-7DA4-4629-8F76-12EBC1936C54";
shapes = (
{
closed = 1;
nodes = (
(477,0,ls),
(711,0,o),
(891,162,o),
(891,395,cs),
(891,669,o),
(642,900,o),
(367,900,cs),
(6,900,l),
(101,522,l),
(9,522,l),
(29,438,l),
(122,438,l),
(231,0,l)
);
},
{
closed = 1;
nodes = (
(236,438,l),
(509,438,l),
(489,522,l),
(214,522,l),
(145,798,l),
(366,798,ls),
(585,798,o),
(773,616,o),
(773,403,cs),
(773,225,o),
(640,102,o),
(454,102,cs),
(320,102,l)
);
}
);
width = 990;
},
{
layerId = "01A22628-B541-4374-9232-A2213F2D24BF";
shapes = (
{
closed = 1;
nodes = (
(456,0,ls),
(694,0,o),
(877,174,o),
(877,399,cs),
(877,663,o),
(627,900,o),
(348,900,cs),
(-24,900,l),
(65,543,l),
(-17,543,l),
(15,417,l),
(97,417,l),
(201,0,l)
);
},
{
closed = 1;
nodes = (
(271,417,l),
(495,417,l),
(463,543,l),
(239,543,l),
(190,738,l),
(356,738,ls),
(532,738,o),
(687,585,o),
(687,411,cs),
(687,266,o),
(578,162,o),
(425,162,cs),
(335,162,l)
);
}
);
width = 970;
},
{
layerId = "40756F1B-8CBD-42F6-8842-73C8ADC25AA8";
shapes = (
{
closed = 1;
nodes = (
(490,0,ls),
(729,0,o),
(909,170,o),
(909,395,cs),
(909,676,o),
(677,900,o),
(376,900,cs),
(-44,900,l),
(46,540,l),
(-30,540,l),
(12,372,l),
(87,372,l),
(180,0,l)
);
},
{
closed = 1;
nodes = (
(375,372,l),
(492,372,l),
(450,540,l),
(334,540,l),
(313,624,l),
(409,624,ls),
(525,624,o),
(613,533,o),
(613,426,cs),
(613,340,o),
(551,276,o),
(453,276,cs),
(399,276,l)
);
}
);
width = 980;
}
);
unicode = 208;
},
{
color = 3;
glyphname = E;
kernLeft = B;
kernRight = E;
lastChange = "2024-02-17 22:45:08 +0000";
layers = (
{
anchors = (
{
name = bottom;
pos = (409,0);
},
{
name = ogonek;
pos = (585,0);
},
{
name = top;
pos = (185,900);
},
{
name = topleft;
pos = (-14,900);
}
);
guides = (
{
angle = 104.036;
pos = (136,300);
},
{
angle = 104.036;
pos = (180,300);
},
{
pos = (202,536);
}
);
layerId = "ACBCE007-E73D-46AC-8E41-1CDF677894E7";
shapes = (
{
closed = 1;
nodes = (
(606,0,l),
(596,40,l),
(245,40,l),
(121,536,l),
(404,536,l),
(394,574,l),
(112,574,l),
(40,860,l),
(394,860,l),
(384,900,l),
(-14,900,l),
(211,0,l)
);
}
);
width = 600;
},
{
anchors = (
{
name = bottom;
pos = (423,0);
},
{
name = ogonek;
pos = (590,0);
},
{
name = top;
pos = (198,900);
},
{
name = topleft;
pos = (-24,900);
}
);
background = {
shapes = (
{
closed = 1;
nodes = (
(484,90,o),
(574,181,o),
(574,294,cs),
(574,408,o),
(484,498,o),
(370,498,cs),
(256,498,o),
(166,408,o),
(166,294,cs),
(166,181,o),
(256,90,o),
(370,90,cs)
);
},
{
closed = 1;
nodes = (
(200,-12,o),
(58,121,o),
(58,293,cs),
(58,418,o),
(133,521,o),
(239,568,c),
(232,550,l),
(187,587,o),
(158,639,o),
(158,705,cs),
(158,822,o),
(253,912,o),
(370,912,cs),
(487,912,o),
(582,822,o),
(582,705,cs),
(582,639,o),
(553,587,o),
(508,550,c),
(501,568,l),
(607,521,o),
(682,418,o),
(682,293,cs),
(682,121,o),
(540,-12,o),
(370,-12,cs)
);
},
{
closed = 1;
nodes = (
(432,586,o),
(482,636,o),
(482,698,cs),
(482,760,o),
(432,810,o),
(370,810,cs),
(308,810,o),
(258,760,o),
(258,698,cs),
(258,636,o),
(308,586,o),
(370,586,cs)
);
}
);
};
guides = (
{
angle = 104.036;
pos = (126,300);
},
{
angle = 104.036;
pos = (240,300);
}
);
layerId = "AC72BC7B-7DA4-4629-8F76-12EBC1936C54";
shapes = (
{
closed = 1;
nodes = (
(645,0,l),
(620,102,l),
(290,102,l),
(189,504,l),
(449,504,l),
(424,606,l),
(164,606,l),
(115,798,l),
(445,798,l),
(420,900,l),
(-24,900,l),
(201,0,l)
);
}
);
width = 630;
},
{
anchors = (
{
name = bottom;
pos = (411,0);
},
{
name = ogonek;
pos = (576,0);
},
{
name = top;
pos = (186,900);
},
{
name = topleft;
pos = (-54,900);
}
);
background = {
shapes = (
{
closed = 1;
nodes = (
(501,0,l),
(541,162,l),
(235,162,l),
(309,456,l),
(546,456,l),
(583,606,l),
(347,606,l),
(381,744,l),
(687,744,l),
(726,900,l),
(246,900,l),
(21,0,l)
);
}
);
};
guides = (
{
angle = 104.036;
pos = (96,300);
},
{
angle = 104.036;
pos = (270,300);
}
);
layerId = "01A22628-B541-4374-9232-A2213F2D24BF";
shapes = (
{
closed = 1;
nodes = (
(651,0,l),
(611,162,l),
(305,162,l),
(231,456,l),
(467,456,l),
(430,606,l),
(193,606,l),
(159,744,l),
(465,744,l),
(426,900,l),
(-54,900,l),
(171,0,l)
);
}
);
width = 630;
},
{
anchors = (
{
name = bottom;
pos = (414,0);
},
{
name = ogonek;
pos = (588,0);
},
{
name = top;
pos = (190,900);
},
{
name = topleft;
pos = (-89,900);
}
);
layerId = "40756F1B-8CBD-42F6-8842-73C8ADC25AA8";
shapes = (
{
closed = 1;
nodes = (
(693,0,l),
(633,240,l),
(357,240,l),
(323,378,l),
(557,378,l),
(509,570,l),
(275,570,l),
(251,666,l),
(527,666,l),
(469,900,l),
(-89,900,l),
(135,0,l)
);
}
);
width = 660;
}
);
unicode = 69;
},
{
color = 3;
glyphname = Eogonek;
kernLeft = B;
kernRight = E;
lastChange = "2024-02-20 06:37:14 +0000";
layers = (
{
anchors = (
{
name = top;
pos = (185,900);
}
);
layerId = "ACBCE007-E73D-46AC-8E41-1CDF677894E7";
shapes = (
{
closed = 1;
nodes = (
(695,-244,l),
(616,-244,o),
(562,-191,o),
(562,-114,cs),
(562,-77,o),
(576,-40,o),
(606,0,c),
(596,40,l),
(245,40,l),
(121,536,l),
(404,536,l),
(394,574,l),
(112,574,l),
(40,860,l),
(394,860,l),
(384,900,l),
(-14,900,l),
(211,0,l),
(564,0,l),
(536,-42,o),
(522,-82,o),
(522,-122,cs),
(522,-214,o),
(593,-280,o),
(695,-282,c)
);
}
);
width = 600;
},
{
anchors = (
{
name = top;
pos = (198,900);
}
);
background = {
shapes = (
{
closed = 1;
nodes = (
(395,0,l),
(335,-76,o),
(318,-124,o),
(318,-167,cs),
(318,-256,o),
(391,-312,o),
(481,-312,cs),
(527,-312,o),
(566,-299,o),
(594,-277,c),
(570,-180,l),
(555,-205,o),
(532,-228,o),
(492,-228,cs),
(447,-228,o),
(420,-199,o),
(420,-151,cs),
(420,-84,o),
(481,-14,o),
(578,102,c),
(240,102,l),
(240,504,l),
(500,504,l),
(500,606,l),
(240,606,l),
(240,798,l),
(570,798,l),
(570,900,l),
(126,900,l),
(126,0,l)
);
}
);
};
layerId = "AC72BC7B-7DA4-4629-8F76-12EBC1936C54";
shapes = (
{
closed = 1;
nodes = (
(671,-219,l),
(602,-219,o),
(562,-184,o),
(562,-121,cs),
(562,-68,o),
(593,-23,o),
(645,0,c),
(620,102,l),
(290,102,l),
(189,504,l),
(449,504,l),
(424,606,l),
(164,606,l),
(115,798,l),
(445,798,l),
(420,900,l),
(-24,900,l),
(201,0,l),
(535,0,l),
(490,-40,o),
(469,-88,o),
(469,-138,cs),
(469,-238,o),
(555,-312,o),
(671,-312,c)
);
}
);
width = 630;
},
{
anchors = (
{
name = _ogonek;
pos = (516,0);
},
{
name = bottom;
pos = (348,0);
},
{
name = ogonek;
pos = (516,0);
},
{
name = top;
pos = (348,900);
},
{
name = topleft;
pos = (126,900);
}
);
associatedMasterId = "AC72BC7B-7DA4-4629-8F76-12EBC1936C54";
background = {
shapes = (
{
closed = 1;
nodes = (
(395,0,l),
(335,-76,o),
(318,-124,o),
(318,-167,cs),
(318,-256,o),
(391,-312,o),
(481,-312,cs),
(527,-312,o),
(566,-299,o),
(594,-277,c),
(570,-180,l),
(555,-205,o),
(532,-228,o),
(492,-228,cs),
(447,-228,o),
(420,-199,o),
(420,-151,cs),
(420,-84,o),
(481,-14,o),
(578,102,c),
(240,102,l),
(240,504,l),
(500,504,l),
(500,606,l),
(240,606,l),
(240,798,l),
(570,798,l),
(570,900,l),
(126,900,l),
(126,0,l)
);
}
);
};
layerId = "03C33432-BF3D-4F6E-892D-6F92B242C557";
name = "26 Dec 21, 14:25";
shapes = (
{
closed = 1;
nodes = (
(657,-159,l),
(606,-159,o),
(570,-135,o),
(570,-62,cs),
(570,102,l),
(240,102,l),
(240,504,l),
(500,504,l),
(500,606,l),
(240,606,l),
(240,798,l),
(570,798,l),
(570,900,l),
(126,900,l),
(126,0,l),
(494,0,l),
(470,73,l),
(470,-91,ls),
(470,-195,o),
(548,-252,o),
(635,-252,c)
);
}
);
width = 630;
},
{
anchors = (
{
name = top;
pos = (186,900);
}
);
background = {
shapes = (
{
closed = 1;
nodes = (
(395,0,l),
(335,-76,o),
(318,-124,o),
(318,-167,cs),
(318,-256,o),
(391,-312,o),
(481,-312,cs),
(527,-312,o),
(566,-299,o),
(594,-277,c),
(570,-180,l),
(555,-205,o),
(532,-228,o),
(492,-228,cs),
(447,-228,o),
(420,-199,o),
(420,-151,cs),
(420,-84,o),
(481,-14,o),
(578,102,c),
(240,102,l),
(240,504,l),
(500,504,l),
(500,606,l),
(240,606,l),
(240,798,l),
(570,798,l),
(570,900,l),
(126,900,l),
(126,0,l)
);
}
);
};
layerId = "01A22628-B541-4374-9232-A2213F2D24BF";
shapes = (
{
closed = 1;
nodes = (
(678,-188,l),
(623,-186,o),
(585,-154,o),
(585,-105,cs),
(585,-54,o),
(614,-16,o),
(651,0,c),
(612,156,l),
(306,156,l),
(231,456,l),
(467,456,l),
(430,606,l),
(193,606,l),
(160,738,l),
(466,738,l),
(426,900,l),
(-54,900,l),
(171,0,l),
(501,0,l),
(453,-47,o),
(438,-95,o),
(438,-139,cs),
(438,-249,o),
(530,-318,o),
(678,-318,c)
);
}
);
width = 630;
},
{
anchors = (
{
name = _ogonek;
pos = (516,0);
},
{
name = bottom;
pos = (348,0);
},
{
name = ogonek;
pos = (516,0);
},
{
name = top;
pos = (348,900);
},
{
name = topleft;
pos = (126,900);
}
);
associatedMasterId = "01A22628-B541-4374-9232-A2213F2D24BF";
background = {
shapes = (
{
closed = 1;
nodes = (
(395,0,l),
(335,-76,o),
(318,-124,o),
(318,-167,cs),
(318,-256,o),
(391,-312,o),
(481,-312,cs),
(527,-312,o),
(566,-299,o),
(594,-277,c),
(570,-180,l),
(555,-205,o),
(532,-228,o),
(492,-228,cs),
(447,-228,o),
(420,-199,o),
(420,-151,cs),
(420,-84,o),
(481,-14,o),
(578,102,c),
(240,102,l),
(240,504,l),
(500,504,l),
(500,606,l),
(240,606,l),
(240,798,l),
(570,798,l),
(570,900,l),
(126,900,l),
(126,0,l)
);
}
);
};
layerId = "20320AB1-DEA9-411D-96D8-C96B992A4BAA";
name = "26 Dec 21, 14:25";
shapes = (
{
closed = 1;
nodes = (
(657,-159,l),
(606,-159,o),
(570,-135,o),
(570,-62,cs),
(570,102,l),
(240,102,l),
(240,504,l),
(500,504,l),
(500,606,l),
(240,606,l),
(240,798,l),
(570,798,l),
(570,900,l),
(126,900,l),
(126,0,l),
(494,0,l),
(470,73,l),
(470,-91,ls),
(470,-195,o),
(548,-252,o),
(635,-252,c)
);
}
);
width = 630;
},
{
anchors = (
{
name = top;
pos = (190,900);
}
);
layerId = "40756F1B-8CBD-42F6-8842-73C8ADC25AA8";
shapes = (
{
closed = 1;
nodes = (
(742,-124,l),
(693,-121,o),
(659,-95,o),
(659,-60,cs),
(659,-39,o),
(671,-15,o),
(693,0,c),
(633,240,l),
(357,240,l),
(323,378,l),
(557,378,l),
(509,570,l),
(275,570,l),
(251,666,l),
(527,666,l),
(469,900,l),
(-89,900,l),
(135,0,l),
(483,0,l),
(450,-41,o),
(436,-78,o),
(436,-122,cs),
(436,-235,o),
(536,-290,o),
(742,-290,c)
);
}
);
width = 660;
}
);
unicode = 280;
},
{
color = 3;
glyphname = Schwa;
kernLeft = C;
kernRight = D;
lastChange = "2024-02-26 20:32:20 +0000";
layers = (
{
background = {
shapes = (
{
closed = 1;
nodes = (
(766,-12,o),
(1011,235,o),
(1011,506,cs),
(1011,736,o),
(835,912,o),
(613,912,cs),
(497,912,o),
(381,865,o),
(290,781,c),
(290,722,l),
(379,817,o),
(495,870,o),
(610,870,cs),
(821,870,o),
(979,693,o),
(964,475,c),
(925,478,o),
(888,480,o),
(851,480,cs),
(113,480,l),
(109,459,ls),
(63,217,o),
(248,-12,o),
(502,-12,cs)
);
},
{
closed = 1;
nodes = (
(289,30,o),
(124,211,o),
(152,438,c),
(851,438,ls),
(887,438,o),
(924,439,o),
(960,443,c),
(927,218,o),
(722,30,o),
(503,30,cs)
);
}
);
};
guides = (
{
angle = 104.036;
pos = (68,300);
},
{
pos = (56,450);
}
);
layerId = "ACBCE007-E73D-46AC-8E41-1CDF677894E7";
shapes = (
{
closed = 1;
nodes = (
(761,-12,o),
(936,166,o),
(936,395,cs),
(936,664,o),
(692,912,o),
(427,912,cs),
(295,912,o),
(176,849,o),
(99,741,c),
(121,695,l),
(186,805,o),
(301,870,o),
(430,870,cs),
(643,870,o),
(841,690,o),
(882,475,c),
(842,478,o),
(806,480,o),
(770,480,cs),
(30,480,l),
(31,470,o),
(32,460,o),
(33,450,cs),
(58,201,o),
(293,-12,o),
(537,-12,cs)
);
},
{
closed = 1;
nodes = (
(319,30,o),
(114,218,o),
(80,438,c),
(779,438,ls),
(814,438,o),
(850,439,o),
(887,443,c),
(913,217,o),
(756,30,o),
(535,30,cs)
);
}
);
width = 1050;
},
{
background = {
shapes = (
{
closed = 1;
nodes = (
(30,398,ls),
(92,157,o),
(308,-18,o),
(538,-18,cs),
(772,-18,o),
(952,162,o),
(952,395,cs),
(952,669,o),
(703,918,o),
(428,918,cs),
(297,918,o),
(180,862,o),
(102,764,c),
(159,645,l),
(205,745,o),
(315,810,o),
(437,810,cs),
(613,810,o),
(775,672,o),
(821,501,c),
(782,506,o),
(744,510,o),
(707,510,cs),
(1,510,l)
);
},
{
closed = 1;
nodes = (
(720,408,ls),
(759,408,o),
(796,412,o),
(834,418,c),
(834,404,ls),
(834,226,o),
(702,90,o),
(527,90,cs),
(367,90,o),
(215,205,o),
(160,367,cs),
(146,408,l)
);
}
);
};
guides = (
{
angle = 104.036;
pos = (54,300);
},
{
angle = 104.036;
pos = (990,300);
},
{
angle = 90;
pos = (312,750);
}
);
layerId = "AC72BC7B-7DA4-4629-8F76-12EBC1936C54";
shapes = (
{
closed = 1;
nodes = (
(772,-18,o),
(952,162,o),
(952,395,cs),
(952,669,o),
(703,918,o),
(428,918,cs),
(297,918,o),
(180,862,o),
(102,764,c),
(159,645,l),
(205,745,o),
(315,810,o),
(437,810,cs),
(613,810,o),
(775,672,o),
(821,501,c),
(782,506,o),
(744,510,o),
(707,510,cs),
(10,510,l),
(14,473,o),
(20,435,o),
(30,398,cs),
(96,153,o),
(308,-18,o),
(537,-18,cs)
);
},
{
closed = 1;
nodes = (
(367,90,o),
(203,205,o),
(146,408,c),
(720,408,ls),
(759,408,o),
(796,412,o),
(834,418,c),
(838,226,o),
(702,90,o),
(527,90,cs)
);
}
);
width = 1050;
},
{
background = {
shapes = (
{
closed = 1;
nodes = (
(863,-18,o),
(1024,191,o),
(959,450,cs),
(894,709,o),
(629,918,o),
(366,918,cs),
(243,918,o),
(145,877,o),
(80,807,c),
(182,601,l),
(213,684,o),
(287,748,o),
(409,748,cs),
(548,748,o),
(685,654,o),
(749,525,c),
(711,531,o),
(673,534,o),
(636,534,cs),
(-14,534,l),
(-7,506,o),
(0,478,o),
(7,450,cs),
(72,191,o),
(337,-18,o),
(600,-18,cs)
);
},
{
closed = 1;
nodes = (
(416,150,o),
(275,250,o),
(212,384,c),
(673,384,ls),
(711,384,o),
(749,388,o),
(786,394,c),
(795,255,o),
(704,150,o),
(558,150,cs)
);
}
);
};
guides = (
{
angle = 104.036;
pos = (44,300);
},
{
angle = 104.036;
pos = (996,300);
},
{
angle = 90;
pos = (335,736);
}
);
layerId = "01A22628-B541-4374-9232-A2213F2D24BF";
shapes = (
{
closed = 1;
nodes = (
(773,-18,o),
(959,162,o),
(959,397,cs),
(959,671,o),
(708,915,o),
(427,915,cs),
(296,915,o),
(173,863,o),
(95,775,c),
(193,583,l),
(232,681,o),
(332,746,o),
(443,746,cs),
(573,746,o),
(699,656,o),
(752,526,c),
(710,531,o),
(672,534,o),
(636,534,cs),
(4,534,l),
(4,484,o),
(10,438,o),
(21,393,cs),
(80,155,o),
(294,-18,o),
(531,-18,cs)
);
},
{
closed = 1;
nodes = (
(389,150,o),
(266,243,o),
(218,384,c),
(673,384,ls),
(705,384,o),
(740,387,o),
(775,392,c),
(768,251,o),
(662,150,o),
(523,150,cs)
);
}
);
width = 1050;
},
{
background = {
shapes = (
{
closed = 1;
nodes = (
(870,-20,o),
(1030,189,o),
(965,450,cs),
(899,715,o),
(637,920,o),
(364,920,cs),
(257,920,o),
(158,888,o),
(94,832,c),
(216,583,l),
(260,634,o),
(327,664,o),
(409,664,cs),
(497,664,o),
(586,614,o),
(634,537,c),
(585,542,o),
(551,544,o),
(518,544,cs),
(-20,544,l),
(-17,513,o),
(-11,481,o),
(-3,450,cs),
(62,189,o),
(330,-20,o),
(600,-20,cs)
);
},
{
closed = 1;
nodes = (
(453,236,o),
(371,289,o),
(330,362,c),
(563,362,ls),
(597,362,o),
(631,365,o),
(678,370,c),
(676,290,o),
(619,236,o),
(536,236,cs)
);
}
);
};
layerId = "40756F1B-8CBD-42F6-8842-73C8ADC25AA8";
shapes = (
{
closed = 1;
nodes = (
(796,-19,o),
(973,166,o),
(973,396,cs),
(973,669,o),
(728,920,o),
(429,920,cs),
(335,920,o),
(201,891,o),
(108,804,c),
(222,576,l),
(281,639,o),
(373,664,o),
(438,664,cs),
(515,664,o),
(600,622,o),
(634,537,c),
(585,542,o),
(551,544,o),
(518,544,cs),
(-14,544,l),
(-10,493,o),
(-1,441,o),
(11,392,cs),
(70,155,o),
(292,-20,o),
(535,-20,cs)
);
},
{
closed = 1;
nodes = (
(439,237,o),
(363,280,o),
(330,362,c),
(563,362,ls),
(597,362,o),
(631,365,o),
(678,370,c),
(678,303,o),
(608,237,o),
(512,237,cs)
);
}
);
width = 1040;
}
);
unicode = 399;
},
{
color = 3;
glyphname = Ezh;
kernLeft = Ezh;
kernRight = Ezh;
lastChange = "2024-02-24 10:17:43 +0000";
layers = (
{
anchors = (
{
name = bottom;
pos = (405,0);
},
{
name = top;
pos = (165,900);
}
);
layerId = "ACBCE007-E73D-46AC-8E41-1CDF677894E7";
shapes = (
{
closed = 1;
nodes = (
(486,-12,o),
(601,102,o),
(601,250,cs),
(601,425,o),
(442,579,o),
(262,578,c),
(372,898,l),
(372,900,l),
(-42,900,l),
(-33,862,l),
(320,862,l),
(207,534,l),
(208,532,l),
(230,540,o),
(247,542,o),
(266,542,cs),
(420,542,o),
(557,405,o),
(557,252,cs),
(557,126,o),
(464,28,o),
(334,28,cs),
(244,28,o),
(150,75,o),
(91,150,c),
(77,104,l),
(143,33,o),
(236,-12,o),
(333,-12,cs)
);
}
);
width = 660;
},
{
anchors = (
{
name = bottom;
pos = (405,0);
},
{
name = top;
pos = (170,900);
}
);
background = {
shapes = (
{
closed = 1;
nodes = (
(399,-12,o),
(574,125,o),
(618,300,cs),
(658,463,o),
(565,584,o),
(422,601,c),
(419,550,l),
(692,900,l),
(231,900,l),
(206,798,l),
(546,798,l),
(530,844,l),
(253,481,l),
(283,495,o),
(317,504,o),
(352,504,cs),
(464,504,o),
(531,412,o),
(504,300,cs),
(476,187,o),
(364,96,o),
(251,96,cs),
(147,96,o),
(80,172,o),
(91,275,c),
(-10,141,l),
(22,46,o),
(109,-12,o),
(225,-12,cs)
);
}
);
};
guides = (
{
angle = 104.036;
pos = (30,300);
},
{
angle = 104.036;
pos = (618,300);
},
{
angle = 104.036;
pos = (98,300);
}
);
layerId = "AC72BC7B-7DA4-4629-8F76-12EBC1936C54";
shapes = (
{
closed = 1;
nodes = (
(500,-12,o),
(620,105,o),
(620,262,cs),
(620,433,o),
(476,585,o),
(311,596,c),
(399,898,l),
(399,900,l),
(-52,900,l),
(-27,798,l),
(262,798,l),
(170,460,l),
(172,458,l),
(202,485,o),
(241,498,o),
(284,498,cs),
(397,498,o),
(506,393,o),
(506,271,cs),
(506,171,o),
(431,96,o),
(331,96,cs),
(239,96,o),
(149,156,o),
(111,242,c),
(76,108,l),
(141,33,o),
(236,-12,o),
(337,-12,cs)
);
}
);
width = 660;
},
{
anchors = (
{
name = bottom;
pos = (405,0);
},
{
name = top;
pos = (191,900);
}
);
background = {
shapes = (
{
closed = 1;
nodes = (
(398,-20,o),
(586,118,o),
(630,299,cs),
(666,445,o),
(594,563,o),
(473,596,c),
(468,541,l),
(751,900,l),
(223,900,l),
(185,744,l),
(507,744,l),
(490,790,l),
(214,428,l),
(256,448,o),
(293,458,o),
(333,458,cs),
(433,458,o),
(482,388,o),
(461,301,cs),
(439,211,o),
(351,142,o),
(260,142,cs),
(165,142,o),
(110,217,o),
(114,306,c),
(-23,123,l),
(12,38,o),
(101,-20,o),
(218,-20,cs)
);
}
);
};
guides = (
{
angle = 104.036;
pos = (20,300);
},
{
angle = 104.036;
pos = (630,300);
}
);
layerId = "01A22628-B541-4374-9232-A2213F2D24BF";
shapes = (
{
closed = 1;
nodes = (
(499,-20,o),
(630,104,o),
(630,262,cs),
(630,413,o),
(512,556,o),
(357,592,c),
(449,898,l),
(449,900,l),
(-67,900,l),
(-28,744,l),
(241,744,l),
(151,413,l),
(153,411,l),
(193,444,o),
(234,458,o),
(276,458,cs),
(376,458,o),
(458,376,o),
(458,282,cs),
(458,201,o),
(396,142,o),
(314,142,cs),
(234,142,o),
(153,198,o),
(114,279,c),
(63,94,l),
(131,24,o),
(233,-20,o),
(332,-20,cs)
);
}
);
width = 660;
},
{
anchors = (
{
name = bottom;
pos = (368,0);
},
{
name = top;
pos = (217,900);
}
);
background = {
anchors = (
{
name = bottom;
pos = (368,0);
},
{
name = top;
pos = (217,900);
}
);
shapes = (
{
closed = 1;
nodes = (
(609,-20,o),
(730,121,o),
(682,311,cs),
(653,427,o),
(566,531,o),
(451,589,c),
(537,898,l),
(536,900,l),
(-103,900,l),
(-47,678,l),
(202,678,l),
(129,387,l),
(132,385,l),
(172,397,o),
(221,404,o),
(260,404,cs),
(338,404,o),
(398,369,o),
(411,316,cs),
(424,263,o),
(386,226,o),
(320,226,cs),
(257,226,o),
(187,261,o),
(113,328,c),
(55,102,l),
(148,24,o),
(273,-20,o),
(401,-20,cs)
);
}
);
};
layerId = "40756F1B-8CBD-42F6-8842-73C8ADC25AA8";
shapes = (
{
closed = 1;
nodes = (
(532,-20,o),
(681,106,o),
(681,278,cs),
(681,416,o),
(591,546,o),
(455,604,c),
(537,898,l),
(537,900,l),
(-103,900,l),
(-47,678,l),
(218,678,l),
(140,375,l),
(142,373,l),
(196,395,o),
(237,404,o),
(283,404,cs),
(350,404,o),
(397,363,o),
(397,306,cs),
(397,259,o),
(353,226,o),
(290,226,cs),
(240,226,o),
(186,250,o),
(121,299,c),
(59,60,l),
(132,9,o),
(229,-20,o),
(330,-20,cs)
);
}
);
width = 710;
}
);
unicode = 439;
},
{
color = 3;
glyphname = F;
kernLeft = B;
kernRight = F;
lastChange = "2024-02-24 15:43:40 +0000";
layers = (
{
guides = (
{
angle = 104.036;
pos = (136,300);
},
{
angle = 104.036;
pos = (180,300);
}
);
layerId = "ACBCE007-E73D-46AC-8E41-1CDF677894E7";
shapes = (
{
closed = 1;
nodes = (
(255,-1,l),
(121,536,l),
(454,536,l),
(444,574,l),
(111,574,l),
(40,860,l),
(404,860,l),
(394,900,l),
(-14,900,l),
(211,0,l)
);
}
);
width = 570;
},
{
background = {
shapes = (
{
closed = 1;
nodes = (
(540,0,l),
(540,102,l),
(240,102,l),
(240,492,l),
(500,492,l),
(500,592,l),
(240,592,l),
(240,798,l),
(540,798,l),
(540,900,l),
(126,900,l),
(126,0,l)
);
}
);
};
guides = (
{
angle = 104.036;
pos = (126,300);
},
{
angle = 104.036;
pos = (240,300);
}
);
layerId = "AC72BC7B-7DA4-4629-8F76-12EBC1936C54";
shapes = (
{
closed = 1;
nodes = (
(315,0,l),
(190,504,l),
(490,504,l),
(464,606,l),
(164,606,l),
(116,798,l),
(446,798,l),
(421,900,l),
(-23,900,l),
(201,0,l)
);
}
);
width = 600;
},
{
background = {
shapes = (
{
closed = 1;
nodes = (
(540,0,l),
(540,102,l),
(240,102,l),
(240,492,l),
(500,492,l),
(500,592,l),
(240,592,l),
(240,798,l),
(540,798,l),
(540,900,l),
(126,900,l),
(126,0,l)
);
}
);
};
guides = (
{
angle = 104.036;
pos = (96,300);
},
{
angle = 104.036;
pos = (270,300);
}
);
layerId = "01A22628-B541-4374-9232-A2213F2D24BF";
shapes = (
{
closed = 1;
nodes = (
(345,0,l),
(232,456,l),
(508,456,l),
(470,606,l),
(194,606,l),
(159,744,l),
(465,744,l),
(427,900,l),
(-53,900,l),
(171,0,l)
);
}
);
width = 600;
},
{
layerId = "40756F1B-8CBD-42F6-8842-73C8ADC25AA8";
shapes = (
{
closed = 1;
nodes = (
(435,0,l),
(348,351,l),
(552,351,l),
(502,549,l),
(298,549,l),
(271,660,l),
(505,660,l),
(445,900,l),
(-89,900,l),
(135,0,l)
);
}
);
width = 630;
}
);
unicode = 70;
},
{
color = 3;
glyphname = G;
kernLeft = C;
kernRight = G;
lastChange = "2024-02-26 20:32:52 +0000";
layers = (
{
anchors = (
{
name = bottom;
pos = (558,0);
},
{
name = center;
pos = (818,270);
},
{
name = top;
pos = (430,900);
}
);
background = {
shapes = (
{
closed = 1;
nodes = (
(720,-12,o),
(816,26,o),
(883,93,c),
(794,448,l),
(434,448,l),
(444,410,l),
(764,410,l),
(838,113,l),
(778,59,o),
(695,30,o),
(600,30,cs),
(360,30,o),
(134,214,o),
(76,450,cs),
(18,684,o),
(154,870,o),
(381,870,cs),
(501,870,o),
(625,818,o),
(725,726,c),
(724,782,l),
(619,865,o),
(491,912,o),
(369,912,cs),
(119,912,o),
(-33,706,o),
(30,449,cs),
(94,192,o),
(348,-12,o),
(609,-12,cs)
);
}
);
};
guides = (
{
angle = 104.036;
pos = (811,300);
},
{
pos = (804,270);
},
{
pos = (883,111);
},
{
angle = 104.036;
pos = (66,300);
}
);
layerId = "ACBCE007-E73D-46AC-8E41-1CDF677894E7";
shapes = (
{
closed = 1;
nodes = (
(683,-12,o),
(790,30,o),
(878,113,c),
(794,448,l),
(434,448,l),
(444,410,l),
(764,410,l),
(834,129,l),
(759,64,o),
(667,30,o),
(563,30,cs),
(300,30,o),
(75,249,o),
(75,504,cs),
(75,713,o),
(228,870,o),
(431,870,cs),
(535,870,o),
(639,828,o),
(723,752,c),
(723,807,l),
(637,875,o),
(534,912,o),
(430,912,cs),
(203,912,o),
(29,734,o),
(29,502,cs),
(29,226,o),
(275,-12,o),
(562,-12,cs)
);
}
);
width = 940;
},
{
anchors = (
{
name = bottom;
pos = (604,0);
},
{
name = center;
pos = (791,270);
},
{
name = top;
pos = (381,900);
}
);
background = {
shapes = (
{
closed = 0;
nodes = (
(690,142,l),
(626,109,o),
(553,90,o),
(478,90,cs),
(279,90,o),
(168,254,o),
(216,450,cs),
(265,649,o),
(459,810,o),
(657,810,cs),
(782,810,o),
(874,745,o),
(912,647,c),
(978,785,l),
(914,867,o),
(811,918,o),
(683,918,cs),
(422,918,o),
(162,708,o),
(98,450,cs),
(34,192,o),
(191,-18,o),
(452,-18,cs),
(568,-18,o),
(687,16,o),
(786,84,c)
);
}
);
};
guides = (
{
angle = 104.036;
pos = (60,300);
},
{
angle = 104.036;
pos = (741,300);
},
{
angle = 104.036;
pos = (851,300);
}
);
layerId = "AC72BC7B-7DA4-4629-8F76-12EBC1936C54";
shapes = (
{
closed = 1;
nodes = (
(688,-18,o),
(807,42,o),
(890,146,c),
(807,480,l),
(449,480,l),
(474,378,l),
(722,378,l),
(770,186,l),
(714,126,o),
(630,90,o),
(539,90,cs),
(330,90,o),
(142,283,o),
(142,496,cs),
(142,674,o),
(274,810,o),
(449,810,cs),
(547,810,o),
(646,766,o),
(723,688,c),
(723,826,l),
(634,886,o),
(534,918,o),
(438,918,cs),
(204,918,o),
(24,738,o),
(24,505,cs),
(24,231,o),
(273,-18,o),
(548,-18,cs)
);
}
);
width = 940;
},
{
anchors = (
{
name = bottom;
pos = (604,0);
},
{
name = center;
pos = (791,270);
},
{
name = top;
pos = (381,900);
}
);
background = {
shapes = (
{
closed = 1;
nodes = (
(733,-18,o),
(829,14,o),
(899,67,c),
(790,504,l),
(443,504,l),
(480,354,l),
(663,354,l),
(706,180,l),
(674,159,o),
(630,148,o),
(575,148,cs),
(406,148,o),
(249,272,o),
(205,448,cs),
(163,620,o),
(257,748,o),
(427,748,cs),
(549,748,o),
(655,684,o),
(726,601,c),
(726,807,l),
(625,877,o),
(507,918,o),
(384,918,cs),
(113,918,o),
(-49,716,o),
(17,448,cs),
(85,179,o),
(347,-18,o),
(620,-18,cs)
);
}
);
};
guides = (
{
angle = 104.036;
pos = (54,300);
}
);
layerId = "01A22628-B541-4374-9232-A2213F2D24BF";
shapes = (
{
closed = 1;
nodes = (
(680,-18,o),
(803,33,o),
(886,120,c),
(790,504,l),
(443,504,l),
(480,354,l),
(663,354,l),
(702,197,l),
(654,165,o),
(598,148,o),
(540,148,cs),
(364,148,o),
(208,308,o),
(208,484,cs),
(208,632,o),
(317,744,o),
(459,744,cs),
(550,744,o),
(641,697,o),
(704,617,c),
(704,842,l),
(622,892,o),
(531,918,o),
(440,918,cs),
(200,918,o),
(18,738,o),
(18,502,cs),
(18,226,o),
(266,-18,o),
(550,-18,cs)
);
}
);
width = 920;
},
{
anchors = (
{
name = bottom;
pos = (593,0);
},
{
name = center;
pos = (773,270);
},
{
name = top;
pos = (370,900);
}
);
background = {
shapes = (
{
closed = 1;
nodes = (
(728,-20,o),
(846,19,o),
(912,87,c),
(803,524,l),
(421,524,l),
(467,338,l),
(603,338,l),
(624,256,l),
(602,243,o),
(578,238,o),
(551,238,cs),
(437,238,o),
(330,321,o),
(299,445,cs),
(268,569,o),
(333,656,o),
(457,656,cs),
(539,656,o),
(635,618,o),
(717,550,c),
(715,826,l),
(616,887,o),
(490,920,o),
(377,920,cs),
(97,920,o),
(-66,716,o),
(0,450,cs),
(66,185,o),
(331,-20,o),
(607,-20,cs)
);
}
);
};
guides = (
{
angle = 76.2509;
pos = (846,832);
},
{
angle = 104.036;
pos = (37,300);
}
);
layerId = "40756F1B-8CBD-42F6-8842-73C8ADC25AA8";
shapes = (
{
closed = 1;
nodes = (
(680,-17,o),
(824,40,o),
(902,125,c),
(803,524,l),
(421,524,l),
(467,338,l),
(603,338,l),
(621,267,l),
(594,247,o),
(563,238,o),
(524,238,cs),
(400,238,o),
(296,349,o),
(296,481,cs),
(296,586,o),
(375,656,o),
(493,656,cs),
(568,656,o),
(648,628,o),
(714,579,c),
(714,859,l),
(637,898,o),
(544,920,o),
(454,920,cs),
(191,920,o),
(2,746,o),
(2,504,cs),
(2,221,o),
(249,-17,o),
(541,-17,cs)
);
}
);
width = 910;
}
);
unicode = 71;
},
{
color = 3;
export = 0;
glyphname = G.stroke;
kernLeft = C;
kernRight = G;
lastChange = "2024-02-26 20:32:57 +0000";
layers = (
{
anchors = (
{
name = bottom;
pos = (558,0);
},
{
name = center;
pos = (795,360);
},
{
name = top;
pos = (430,900);
}
);
background = {
shapes = (
{
closed = 1;
nodes = (
(600,-12,o),
(695,19,o),
(776,77,c),
(892,540,l),
(849,540,l),
(742,105,l),
(669,56,o),
(588,30,o),
(505,30,cs),
(304,30,o),
(150,187,o),
(150,394,cs),
(150,642,o),
(371,870,o),
(610,870,cs),
(727,870,o),
(833,815,o),
(901,719,c),
(923,765,l),
(846,859,o),
(735,912,o),
(613,912,cs),
(348,912,o),
(104,664,o),
(104,395,cs),
(104,166,o),
(279,-12,o),
(505,-12,cs)
);
}
);
};
guides = (
{
pos = (887,576);
},
{
angle = 104.036;
pos = (810,300);
}
);
layerId = "ACBCE007-E73D-46AC-8E41-1CDF677894E7";
shapes = (
{
closed = 1;
nodes = (
(683,-12,o),
(790,30,o),
(878,113,c),
(771,540,l),
(730,540,l),
(832,128,l),
(758,63,o),
(666,30,o),
(563,30,cs),
(300,30,o),
(75,249,o),
(75,504,cs),
(75,713,o),
(228,870,o),
(431,870,cs),
(548,870,o),
(664,817,o),
(753,722,c),
(753,781,l),
(662,865,o),
(546,912,o),
(430,912,cs),
(203,912,o),
(29,734,o),
(29,502,cs),
(29,226,o),
(275,-12,o),
(562,-12,cs)
);
}
);
width = 940;
},
{
associatedMasterId = "AC72BC7B-7DA4-4629-8F76-12EBC1936C54";
background = {
shapes = (
{
closed = 1;
nodes = (
(671,-17,o),
(845,157,o),
(845,371,cs),
(845,586,o),
(671,760,o),
(457,760,cs),
(243,760,o),
(69,586,o),
(69,371,cs),
(69,157,o),
(243,-17,o),
(457,-17,cs)
);
},
{
closed = 1;
nodes = (
(306,97,o),
(183,220,o),
(183,371,cs),
(183,523,o),
(306,646,o),
(457,646,cs),
(608,646,o),
(731,523,o),
(731,371,cs),
(731,220,o),
(608,97,o),
(457,97,cs)
);
}
);
};
guides = (
{
pos = (480,798);
}
);
layerId = "D3304093-453B-4563-8FEE-74F74AD79D4F";
name = "Regular Dec 28 16, 17:07";
shapes = (
{
closed = 1;
nodes = (
(671,-17,o),
(848,157,o),
(848,371,cs),
(848,586,o),
(671,760,o),
(457,760,cs),
(243,760,o),
(66,586,o),
(66,371,cs),
(66,157,o),
(243,-17,o),
(457,-17,cs)
);
},
{
closed = 1;
nodes = (
(306,97,o),
(186,220,o),
(186,371,cs),
(186,523,o),
(306,646,o),
(457,646,cs),
(608,646,o),
(728,523,o),
(728,371,cs),
(728,220,o),
(608,97,o),
(457,97,cs)
);
}
);
width = 914;
},
{
associatedMasterId = "AC72BC7B-7DA4-4629-8F76-12EBC1936C54";
background = {
shapes = (
{
closed = 1;
nodes = (
(834,0,l),
(834,457,l),
(720,457,l),
(720,0,l)
);
}
);
};
guides = (
{
angle = 90;
pos = (816,960);
},
{
pos = (1005,480);
}
);
hints = (
{
horizontal = 1;
place = (-17, 114);
place = (-17, 114);
type = Stem;
},
{
horizontal = 1;
origin = (0,4);
target = (0,26);
type = Stem;
},
{
origin = (0,7);
target = (0,23);
type = Stem;
},
{
place = (777, 0);
place = (777, 0);
type = Stem;
}
);
layerId = "CA3FEB60-1952-425E-83F4-D0AA97429F41";
name = "Mar 20 17, 10:16";
shapes = (
{
closed = 1;
nodes = (
(777,743,l),
(777,864,l),
(707,903,o),
(627,925,o),
(542,925,cs),
(281,925,o),
(69,719,o),
(69,457,cs),
(69,195,o),
(280,-11,o),
(545,-11,cs),
(651,-11,o),
(754,17,o),
(834,74,c),
(834,457,l),
(720,457,l),
(720,97,l),
(776,173,l),
(714,122,o),
(632,97,o),
(546,97,cs),
(343,97,o),
(189,258,o),
(189,457,cs),
(189,656,o),
(344,817,o),
(543,817,cs),
(626,817,o),
(703,789,o),
(764,743,c)
);
}
);
width = 914;
},
{
anchors = (
{
name = bottom;
pos = (604,0);
},
{
name = center;
pos = (782,360);
},
{
name = top;
pos = (381,900);
}
);
background = {
shapes = (
{
closed = 1;
nodes = (
(613,-18,o),
(712,17,o),
(797,73,c),
(909,540,l),
(797,540,l),
(702,139,l),
(646,108,o),
(585,90,o),
(523,90,cs),
(349,90,o),
(216,225,o),
(216,403,cs),
(216,616,o),
(404,810,o),
(611,810,cs),
(723,810,o),
(818,754,o),
(871,667,c),
(929,786,l),
(854,868,o),
(746,918,o),
(622,918,cs),
(347,918,o),
(98,669,o),
(98,395,cs),
(98,162,o),
(278,-18,o),
(512,-18,cs)
);
}
);
};
layerId = "AC72BC7B-7DA4-4629-8F76-12EBC1936C54";
shapes = (
{
closed = 1;
nodes = (
(688,-18,o),
(807,42,o),
(890,146,c),
(792,540,l),
(682,540,l),
(770,186,l),
(714,126,o),
(630,90,o),
(539,90,cs),
(330,90,o),
(142,283,o),
(142,496,cs),
(142,674,o),
(274,810,o),
(449,810,cs),
(547,810,o),
(646,766,o),
(723,688,c),
(723,826,l),
(634,886,o),
(534,918,o),
(438,918,cs),
(204,918,o),
(24,738,o),
(24,505,cs),
(24,231,o),
(273,-18,o),
(548,-18,cs)
);
}
);
width = 940;
},
{
associatedMasterId = "AC72BC7B-7DA4-4629-8F76-12EBC1936C54";
background = {
shapes = (
{
closed = 1;
nodes = (
(805,-17,o),
(1017,195,o),
(1017,457,cs),
(1017,719,o),
(805,931,o),
(543,931,cs),
(281,931,o),
(69,719,o),
(69,457,cs),
(69,195,o),
(281,-17,o),
(543,-17,cs)
);
},
{
closed = 1;
nodes = (
(344,97,o),
(189,258,o),
(189,457,cs),
(189,656,o),
(344,817,o),
(543,817,cs),
(742,817,o),
(897,656,o),
(897,457,cs),
(897,258,o),
(742,97,o),
(543,97,cs)
);
}
);
};
guides = (
{
angle = 90;
pos = (816,960);
},
{
pos = (1005,480);
},
{
angle = 270;
pos = (876,279);
}
);
hints = (
{
horizontal = 1;
place = (-17, 114);
place = (-17, 114);
type = Stem;
},
{
horizontal = 1;
origin = (0,16);
target = (0,9);
type = Stem;
},
{
origin = (0,19);
target = (0,6);
type = Stem;
},
{
origin = (0,27);
target = (0,26);
type = Stem;
},
{
horizontal = 1;
origin = (0,12);
target = up;
type = BottomGhost;
},
{
horizontal = 1;
options = 4;
origin = (0,16);
target = (0,9);
type = TTStem;
},
{
horizontal = 1;
options = 4;
origin = (0,22);
target = (0,3);
type = TTStem;
},
{
horizontal = 1;
options = 2;
origin = (0,27);
type = TTSnap;
},
{
options = 4;
origin = (0,19);
target = (0,6);
type = TTStem;
},
{
options = 4;
origin = (0,27);
target = (0,26);
type = TTStem;
}
);
layerId = "A74B9BA9-0FD2-429C-8163-2905CF157C61";
name = "Oct 5 19, 11:35";
shapes = (
{
closed = 1;
nodes = (
(776,173,l),
(714,122,o),
(632,97,o),
(546,97,cs),
(343,97,o),
(189,258,o),
(189,457,cs),
(189,656,o),
(344,817,o),
(543,817,cs),
(633,817,o),
(715,784,o),
(777,728,c),
(777,864,l),
(707,903,o),
(627,925,o),
(542,925,cs),
(281,925,o),
(69,719,o),
(69,457,cs),
(69,195,o),
(280,-11,o),
(545,-11,cs),
(651,-11,o),
(754,17,o),
(834,74,c),
(834,457,l),
(720,457,l),
(720,97,l)
);
}
);
width = 914;
},
{
associatedMasterId = "AC72BC7B-7DA4-4629-8F76-12EBC1936C54";
background = {
shapes = (
{
closed = 1;
nodes = (
(805,-17,o),
(1017,195,o),
(1017,457,cs),
(1017,719,o),
(805,931,o),
(543,931,cs),
(281,931,o),
(69,719,o),
(69,457,cs),
(69,195,o),
(281,-17,o),
(543,-17,cs)
);
},
{
closed = 1;
nodes = (
(344,97,o),
(189,258,o),
(189,457,cs),
(189,656,o),
(344,817,o),
(543,817,cs),
(742,817,o),
(897,656,o),
(897,457,cs),
(897,258,o),
(742,97,o),
(543,97,cs)
);
}
);
};
guides = (
{
angle = 90;
pos = (816,960);
},
{
pos = (1005,480);
},
{
angle = 270;
pos = (876,279);
},
{
pos = (510,493);
}
);
hints = (
{
horizontal = 1;
place = (-17, 114);
place = (-17, 114);
type = Stem;
},
{
horizontal = 1;
origin = (0,17);
target = (0,16);
type = Stem;
},
{
origin = (0,26);
target = (0,13);
type = Stem;
},
{
origin = (0,6);
target = (0,3);
type = Stem;
},
{
horizontal = 1;
place = (728, 21);
target = up;
type = BottomGhost;
},
{
horizontal = 1;
options = 4;
origin = (0,0);
target = (0,16);
type = TTStem;
},
{
horizontal = 1;
options = 4;
origin = (0,29);
target = (0,10);
type = TTStem;
},
{
horizontal = 1;
options = 2;
origin = (0,3);
type = TTSnap;
},
{
options = 4;
origin = (0,26);
target = (0,13);
type = TTStem;
},
{
options = 4;
origin = (0,6);
target = (0,3);
type = TTStem;
}
);
layerId = "50FAF198-8C4B-4C9E-97E5-A090B4DEDE0D";
name = "Aug 25 20, 11:54";
shapes = (
{
closed = 1;
nodes = (
(651,-11,o),
(754,17,o),
(834,74,c),
(834,521,l),
(486,521,l),
(486,418,l),
(720,418,l),
(720,136,l),
(668,110,o),
(608,97,o),
(546,97,cs),
(343,97,o),
(189,258,o),
(189,457,cs),
(189,656,o),
(344,817,o),
(543,817,cs),
(665,817,o),
(770,756,o),
(834,664,c),
(834,825,l),
(753,888,o),
(652,925,o),
(543,925,cs),
(281,925,o),
(69,719,o),
(69,457,cs),
(69,195,o),
(280,-11,o),
(545,-11,cs)
);
}
);
width = 943;
},
{
associatedMasterId = "AC72BC7B-7DA4-4629-8F76-12EBC1936C54";
background = {
shapes = (
{
closed = 1;
nodes = (
(805,-17,o),
(1017,195,o),
(1017,457,cs),
(1017,719,o),
(805,931,o),
(543,931,cs),
(281,931,o),
(69,719,o),
(69,457,cs),
(69,195,o),
(281,-17,o),
(543,-17,cs)
);
},
{
closed = 1;
nodes = (
(344,97,o),
(189,258,o),
(189,457,cs),
(189,656,o),
(344,817,o),
(543,817,cs),
(742,817,o),
(897,656,o),
(897,457,cs),
(897,258,o),
(742,97,o),
(543,97,cs)
);
}
);
};
hints = (
{
horizontal = 1;
place = (-17, 114);
place = (-17, 114);
type = Stem;
},
{
horizontal = 1;
place = (817, 0);
place = (817, 0);
type = Stem;
},
{
origin = (0,21);
target = (0,14);
type = Stem;
},
{
origin = (0,6);
target = (0,3);
type = Stem;
},
{
horizontal = 1;
place = (728, 21);
target = up;
type = BottomGhost;
},
{
horizontal = 1;
options = 4;
origin = (0,0);
target = (0,4);
type = TTStem;
},
{
horizontal = 1;
options = 4;
origin = (0,30);
target = (0,11);
type = TTStem;
},
{
horizontal = 1;
options = 2;
origin = (0,3);
type = TTSnap;
},
{
options = 4;
origin = (0,21);
target = (0,14);
type = TTStem;
},
{
options = 4;
origin = (0,6);
target = (0,3);
type = TTStem;
}
);
layerId = "C5F04E49-6B75-4741-95B7-5B2D311D22C0";
name = "14 Dec 21, 10:52";
shapes = (
{
closed = 1;
nodes = (
(651,-17,o),
(754,11,o),
(834,69,c),
(834,521,l),
(486,521,l),
(486,418,l),
(724,418,l),
(724,79,l),
(748,147,l),
(691,110,o),
(621,91,o),
(546,91,cs),
(343,91,o),
(189,258,o),
(189,457,cs),
(189,659,o),
(345,823,o),
(546,823,cs),
(673,823,o),
(783,757,o),
(845,657,c),
(878,792,l),
(792,878,o),
(673,931,o),
(543,931,cs),
(281,931,o),
(69,719,o),
(69,457,cs),
(69,195,o),
(280,-17,o),
(545,-17,cs)
);
}
);
width = 943;
},
{
associatedMasterId = "01A22628-B541-4374-9232-A2213F2D24BF";
background = {
shapes = (
{
closed = 1;
nodes = (
(671,-17,o),
(845,157,o),
(845,371,cs),
(845,586,o),
(671,760,o),
(457,760,cs),
(243,760,o),
(69,586,o),
(69,371,cs),
(69,157,o),
(243,-17,o),
(457,-17,cs)
);
},
{
closed = 1;
nodes = (
(306,97,o),
(183,220,o),
(183,371,cs),
(183,523,o),
(306,646,o),
(457,646,cs),
(608,646,o),
(731,523,o),
(731,371,cs),
(731,220,o),
(608,97,o),
(457,97,cs)
);
}
);
};
guides = (
{
pos = (480,798);
}
);
layerId = "FC3690CD-AE6E-4F1D-B504-D0A48FB4FC5F";
name = "Regular Dec 28 16, 17:07";
shapes = (
{
closed = 1;
nodes = (
(671,-17,o),
(848,157,o),
(848,371,cs),
(848,586,o),
(671,760,o),
(457,760,cs),
(243,760,o),
(66,586,o),
(66,371,cs),
(66,157,o),
(243,-17,o),
(457,-17,cs)
);
},
{
closed = 1;
nodes = (
(306,97,o),
(186,220,o),
(186,371,cs),
(186,523,o),
(306,646,o),
(457,646,cs),
(608,646,o),
(728,523,o),
(728,371,cs),
(728,220,o),
(608,97,o),
(457,97,cs)
);
}
);
width = 914;
},
{
associatedMasterId = "01A22628-B541-4374-9232-A2213F2D24BF";
background = {
shapes = (
{
closed = 1;
nodes = (
(834,0,l),
(834,457,l),
(720,457,l),
(720,0,l)
);
}
);
};
guides = (
{
angle = 90;
pos = (816,960);
},
{
pos = (1005,480);
}
);
hints = (
{
horizontal = 1;
place = (-17, 114);
place = (-17, 114);
type = Stem;
},
{
horizontal = 1;
origin = (0,4);
target = (0,26);
type = Stem;
},
{
origin = (0,7);
target = (0,23);
type = Stem;
},
{
place = (777, 0);
place = (777, 0);
type = Stem;
}
);
layerId = "3D4F5D77-2D9C-48D0-9E28-46E0387DF7D4";
name = "Mar 20 17, 10:16";
shapes = (
{
closed = 1;
nodes = (
(777,743,l),
(777,864,l),
(707,903,o),
(627,925,o),
(542,925,cs),
(281,925,o),
(69,719,o),
(69,457,cs),
(69,195,o),
(280,-11,o),
(545,-11,cs),
(651,-11,o),
(754,17,o),
(834,74,c),
(834,457,l),
(720,457,l),
(720,97,l),
(776,173,l),
(714,122,o),
(632,97,o),
(546,97,cs),
(343,97,o),
(189,258,o),
(189,457,cs),
(189,656,o),
(344,817,o),
(543,817,cs),
(626,817,o),
(703,789,o),
(764,743,c)
);
}
);
width = 914;
},
{
anchors = (
{
name = bottom;
pos = (604,0);
},
{
name = center;
pos = (765,372);
},
{
name = top;
pos = (381,900);
}
);
background = {
shapes = (
{
closed = 1;
nodes = (
(790,-18,o),
(1000,191,o),
(1000,450,cs),
(1000,709,o),
(790,918,o),
(530,918,cs),
(270,918,o),
(60,709,o),
(60,450,cs),
(60,191,o),
(270,-18,o),
(530,-18,cs)
);
},
{
closed = 1;
nodes = (
(332,90,o),
(178,251,o),
(178,450,cs),
(178,649,o),
(332,810,o),
(530,810,cs),
(728,810,o),
(882,649,o),
(882,450,cs),
(882,251,o),
(728,90,o),
(530,90,cs)
);
}
);
};
guides = (
{
angle = 104.036;
pos = (841,300);
},
{
angle = 104.036;
pos = (676,300);
},
{
angle = 104.036;
pos = (783,300);
}
);
layerId = "01A22628-B541-4374-9232-A2213F2D24BF";
shapes = (
{
closed = 1;
nodes = (
(680,-18,o),
(803,33,o),
(886,120,c),
(781,540,l),
(616,540,l),
(702,197,l),
(654,165,o),
(598,148,o),
(540,148,cs),
(364,148,o),
(208,308,o),
(208,484,cs),
(208,632,o),
(317,744,o),
(459,744,cs),
(550,744,o),
(641,697,o),
(704,617,c),
(704,842,l),
(622,892,o),
(531,918,o),
(440,918,cs),
(200,918,o),
(18,738,o),
(18,502,cs),
(18,226,o),
(266,-18,o),
(550,-18,cs)
);
}
);
width = 920;
},
{
associatedMasterId = "01A22628-B541-4374-9232-A2213F2D24BF";
background = {
shapes = (
{
closed = 1;
nodes = (
(805,-17,o),
(1017,195,o),
(1017,457,cs),
(1017,719,o),
(805,931,o),
(543,931,cs),
(281,931,o),
(69,719,o),
(69,457,cs),
(69,195,o),
(281,-17,o),
(543,-17,cs)
);
},
{
closed = 1;
nodes = (
(344,97,o),
(189,258,o),
(189,457,cs),
(189,656,o),
(344,817,o),
(543,817,cs),
(742,817,o),
(897,656,o),
(897,457,cs),
(897,258,o),
(742,97,o),
(543,97,cs)
);
}
);
};
guides = (
{
angle = 90;
pos = (816,960);
},
{
pos = (1005,480);
},
{
angle = 270;
pos = (876,279);
}
);
hints = (
{
horizontal = 1;
place = (-17, 114);
place = (-17, 114);
type = Stem;
},
{
horizontal = 1;
origin = (0,16);
target = (0,9);
type = Stem;
},
{
origin = (0,19);
target = (0,6);
type = Stem;
},
{
origin = (0,27);
target = (0,26);
type = Stem;
},
{
horizontal = 1;
origin = (0,12);
target = up;
type = BottomGhost;
},
{
horizontal = 1;
options = 4;
origin = (0,16);
target = (0,9);
type = TTStem;
},
{
horizontal = 1;
options = 4;
origin = (0,22);
target = (0,3);
type = TTStem;
},
{
horizontal = 1;
options = 2;
origin = (0,27);
type = TTSnap;
},
{
options = 4;
origin = (0,19);
target = (0,6);
type = TTStem;
},
{
options = 4;
origin = (0,27);
target = (0,26);
type = TTStem;
}
);
layerId = "01F27852-C851-452D-A49F-C3FBD3D2F14D";
name = "Oct 5 19, 11:35";
shapes = (
{
closed = 1;
nodes = (
(776,173,l),
(714,122,o),
(632,97,o),
(546,97,cs),
(343,97,o),
(189,258,o),
(189,457,cs),
(189,656,o),
(344,817,o),
(543,817,cs),
(633,817,o),
(715,784,o),
(777,728,c),
(777,864,l),
(707,903,o),
(627,925,o),
(542,925,cs),
(281,925,o),
(69,719,o),
(69,457,cs),
(69,195,o),
(280,-11,o),
(545,-11,cs),
(651,-11,o),
(754,17,o),
(834,74,c),
(834,457,l),
(720,457,l),
(720,97,l)
);
}
);
width = 914;
},
{
associatedMasterId = "01A22628-B541-4374-9232-A2213F2D24BF";
background = {
shapes = (
{
closed = 1;
nodes = (
(805,-17,o),
(1017,195,o),
(1017,457,cs),
(1017,719,o),
(805,931,o),
(543,931,cs),
(281,931,o),
(69,719,o),
(69,457,cs),
(69,195,o),
(281,-17,o),
(543,-17,cs)
);
},
{
closed = 1;
nodes = (
(344,97,o),
(189,258,o),
(189,457,cs),
(189,656,o),
(344,817,o),
(543,817,cs),
(742,817,o),
(897,656,o),
(897,457,cs),
(897,258,o),
(742,97,o),
(543,97,cs)
);
}
);
};
guides = (
{
angle = 90;
pos = (816,960);
},
{
pos = (1005,480);
},
{
angle = 270;
pos = (876,279);
},
{
pos = (510,493);
}
);
hints = (
{
horizontal = 1;
place = (-17, 114);
place = (-17, 114);
type = Stem;
},
{
horizontal = 1;
origin = (0,17);
target = (0,16);
type = Stem;
},
{
origin = (0,26);
target = (0,13);
type = Stem;
},
{
origin = (0,6);
target = (0,3);
type = Stem;
},
{
horizontal = 1;
place = (728, 21);
target = up;
type = BottomGhost;
},
{
horizontal = 1;
options = 4;
origin = (0,0);
target = (0,16);
type = TTStem;
},
{
horizontal = 1;
options = 4;
origin = (0,29);
target = (0,10);
type = TTStem;
},
{
horizontal = 1;
options = 2;
origin = (0,3);
type = TTSnap;
},
{
options = 4;
origin = (0,26);
target = (0,13);
type = TTStem;
},
{
options = 4;
origin = (0,6);
target = (0,3);
type = TTStem;
}
);
layerId = "8D677075-3B14-4999-8FD9-2CD1A789459F";
name = "Aug 25 20, 11:54";
shapes = (
{
closed = 1;
nodes = (
(651,-11,o),
(754,17,o),
(834,74,c),
(834,521,l),
(486,521,l),
(486,418,l),
(720,418,l),
(720,136,l),
(668,110,o),
(608,97,o),
(546,97,cs),
(343,97,o),
(189,258,o),
(189,457,cs),
(189,656,o),
(344,817,o),
(543,817,cs),
(665,817,o),
(770,756,o),
(834,664,c),
(834,825,l),
(753,888,o),
(652,925,o),
(543,925,cs),
(281,925,o),
(69,719,o),
(69,457,cs),
(69,195,o),
(280,-11,o),
(545,-11,cs)
);
}
);
width = 943;
},
{
associatedMasterId = "01A22628-B541-4374-9232-A2213F2D24BF";
background = {
shapes = (
{
closed = 1;
nodes = (
(805,-17,o),
(1017,195,o),
(1017,457,cs),
(1017,719,o),
(805,931,o),
(543,931,cs),
(281,931,o),
(69,719,o),
(69,457,cs),
(69,195,o),
(281,-17,o),
(543,-17,cs)
);
},
{
closed = 1;
nodes = (
(344,97,o),
(189,258,o),
(189,457,cs),
(189,656,o),
(344,817,o),
(543,817,cs),
(742,817,o),
(897,656,o),
(897,457,cs),
(897,258,o),
(742,97,o),
(543,97,cs)
);
}
);
};
hints = (
{
horizontal = 1;
place = (-17, 114);
place = (-17, 114);
type = Stem;
},
{
horizontal = 1;
place = (817, 0);
place = (817, 0);
type = Stem;
},
{
origin = (0,21);
target = (0,14);
type = Stem;
},
{
origin = (0,6);
target = (0,3);
type = Stem;
},
{
horizontal = 1;
place = (728, 21);
target = up;
type = BottomGhost;
},
{
horizontal = 1;
options = 4;
origin = (0,0);
target = (0,4);
type = TTStem;
},
{
horizontal = 1;
options = 4;
origin = (0,30);
target = (0,11);
type = TTStem;
},
{
horizontal = 1;
options = 2;
origin = (0,3);
type = TTSnap;
},
{
options = 4;
origin = (0,21);
target = (0,14);
type = TTStem;
},
{
options = 4;
origin = (0,6);
target = (0,3);
type = TTStem;
}
);
layerId = "E2C362AC-5929-48EC-875B-7CD92AABCDE5";
name = "14 Dec 21, 10:52";
shapes = (
{
closed = 1;
nodes = (
(651,-17,o),
(754,11,o),
(834,69,c),
(834,521,l),
(486,521,l),
(486,418,l),
(724,418,l),
(724,79,l),
(748,147,l),
(691,110,o),
(621,91,o),
(546,91,cs),
(343,91,o),
(189,258,o),
(189,457,cs),
(189,659,o),
(345,823,o),
(546,823,cs),
(673,823,o),
(783,757,o),
(845,657,c),
(878,792,l),
(792,878,o),
(673,931,o),
(543,931,cs),
(281,931,o),
(69,719,o),
(69,457,cs),
(69,195,o),
(280,-17,o),
(545,-17,cs)
);
}
);
width = 943;
},
{
anchors = (
{
name = bottom;
pos = (593,0);
},
{
name = center;
pos = (773,270);
},
{
name = top;
pos = (370,900);
}
);
guides = (
{
pos = (729,524);
}
);
layerId = "40756F1B-8CBD-42F6-8842-73C8ADC25AA8";
shapes = (
{
closed = 1;
nodes = (
(680,-17,o),
(824,40,o),
(902,125,c),
(803,524,l),
(556,524,l),
(621,267,l),
(594,247,o),
(563,238,o),
(524,238,cs),
(400,238,o),
(296,349,o),
(296,481,cs),
(296,586,o),
(375,656,o),
(493,656,cs),
(568,656,o),
(648,628,o),
(714,579,c),
(714,859,l),
(637,898,o),
(544,920,o),
(454,920,cs),
(191,920,o),
(2,746,o),
(2,504,cs),
(2,221,o),
(249,-17,o),
(541,-17,cs)
);
}
);
width = 910;
}
);
},
{
color = 3;
glyphname = Gstroke;
kernLeft = C;
kernRight = G;
lastChange = "2024-02-26 20:26:21 +0000";
layers = (
{
layerId = "ACBCE007-E73D-46AC-8E41-1CDF677894E7";
shapes = (
{
closed = 1;
nodes = (
(683,-12,o),
(790,30,o),
(878,113,c),
(821,342,l),
(910,342,l),
(902,378,l),
(812,378,l),
(771,540,l),
(730,540,l),
(770,378,l),
(482,378,l),
(490,342,l),
(779,342,l),
(832,128,l),
(758,63,o),
(666,30,o),
(563,30,cs),
(300,30,o),
(75,249,o),
(75,504,cs),
(75,713,o),
(228,870,o),
(431,870,cs),
(548,870,o),
(664,817,o),
(753,722,c),
(753,781,l),
(662,865,o),
(546,912,o),
(430,912,cs),
(203,912,o),
(29,734,o),
(29,502,cs),
(29,226,o),
(275,-12,o),
(562,-12,cs)
);
}
);
width = 940;
},
{
layerId = "AC72BC7B-7DA4-4629-8F76-12EBC1936C54";
shapes = (
{
closed = 1;
nodes = (
(688,-18,o),
(807,42,o),
(890,146,c),
(847,318,l),
(919,318,l),
(899,402,l),
(826,402,l),
(792,540,l),
(682,540,l),
(716,402,l),
(479,402,l),
(499,318,l),
(737,318,l),
(770,186,l),
(714,126,o),
(630,90,o),
(539,90,cs),
(330,90,o),
(142,283,o),
(142,496,cs),
(142,674,o),
(274,810,o),
(449,810,cs),
(547,810,o),
(646,766,o),
(723,688,c),
(723,826,l),
(634,886,o),
(534,918,o),
(438,918,cs),
(204,918,o),
(24,738,o),
(24,505,cs),
(24,231,o),
(273,-18,o),
(548,-18,cs)
);
}
);
width = 940;
},
{
layerId = "01A22628-B541-4374-9232-A2213F2D24BF";
shapes = (
{
closed = 1;
nodes = (
(680,-18,o),
(803,33,o),
(886,120,c),
(839,309,l),
(908,309,l),
(876,435,l),
(807,435,l),
(781,540,l),
(616,540,l),
(642,435,l),
(456,435,l),
(488,309,l),
(674,309,l),
(702,197,l),
(654,165,o),
(598,148,o),
(540,148,cs),
(364,148,o),
(208,308,o),
(208,484,cs),
(208,632,o),
(317,744,o),
(459,744,cs),
(550,744,o),
(641,697,o),
(704,617,c),
(704,842,l),
(622,892,o),
(531,918,o),
(440,918,cs),
(200,918,o),
(18,738,o),
(18,502,cs),
(18,226,o),
(266,-18,o),
(550,-18,cs)
);
}
);
width = 920;
},
{
layerId = "40756F1B-8CBD-42F6-8842-73C8ADC25AA8";
shapes = (
{
closed = 1;
nodes = (
(680,-17,o),
(824,40,o),
(902,125,c),
(857,306,l),
(908,306,l),
(866,474,l),
(815,474,l),
(803,524,l),
(556,524,l),
(569,474,l),
(446,474,l),
(488,306,l),
(611,306,l),
(621,267,l),
(594,247,o),
(563,238,o),
(524,238,cs),
(400,238,o),
(296,349,o),
(296,481,cs),
(296,586,o),
(375,656,o),
(493,656,cs),
(568,656,o),
(648,628,o),
(714,579,c),
(714,859,l),
(637,898,o),
(544,920,o),
(454,920,cs),
(191,920,o),
(2,746,o),
(2,504,cs),
(2,221,o),
(249,-17,o),
(541,-17,cs)
);
}
);
width = 910;
}
);
unicode = 484;
},
{
color = 3;
glyphname = H;
kernLeft = B;
kernRight = H;
lastChange = "2024-02-17 22:45:08 +0000";
layers = (
{
anchors = (
{
name = bottom;
pos = (455,0);
},
{
name = center;
pos = (492,750);
},
{
name = top;
pos = (230,900);
},
{
name = topleft;
pos = (-14,900);
}
);
guides = (
{
angle = 104.036;
pos = (136,300);
},
{
angle = 104.036;
pos = (180,300);
}
);
layerId = "ACBCE007-E73D-46AC-8E41-1CDF677894E7";
shapes = (
{
closed = 1;
nodes = (
(255,0,l),
(121,535,l),
(521,535,l),
(655,0,l),
(699,0,l),
(474,900,l),
(430,900,l),
(511,575,l),
(111,575,l),
(30,900,l),
(-14,900,l),
(211,0,l)
);
}
);
width = 760;
},
{
anchors = (
{
name = bottom;
pos = (475,0);
},
{
name = center;
pos = (290,750);
},
{
name = top;
pos = (253,900);
},
{
name = topleft;
pos = (-24,900);
}
);
background = {
shapes = (
{
closed = 1;
nodes = (
(499,114,o),
(581,196,o),
(581,298,cs),
(581,400,o),
(499,482,o),
(397,482,cs),
(295,482,o),
(213,400,o),
(213,298,cs),
(213,196,o),
(295,114,o),
(397,114,cs)
);
},
{
closed = 1;
nodes = (
(562,0,o),
(695,133,o),
(695,298,cs),
(695,463,o),
(562,596,o),
(397,596,cs),
(232,596,o),
(99,463,o),
(99,298,cs),
(99,133,o),
(232,0,o),
(397,0,cs)
);
},
{
closed = 1;
nodes = (
(453,596,o),
(499,642,o),
(499,698,cs),
(499,754,o),
(453,800,o),
(397,800,cs),
(341,800,o),
(295,754,o),
(295,698,cs),
(295,642,o),
(341,596,o),
(397,596,cs)
);
},
{
closed = 1;
nodes = (
(516,482,o),
(613,579,o),
(613,698,cs),
(613,817,o),
(516,914,o),
(397,914,cs),
(278,914,o),
(181,817,o),
(181,698,cs),
(181,579,o),
(278,482,o),
(397,482,cs)
);
}
);
};
guides = (
{
angle = 104.036;
pos = (126,300);
},
{
angle = 104.036;
pos = (240,300);
},
{
angle = 104.036;
pos = (560,300);
},
{
angle = 104.036;
pos = (674,300);
}
);
layerId = "AC72BC7B-7DA4-4629-8F76-12EBC1936C54";
shapes = (
{
closed = 1;
nodes = (
(315,0,l),
(189,504,l),
(509,504,l),
(635,0,l),
(749,0,l),
(524,900,l),
(410,900,l),
(483,606,l),
(163,606,l),
(90,900,l),
(-24,900,l),
(201,0,l)
);
}
);
width = 800;
},
{
anchors = (
{
name = bottom;
pos = (472,0);
},
{
name = center;
pos = (287,750);
},
{
name = top;
pos = (250,900);
},
{
name = topleft;
pos = (-54,900);
}
);
background = {
shapes = (
{
closed = 1;
nodes = (
(499,114,o),
(581,196,o),
(581,298,cs),
(581,400,o),
(499,482,o),
(397,482,cs),
(295,482,o),
(213,400,o),
(213,298,cs),
(213,196,o),
(295,114,o),
(397,114,cs)
);
},
{
closed = 1;
nodes = (
(562,0,o),
(695,133,o),
(695,298,cs),
(695,463,o),
(562,596,o),
(397,596,cs),
(232,596,o),
(99,463,o),
(99,298,cs),
(99,133,o),
(232,0,o),
(397,0,cs)
);
},
{
closed = 1;
nodes = (
(453,596,o),
(499,642,o),
(499,698,cs),
(499,754,o),
(453,800,o),
(397,800,cs),
(341,800,o),
(295,754,o),
(295,698,cs),
(295,642,o),
(341,596,o),
(397,596,cs)
);
},
{
closed = 1;
nodes = (
(516,482,o),
(613,579,o),
(613,698,cs),
(613,817,o),
(516,914,o),
(397,914,cs),
(278,914,o),
(181,817,o),
(181,698,cs),
(181,579,o),
(278,482,o),
(397,482,cs)
);
}
);
};
guides = (
{
angle = 104.036;
pos = (96,300);
},
{
angle = 104.036;
pos = (270,300);
}
);
layerId = "01A22628-B541-4374-9232-A2213F2D24BF";
shapes = (
{
closed = 1;
nodes = (
(345,0,l),
(232,450,l),
(492,450,l),
(605,0,l),
(779,0,l),
(554,900,l),
(380,900,l),
(451,612,l),
(191,612,l),
(120,900,l),
(-54,900,l),
(171,0,l)
);
}
);
width = 800;
},
{
anchors = (
{
name = bottom;
pos = (526,0);
},
{
name = center;
pos = (339,750);
},
{
name = top;
pos = (302,900);
},
{
name = topleft;
pos = (636,900);
}
);
layerId = "40756F1B-8CBD-42F6-8842-73C8ADC25AA8";
shapes = (
{
closed = 1;
nodes = (
(429,0,l),
(335,378,l),
(527,378,l),
(621,0,l),
(915,0,l),
(691,900,l),
(397,900,l),
(464,630,l),
(272,630,l),
(205,900,l),
(-89,900,l),
(135,0,l)
);
}
);
width = 900;
}
);
unicode = 72;
},
{
color = 3;
export = 0;
glyphname = H.bar;
kernLeft = B;
kernRight = H;
lastChange = "2024-02-20 06:33:33 +0000";
layers = (
{
anchors = (
{
name = bottom;
pos = (305,0);
},
{
name = center;
pos = (492,750);
},
{
name = top;
pos = (230,900);
},
{
name = topleft;
pos = (-14,900);
}
);
guides = (
{
angle = 104.036;
pos = (136,300);
},
{
angle = 104.036;
pos = (180,300);
}
);
layerId = "ACBCE007-E73D-46AC-8E41-1CDF677894E7";
shapes = (
{
closed = 1;
nodes = (
(255,0,l),
(136,475,l),
(536,475,l),
(655,0,l),
(699,0,l),
(474,900,l),
(430,900,l),
(526,515,l),
(126,515,l),
(30,900,l),
(-14,900,l),
(211,0,l)
);
}
);
width = 760;
},
{
associatedMasterId = "AC72BC7B-7DA4-4629-8F76-12EBC1936C54";
background = {
shapes = (
{
closed = 1;
nodes = (
(470,114,o),
(552,196,o),
(552,298,cs),
(552,400,o),
(470,482,o),
(368,482,cs),
(267,482,o),
(185,400,o),
(185,298,cs),
(185,196,o),
(267,114,o),
(368,114,cs)
);
},
{
closed = 1;
nodes = (
(533,0,o),
(666,133,o),
(666,298,cs),
(666,463,o),
(533,596,o),
(368,596,cs),
(204,596,o),
(70,463,o),
(70,298,cs),
(70,133,o),
(204,0,o),
(368,0,cs)
);
},
{
closed = 1;
nodes = (
(425,596,o),
(470,642,o),
(470,698,cs),
(470,754,o),
(425,800,o),
(368,800,cs),
(312,800,o),
(267,754,o),
(267,698,cs),
(267,642,o),
(312,596,o),
(368,596,cs)
);
},
{
closed = 1;
nodes = (
(487,482,o),
(585,579,o),
(585,698,cs),
(585,817,o),
(487,914,o),
(368,914,cs),
(249,914,o),
(152,817,o),
(152,698,cs),
(152,579,o),
(249,482,o),
(368,482,cs)
);
}
);
};
guides = (
{
angle = 180;
pos = (387,578);
}
);
layerId = "CC8FD574-CC71-4769-BE7C-404AC56698EE";
name = "Mar 20 17, 10:15";
shapes = (
{
closed = 1;
nodes = (
(229,0,l),
(229,914,l),
(114,914,l),
(114,0,l)
);
},
{
closed = 1;
nodes = (
(742,434,l),
(742,537,l),
(167,537,l),
(167,434,l)
);
},
{
closed = 1;
nodes = (
(800,0,l),
(800,914,l),
(686,914,l),
(686,0,l)
);
}
);
width = 914;
},
{
anchors = (
{
name = bottom;
pos = (475,0);
},
{
name = center;
pos = (290,750);
},
{
name = top;
pos = (253,900);
},
{
name = topleft;
pos = (527,900);
}
);
background = {
shapes = (
{
closed = 1;
nodes = (
(499,114,o),
(581,196,o),
(581,298,cs),
(581,400,o),
(499,482,o),
(397,482,cs),
(295,482,o),
(213,400,o),
(213,298,cs),
(213,196,o),
(295,114,o),
(397,114,cs)
);
},
{
closed = 1;
nodes = (
(562,0,o),
(695,133,o),
(695,298,cs),
(695,463,o),
(562,596,o),
(397,596,cs),
(232,596,o),
(99,463,o),
(99,298,cs),
(99,133,o),
(232,0,o),
(397,0,cs)
);
},
{
closed = 1;
nodes = (
(453,596,o),
(499,642,o),
(499,698,cs),
(499,754,o),
(453,800,o),
(397,800,cs),
(341,800,o),
(295,754,o),
(295,698,cs),
(295,642,o),
(341,596,o),
(397,596,cs)
);
},
{
closed = 1;
nodes = (
(516,482,o),
(613,579,o),
(613,698,cs),
(613,817,o),
(516,914,o),
(397,914,cs),
(278,914,o),
(181,817,o),
(181,698,cs),
(181,579,o),
(278,482,o),
(397,482,cs)
);
}
);
};
guides = (
{
angle = 180;
pos = (417,546);
},
{
angle = 180;
pos = (240,750);
},
{
angle = 104.036;
pos = (126,300);
}
);
layerId = "AC72BC7B-7DA4-4629-8F76-12EBC1936C54";
shapes = (
{
closed = 1;
nodes = (
(315,0,l),
(204,444,l),
(524,444,l),
(635,0,l),
(749,0,l),
(524,900,l),
(410,900,l),
(498,546,l),
(178,546,l),
(90,900,l),
(-24,900,l),
(201,0,l)
);
}
);
width = 800;
},
{
associatedMasterId = "01A22628-B541-4374-9232-A2213F2D24BF";
background = {
shapes = (
{
closed = 1;
nodes = (
(470,114,o),
(552,196,o),
(552,298,cs),
(552,400,o),
(470,482,o),
(368,482,cs),
(267,482,o),
(185,400,o),
(185,298,cs),
(185,196,o),
(267,114,o),
(368,114,cs)
);
},
{
closed = 1;
nodes = (
(533,0,o),
(666,133,o),
(666,298,cs),
(666,463,o),
(533,596,o),
(368,596,cs),
(204,596,o),
(70,463,o),
(70,298,cs),
(70,133,o),
(204,0,o),
(368,0,cs)
);
},
{
closed = 1;
nodes = (
(425,596,o),
(470,642,o),
(470,698,cs),
(470,754,o),
(425,800,o),
(368,800,cs),
(312,800,o),
(267,754,o),
(267,698,cs),
(267,642,o),
(312,596,o),
(368,596,cs)
);
},
{
closed = 1;
nodes = (
(487,482,o),
(585,579,o),
(585,698,cs),
(585,817,o),
(487,914,o),
(368,914,cs),
(249,914,o),
(152,817,o),
(152,698,cs),
(152,579,o),
(249,482,o),
(368,482,cs)
);
}
);
};
guides = (
{
angle = 180;
pos = (387,578);
}
);
layerId = "C5C6237C-6084-4E4B-8418-3D4C1ED01D6A";
name = "Mar 20 17, 10:15";
shapes = (
{
closed = 1;
nodes = (
(229,0,l),
(229,914,l),
(114,914,l),
(114,0,l)
);
},
{
closed = 1;
nodes = (
(742,434,l),
(742,537,l),
(167,537,l),
(167,434,l)
);
},
{
closed = 1;
nodes = (
(800,0,l),
(800,914,l),
(686,914,l),
(686,0,l)
);
}
);
width = 914;
},
{
anchors = (
{
name = bottom;
pos = (475,0);
},
{
name = center;
pos = (298,720);
},
{
name = top;
pos = (250,900);
},
{
name = topleft;
pos = (-54,900);
}
);
background = {
shapes = (
{
closed = 1;
nodes = (
(499,114,o),
(581,196,o),
(581,298,cs),
(581,400,o),
(499,482,o),
(397,482,cs),
(295,482,o),
(213,400,o),
(213,298,cs),
(213,196,o),
(295,114,o),
(397,114,cs)
);
},
{
closed = 1;
nodes = (
(562,0,o),
(695,133,o),
(695,298,cs),
(695,463,o),
(562,596,o),
(397,596,cs),
(232,596,o),
(99,463,o),
(99,298,cs),
(99,133,o),
(232,0,o),
(397,0,cs)
);
},
{
closed = 1;
nodes = (
(453,596,o),
(499,642,o),
(499,698,cs),
(499,754,o),
(453,800,o),
(397,800,cs),
(341,800,o),
(295,754,o),
(295,698,cs),
(295,642,o),
(341,596,o),
(397,596,cs)
);
},
{
closed = 1;
nodes = (
(516,482,o),
(613,579,o),
(613,698,cs),
(613,817,o),
(516,914,o),
(397,914,cs),
(278,914,o),
(181,817,o),
(181,698,cs),
(181,579,o),
(278,482,o),
(397,482,cs)
);
}
);
};
guides = (
{
angle = 180;
pos = (417,576);
},
{
angle = 180;
pos = (240,750);
},
{
angle = 180;
pos = (240,495);
},
{
angle = 104.036;
pos = (96,300);
}
);
layerId = "01A22628-B541-4374-9232-A2213F2D24BF";
shapes = (
{
closed = 1;
nodes = (
(345,0,l),
(241,414,l),
(501,414,l),
(605,0,l),
(779,0,l),
(554,900,l),
(380,900,l),
(460,576,l),
(200,576,l),
(120,900,l),
(-54,900,l),
(171,0,l)
);
}
);
width = 800;
},
{
anchors = (
{
name = bottom;
pos = (526,0);
},
{
name = center;
pos = (339,750);
},
{
name = top;
pos = (302,900);
},
{
name = topleft;
pos = (-89,900);
}
);
layerId = "40756F1B-8CBD-42F6-8842-73C8ADC25AA8";
shapes = (
{
closed = 1;
nodes = (
(691,900,l),
(409,900,l),
(491,570,l),
(275,570,l),
(193,900,l),
(-89,900,l),
(135,0,l),
(429,0,l),
(347,330,l),
(539,330,l),
(621,0,l),
(915,0,l)
);
}
);
width = 900;
}
);
},
{
color = 3;
glyphname = Hbar;
kernLeft = B;
kernRight = H;
lastChange = "2024-02-20 06:33:33 +0000";
layers = (
{
guides = (
{
angle = 104.036;
pos = (136,300);
},
{
angle = 104.036;
pos = (180,300);
}
);
layerId = "ACBCE007-E73D-46AC-8E41-1CDF677894E7";
shapes = (
{
closed = 1;
nodes = (
(255,0,l),
(121,535,l),
(521,535,l),
(655,0,l),
(699,0,l),
(516,732,l),
(612,732,l),
(604,768,l),
(507,768,l),
(474,900,l),
(430,900,l),
(463,768,l),
(63,768,l),
(30,900,l),
(-14,900,l),
(19,768,l),
(-76,768,l),
(-68,732,l),
(28,732,l),
(211,0,l)
);
},
{
closed = 1;
nodes = (
(72,732,l),
(472,732,l),
(511,575,l),
(111,575,l)
);
}
);
width = 760;
},
{
guides = (
{
angle = 104.036;
pos = (126,300);
}
);
layerId = "AC72BC7B-7DA4-4629-8F76-12EBC1936C54";
shapes = (
{
closed = 1;
nodes = (
(315,0,l),
(204,444,l),
(524,444,l),
(635,0,l),
(749,0,l),
(572,708,l),
(670,708,l),
(650,792,l),
(551,792,l),
(524,900,l),
(410,900,l),
(437,792,l),
(117,792,l),
(90,900,l),
(-24,900,l),
(3,792,l),
(-90,792,l),
(-70,708,l),
(24,708,l),
(201,0,l)
);
},
{
closed = 1;
nodes = (
(138,708,l),
(458,708,l),
(498,546,l),
(178,546,l)
);
}
);
width = 800;
},
{
guides = (
{
angle = 104.036;
pos = (96,300);
}
);
layerId = "01A22628-B541-4374-9232-A2213F2D24BF";
shapes = (
{
closed = 1;
nodes = (
(345,0,l),
(241,414,l),
(501,414,l),
(605,0,l),
(779,0,l),
(612,666,l),
(681,666,l),
(655,774,l),
(585,774,l),
(554,900,l),
(380,900,l),
(411,774,l),
(151,774,l),
(120,900,l),
(-54,900,l),
(-23,774,l),
(-85,774,l),
(-59,666,l),
(4,666,l),
(171,0,l)
);
},
{
closed = 1;
nodes = (
(178,666,l),
(438,666,l),
(460,576,l),
(200,576,l)
);
}
);
width = 800;
},
{
layerId = "40756F1B-8CBD-42F6-8842-73C8ADC25AA8";
shapes = (
{
closed = 1;
nodes = (
(429,0,l),
(347,330,l),
(539,330,l),
(621,0,l),
(915,0,l),
(745,681,l),
(793,681,l),
(759,819,l),
(711,819,l),
(691,900,l),
(409,900,l),
(429,819,l),
(213,819,l),
(193,900,l),
(-89,900,l),
(-69,819,l),
(-117,819,l),
(-83,681,l),
(-35,681,l),
(135,0,l)
);
},
{
closed = 1;
nodes = (
(247,681,l),
(463,681,l),
(491,570,l),
(275,570,l)
);
}
);
width = 900;
}
);
unicode = 294;
},
{
color = 3;
glyphname = I;
kernLeft = B;
kernRight = H;
lastChange = "2024-02-17 22:45:08 +0000";
layers = (
{
anchors = (
{
name = bottom;
pos = (234,0);
},
{
name = ogonek;
pos = (234,0);
},
{
name = top;
pos = (9,900);
},
{
name = topleft;
pos = (-13,900);
}
);
guides = (
{
angle = 104.036;
pos = (137,300);
}
);
layerId = "ACBCE007-E73D-46AC-8E41-1CDF677894E7";
shapes = (
{
closed = 1;
nodes = (
(256,0,l),
(31,900,l),
(-13,900,l),
(212,0,l)
);
}
);
width = 340;
},
{
anchors = (
{
name = bottom;
pos = (270,0);
},
{
name = ogonek;
pos = (270,0);
},
{
name = top;
pos = (45,900);
},
{
name = topleft;
pos = (-12,900);
}
);
background = {
shapes = (
{
closed = 1;
nodes = (
(497,114,o),
(579,196,o),
(579,298,cs),
(579,400,o),
(497,482,o),
(395,482,cs),
(293,482,o),
(211,400,o),
(211,298,cs),
(211,196,o),
(293,114,o),
(395,114,cs)
);
},
{
closed = 1;
nodes = (
(560,0,o),
(693,133,o),
(693,298,cs),
(693,463,o),
(560,596,o),
(395,596,cs),
(230,596,o),
(97,463,o),
(97,298,cs),
(97,133,o),
(230,0,o),
(395,0,cs)
);
},
{
closed = 1;
nodes = (
(451,596,o),
(497,642,o),
(497,698,cs),
(497,754,o),
(451,800,o),
(395,800,cs),
(339,800,o),
(293,754,o),
(293,698,cs),
(293,642,o),
(339,596,o),
(395,596,cs)
);
},
{
closed = 1;
nodes = (
(514,482,o),
(611,579,o),
(611,698,cs),
(611,817,o),
(514,914,o),
(395,914,cs),
(276,914,o),
(179,817,o),
(179,698,cs),
(179,579,o),
(276,482,o),
(395,482,cs)
);
}
);
};
guides = (
{
angle = 104.036;
pos = (138,300);
},
{
angle = 104.036;
pos = (252,300);
}
);
layerId = "AC72BC7B-7DA4-4629-8F76-12EBC1936C54";
shapes = (
{
closed = 1;
nodes = (
(327,0,l),
(102,900,l),
(-12,900,l),
(213,0,l)
);
}
);
width = 390;
},
{
anchors = (
{
name = bottom;
pos = (270,0);
},
{
name = ogonek;
pos = (270,0);
},
{
name = top;
pos = (45,900);
},
{
name = topleft;
pos = (-48,900);
}
);
background = {
shapes = (
{
closed = 1;
nodes = (
(497,114,o),
(579,196,o),
(579,298,cs),
(579,400,o),
(497,482,o),
(395,482,cs),
(293,482,o),
(211,400,o),
(211,298,cs),
(211,196,o),
(293,114,o),
(395,114,cs)
);
},
{
closed = 1;
nodes = (
(560,0,o),
(693,133,o),
(693,298,cs),
(693,463,o),
(560,596,o),
(395,596,cs),
(230,596,o),
(97,463,o),
(97,298,cs),
(97,133,o),
(230,0,o),
(395,0,cs)
);
},
{
closed = 1;
nodes = (
(451,596,o),
(497,642,o),
(497,698,cs),
(497,754,o),
(451,800,o),
(395,800,cs),
(339,800,o),
(293,754,o),
(293,698,cs),
(293,642,o),
(339,596,o),
(395,596,cs)
);
},
{
closed = 1;
nodes = (
(514,482,o),
(611,579,o),
(611,698,cs),
(611,817,o),
(514,914,o),
(395,914,cs),
(276,914,o),
(179,817,o),
(179,698,cs),
(179,579,o),
(276,482,o),
(395,482,cs)
);
}
);
};
guides = (
{
angle = 180;
pos = (415,578);
},
{
angle = 104.036;
pos = (102,300);
},
{
angle = 104.036;
pos = (288,300);
}
);
layerId = "01A22628-B541-4374-9232-A2213F2D24BF";
shapes = (
{
closed = 1;
nodes = (
(363,0,l),
(138,900,l),
(-48,900,l),
(177,0,l)
);
}
);
width = 390;
},
{
anchors = (
{
name = bottom;
pos = (285,0);
},
{
name = ogonek;
pos = (285,0);
},
{
name = top;
pos = (61,900);
},
{
name = topleft;
pos = (263,900);
}
);
layerId = "40756F1B-8CBD-42F6-8842-73C8ADC25AA8";
shapes = (
{
closed = 1;
nodes = (
(435,0,l),
(211,900,l),
(-89,900,l),
(135,0,l)
);
}
);
width = 420;
}
);
unicode = 73;
},
{
color = 3;
glyphname = Iogonek;
kernLeft = B;
kernRight = H;
lastChange = "2024-02-24 10:03:54 +0000";
layers = (
{
layerId = "ACBCE007-E73D-46AC-8E41-1CDF677894E7";
shapes = (
{
closed = 1;
nodes = (
(344,-244,l),
(265,-244,o),
(211,-191,o),
(211,-114,cs),
(211,-77,o),
(225,-40,o),
(256,0,c),
(31,900,l),
(-13,900,l),
(212,0,l),
(185,-42,o),
(171,-82,o),
(171,-122,cs),
(171,-214,o),
(242,-280,o),
(344,-282,c)
);
}
);
width = 340;
},
{
background = {
shapes = (
{
closed = 1;
nodes = (
(252,0,l),
(252,900,l),
(138,900,l),
(138,0,l)
);
},
{
closed = 1;
nodes = (
(259,-312,o),
(298,-299,o),
(326,-277,c),
(302,-180,l),
(287,-205,o),
(264,-228,o),
(224,-228,cs),
(179,-228,o),
(157,-198,o),
(157,-162,cs),
(157,-137,o),
(166,-117,o),
(185,-86,cs),
(203,-57,o),
(227,-29,o),
(252,0,c),
(138,0,l),
(111,-34,ls),
(71,-84,o),
(55,-122,o),
(55,-164,cs),
(55,-253,o),
(129,-312,o),
(216,-312,cs)
);
}
);
};
layerId = "AC72BC7B-7DA4-4629-8F76-12EBC1936C54";
shapes = (
{
closed = 1;
nodes = (
(351,-219,l),
(282,-219,o),
(242,-184,o),
(242,-121,cs),
(242,-68,o),
(275,-23,o),
(327,0,c),
(102,900,l),
(-12,900,l),
(213,0,l),
(170,-40,o),
(149,-88,o),
(149,-138,cs),
(149,-238,o),
(235,-312,o),
(351,-312,c)
);
}
);
width = 390;
},
{
background = {
shapes = (
{
closed = 1;
nodes = (
(372,-188,l),
(316,-186,o),
(279,-153,o),
(279,-105,cs),
(279,-60,o),
(312,-18,o),
(363,0,c),
(138,900,l),
(-48,900,l),
(177,0,l),
(148,-43,o),
(132,-91,o),
(132,-136,cs),
(132,-249,o),
(223,-318,o),
(372,-318,c)
);
}
);
};
layerId = "01A22628-B541-4374-9232-A2213F2D24BF";
shapes = (
{
closed = 1;
nodes = (
(372,-188,l),
(316,-186,o),
(279,-153,o),
(279,-105,cs),
(279,-60,o),
(312,-18,o),
(363,0,c),
(138,900,l),
(-48,900,l),
(179,-8,l),
(148,-43,o),
(132,-91,o),
(132,-136,cs),
(132,-249,o),
(223,-318,o),
(372,-318,c)
);
}
);
width = 390;
},
{
layerId = "40756F1B-8CBD-42F6-8842-73C8ADC25AA8";
shapes = (
{
closed = 1;
nodes = (
(463,-124,l),
(424,-121,o),
(390,-95,o),
(390,-60,cs),
(390,-39,o),
(402,-15,o),
(435,0,c),
(211,900,l),
(-89,900,l),
(135,0,l),
(119,-33,o),
(111,-60,o),
(111,-95,cs),
(111,-225,o),
(227,-290,o),
(463,-290,c)
);
}
);
width = 420;
}
);
unicode = 302;
},
{
color = 3;
glyphname = J;
kernLeft = J;
kernRight = J;
lastChange = "2024-02-25 17:52:30 +0000";
layers = (
{
anchors = (
{
name = bottom;
pos = (225,0);
},
{
name = top;
pos = (238,900);
}
);
background = {
shapes = (
{
closed = 1;
nodes = (
(400,-12,o),
(464,84,o),
(426,236,cs),
(260,900,l),
(216,900,l),
(381,239,ls),
(415,104,o),
(368,28,o),
(253,28,cs),
(189,28,o),
(134,52,o),
(87,100,c),
(85,50,l),
(135,10,o),
(199,-12,o),
(263,-12,cs)
);
}
);
};
guides = (
{
angle = 104.036;
pos = (366,300);
},
{
angle = 104.036;
pos = (410,300);
}
);
layerId = "ACBCE007-E73D-46AC-8E41-1CDF677894E7";
shapes = (
{
closed = 1;
nodes = (
(381,-12,o),
(460,100,o),
(420,260,cs),
(260,900,l),
(216,900,l),
(375,264,ls),
(412,117,o),
(353,28,o),
(221,28,cs),
(172,28,o),
(127,47,o),
(84,87,c),
(84,33,l),
(125,4,o),
(176,-12,o),
(228,-12,cs)
);
}
);
width = 520;
},
{
anchors = (
{
name = bottom;
pos = (393,0);
},
{
name = top;
pos = (225,900);
}
);
background = {
shapes = (
{
closed = 1;
nodes = (
(395,-12,o),
(490,68,o),
(445,247,cs),
(282,900,l),
(168,900,l),
(329,256,ls),
(360,133,o),
(309,90,o),
(239,90,cs),
(177,90,o),
(119,122,o),
(76,174,c),
(73,54,l),
(130,6,o),
(202,-12,o),
(266,-12,cs)
);
}
);
};
guides = (
{
angle = 104.036;
pos = (432,300);
}
);
layerId = "AC72BC7B-7DA4-4629-8F76-12EBC1936C54";
shapes = (
{
closed = 1;
nodes = (
(393,-12,o),
(479,108,o),
(435,285,cs),
(282,900,l),
(168,900,l),
(326,271,ls),
(354,160,o),
(311,90,o),
(216,90,cs),
(160,90,o),
(109,114,o),
(72,157,c),
(72,35,l),
(114,4,o),
(164,-12,o),
(225,-12,cs)
);
}
);
width = 540;
},
{
anchors = (
{
name = bottom;
pos = (365,0);
},
{
name = top;
pos = (234,900);
}
);
background = {
shapes = (
{
closed = 1;
nodes = (
(423,-20,o),
(534,69,o),
(483,270,cs),
(326,900,l),
(140,900,l),
(294,283,ls),
(318,186,o),
(280,148,o),
(218,148,cs),
(166,148,o),
(116,174,o),
(80,214,c),
(75,46,l),
(132,1,o),
(209,-20,o),
(279,-20,cs)
);
}
);
};
guides = (
{
angle = 104.036;
pos = (476,300);
},
{
angle = 104.036;
pos = (12,300);
}
);
layerId = "01A22628-B541-4374-9232-A2213F2D24BF";
shapes = (
{
closed = 1;
nodes = (
(418,-20,o),
(523,111,o),
(475,302,cs),
(326,900,l),
(140,900,l),
(291,295,ls),
(310,220,o),
(290,148,o),
(198,148,cs),
(152,148,o),
(111,165,o),
(78,198,c),
(78,27,l),
(124,-5,o),
(174,-20,o),
(233,-20,cs)
);
}
);
width = 560;
},
{
anchors = (
{
name = bottom;
pos = (377,0);
},
{
name = top;
pos = (237,900);
}
);
background = {
shapes = (
{
closed = 1;
nodes = (
(485,-20,o),
(577,104,o),
(529,296,cs),
(378,900,l),
(84,900,l),
(225,334,ls),
(240,276,o),
(219,238,o),
(173,238,cs),
(139,238,o),
(107,253,o),
(78,282,c),
(69,46,l),
(127,4,o),
(209,-20,o),
(294,-20,cs)
);
}
);
};
layerId = "40756F1B-8CBD-42F6-8842-73C8ADC25AA8";
shapes = (
{
closed = 1;
nodes = (
(469,-20,o),
(567,142,o),
(519,336,cs),
(378,900,l),
(84,900,l),
(224,337,ls),
(237,284,o),
(224,233,o),
(158,233,cs),
(126,233,o),
(97,245,o),
(73,267,c),
(73,26,l),
(122,-4,o),
(174,-20,o),
(245,-20,cs)
);
}
);
width = 580;
}
);
unicode = 74;
},
{
color = 3;
glyphname = K;
kernLeft = B;
kernRight = K;
lastChange = "2024-02-20 06:37:23 +0000";
layers = (
{
anchors = (
{
name = bottom;
pos = (490,0);
},
{
name = top;
pos = (235,900);
}
);
background = {
guides = (
{
angle = 104.036;
pos = (216,300);
}
);
shapes = (
{
closed = 1;
nodes = (
(697,0,l),
(266,328,l),
(576,900,l),
(525,900,l),
(211,321,l),
(634,0,l)
);
},
{
closed = 1;
nodes = (
(255,0,l),
(30,900,l),
(-14,900,l),
(211,0,l)
);
}
);
};
guides = (
{
angle = -61.9121;
pos = (651,0);
},
{
angle = 217.5222;
pos = (770,900);
},
{
angle = 104.036;
pos = (136,300);
},
{
angle = 104.036;
pos = (180,300);
},
{
angle = 104.036;
pos = (714,0);
},
{
angle = 104.036;
pos = (216,300);
}
);
layerId = "ACBCE007-E73D-46AC-8E41-1CDF677894E7";
shapes = (
{
closed = 1;
nodes = (
(787,0,l),
(210,560,l),
(493,900,l),
(439,900,l),
(152,555,l),
(725,0,l)
);
},
{
closed = 1;
nodes = (
(255,0,l),
(30,900,l),
(-14,900,l),
(211,0,l)
);
}
);
width = 740;
},
{
anchors = (
{
name = bottom;
pos = (507,0);
},
{
name = top;
pos = (257,900);
}
);
background = {
shapes = (
{
closed = 1;
nodes = (
(700,0,l),
(450,563,l),
(833,900,l),
(689,900,l),
(323,579,l),
(577,0,l)
);
},
{
closed = 1;
nodes = (
(165,0,l),
(390,900,l),
(276,900,l),
(51,0,l)
);
}
);
};
guides = (
{
angle = 104.036;
pos = (126,300);
},
{
angle = 104.036;
pos = (253,300);
}
);
layerId = "AC72BC7B-7DA4-4629-8F76-12EBC1936C54";
shapes = (
{
closed = 1;
nodes = (
(849,0,l),
(323,570,l),
(545,900,l),
(423,900,l),
(189,555,l),
(698,0,l)
);
},
{
closed = 1;
nodes = (
(315,0,l),
(91,900,l),
(-23,900,l),
(201,0,l)
);
}
);
width = 780;
},
{
anchors = (
{
name = bottom;
pos = (513,0);
},
{
name = top;
pos = (221,900);
}
);
background = {
shapes = (
{
closed = 1;
nodes = (
(228,0,l),
(330,254,ls),
(342,284,o),
(355,315,o),
(370,357,c),
(397,315,o),
(421,285,o),
(446,255,cs),
(654,0,l),
(881,0,l),
(459,501,l),
(623,900,l),
(445,900,l),
(370,710,ls),
(358,680,o),
(345,650,o),
(331,608,c),
(304,650,o),
(280,680,o),
(255,710,cs),
(99,900,l),
(-121,900,l),
(241,464,l),
(47,0,l)
);
},
{
closed = 1;
nodes = (
(881,0,l),
(408,558,l),
(573,900,l),
(367,900,l),
(204,555,l),
(670,0,l)
);
},
{
closed = 1;
nodes = (
(351,0,l),
(127,900,l),
(-53,900,l),
(171,0,l)
);
}
);
};
guides = (
{
angle = 104.036;
pos = (96,300);
},
{
angle = 104.036;
pos = (268,300);
},
{
angle = 244.711;
pos = (557,900);
}
);
layerId = "01A22628-B541-4374-9232-A2213F2D24BF";
shapes = (
{
closed = 1;
nodes = (
(881,0,l),
(405,582,l),
(557,900,l),
(367,900,l),
(204,555,l),
(654,0,l)
);
},
{
closed = 1;
nodes = (
(351,0,l),
(127,900,l),
(-53,900,l),
(171,0,l)
);
}
);
width = 800;
},
{
anchors = (
{
name = bottom;
pos = (521,0);
},
{
name = top;
pos = (229,900);
}
);
layerId = "40756F1B-8CBD-42F6-8842-73C8ADC25AA8";
shapes = (
{
closed = 1;
nodes = (
(961,0,l),
(572,530,l),
(681,900,l),
(379,900,l),
(263,494,l),
(619,0,l)
);
},
{
closed = 1;
nodes = (
(423,0,l),
(199,900,l),
(-89,900,l),
(135,0,l)
);
}
);
width = 880;
}
);
unicode = 75;
},
{
color = 3;
glyphname = L;
kernLeft = B;
kernRight = L;
lastChange = "2024-02-24 16:54:30 +0000";
layers = (
{
anchors = (
{
name = bottom;
pos = (406,0);
},
{
name = center;
pos = (121,450);
},
{
name = periodcentered;
pos = (375,480);
},
{
name = top;
pos = (8,900);
},
{
name = topright;
pos = (72,900);
}
);
guides = (
{
angle = 104.036;
pos = (136,300);
},
{
angle = 104.036;
pos = (420,300);
}
);
layerId = "ACBCE007-E73D-46AC-8E41-1CDF677894E7";
shapes = (
{
closed = 1;
nodes = (
(601,0,l),
(591,40,l),
(245,40,l),
(30,900,l),
(-14,900,l),
(211,0,l)
);
}
);
width = 580;
},
{
anchors = (
{
name = bottom;
pos = (414,0);
},
{
name = center;
pos = (146,450);
},
{
name = periodcentered;
pos = (375,480);
},
{
name = top;
pos = (34,900);
},
{
name = topright;
pos = (133,900);
}
);
background = {
shapes = (
{
closed = 1;
nodes = (
(499,114,o),
(581,196,o),
(581,298,cs),
(581,400,o),
(499,482,o),
(397,482,cs),
(295,482,o),
(213,400,o),
(213,298,cs),
(213,196,o),
(295,114,o),
(397,114,cs)
);
},
{
closed = 1;
nodes = (
(562,0,o),
(695,133,o),
(695,298,cs),
(695,463,o),
(562,596,o),
(397,596,cs),
(232,596,o),
(99,463,o),
(99,298,cs),
(99,133,o),
(232,0,o),
(397,0,cs)
);
},
{
closed = 1;
nodes = (
(453,596,o),
(499,642,o),
(499,698,cs),
(499,754,o),
(453,800,o),
(397,800,cs),
(341,800,o),
(295,754,o),
(295,698,cs),
(295,642,o),
(341,596,o),
(397,596,cs)
);
},
{
closed = 1;
nodes = (
(516,482,o),
(613,579,o),
(613,698,cs),
(613,817,o),
(516,914,o),
(397,914,cs),
(278,914,o),
(181,817,o),
(181,698,cs),
(181,579,o),
(278,482,o),
(397,482,cs)
);
}
);
};
guides = (
{
angle = 180;
pos = (417,578);
},
{
angle = 104.036;
pos = (126,300);
},
{
angle = 104.036;
pos = (240,300);
}
);
layerId = "AC72BC7B-7DA4-4629-8F76-12EBC1936C54";
shapes = (
{
closed = 1;
nodes = (
(627,0,l),
(602,102,l),
(290,102,l),
(91,900,l),
(-23,900,l),
(201,0,l)
);
}
);
width = 600;
},
{
anchors = (
{
name = bottom;
pos = (414,0);
},
{
name = center;
pos = (146,450);
},
{
name = periodcentered;
pos = (376,480);
},
{
name = top;
pos = (33,900);
},
{
name = topright;
pos = (132,900);
}
);
background = {
shapes = (
{
closed = 1;
nodes = (
(499,114,o),
(581,196,o),
(581,298,cs),
(581,400,o),
(499,482,o),
(397,482,cs),
(295,482,o),
(213,400,o),
(213,298,cs),
(213,196,o),
(295,114,o),
(397,114,cs)
);
},
{
closed = 1;
nodes = (
(562,0,o),
(695,133,o),
(695,298,cs),
(695,463,o),
(562,596,o),
(397,596,cs),
(232,596,o),
(99,463,o),
(99,298,cs),
(99,133,o),
(232,0,o),
(397,0,cs)
);
},
{
closed = 1;
nodes = (
(453,596,o),
(499,642,o),
(499,698,cs),
(499,754,o),
(453,800,o),
(397,800,cs),
(341,800,o),
(295,754,o),
(295,698,cs),
(295,642,o),
(341,596,o),
(397,596,cs)
);
},
{
closed = 1;
nodes = (
(516,482,o),
(613,579,o),
(613,698,cs),
(613,817,o),
(516,914,o),
(397,914,cs),
(278,914,o),
(181,817,o),
(181,698,cs),
(181,579,o),
(278,482,o),
(397,482,cs)
);
}
);
};
guides = (
{
angle = 104.036;
pos = (96,300);
},
{
angle = 104.036;
pos = (282,300);
}
);
layerId = "01A22628-B541-4374-9232-A2213F2D24BF";
shapes = (
{
closed = 1;
nodes = (
(627,0,l),
(587,162,l),
(317,162,l),
(132,900,l),
(-54,900,l),
(171,0,l)
);
}
);
width = 600;
},
{
anchors = (
{
name = bottom;
pos = (402,0);
},
{
name = center;
pos = (182,450);
},
{
name = periodcentered;
pos = (448,510);
},
{
name = top;
pos = (70,900);
},
{
name = topright;
pos = (205,900);
}
);
layerId = "40756F1B-8CBD-42F6-8842-73C8ADC25AA8";
shapes = (
{
closed = 1;
nodes = (
(669,0,l),
(606,252,l),
(378,252,l),
(217,900,l),
(-89,900,l),
(135,0,l)
);
}
);
width = 630;
}
);
unicode = 76;
},
{
color = 3;
glyphname = Lslash;
kernLeft = B;
kernRight = L;
lastChange = "2024-02-24 09:45:04 +0000";
layers = (
{
guides = (
{
angle = 104.036;
pos = (196,300);
}
);
layerId = "ACBCE007-E73D-46AC-8E41-1CDF677894E7";
shapes = (
{
closed = 1;
nodes = (
(631,0,l),
(621,40,l),
(275,40,l),
(174,446,l),
(387,613,l),
(366,641,l),
(165,482,l),
(60,900,l),
(16,900,l),
(128,453,l),
(14,363,l),
(34,336,l),
(137,417,l),
(241,0,l)
);
}
);
width = 610;
},
{
guides = (
{
pos = (212,600);
}
);
layerId = "AC72BC7B-7DA4-4629-8F76-12EBC1936C54";
shapes = (
{
closed = 1;
nodes = (
(657,0,l),
(632,102,l),
(320,102,l),
(234,448,l),
(440,610,l),
(394,672,l),
(213,530,l),
(121,900,l),
(7,900,l),
(118,455,l),
(6,368,l),
(52,306,l),
(138,373,l),
(231,0,l)
);
}
);
width = 630;
},
{
guides = (
{
pos = (212,600);
}
);
layerId = "01A22628-B541-4374-9232-A2213F2D24BF";
shapes = (
{
closed = 1;
nodes = (
(627,0,l),
(587,162,l),
(317,162,l),
(244,453,l),
(439,579,l),
(377,676,l),
(214,571,l),
(132,900,l),
(-54,900,l),
(54,468,l),
(-36,410,l),
(26,313,l),
(83,350,l),
(171,0,l)
);
}
);
width = 600;
},
{
background = {
shapes = (
{
closed = 1;
nodes = (
(615,0,l),
(678,252,l),
(438,252,l),
(599,900,l),
(305,900,l),
(81,0,l)
);
},
{
closed = 1;
nodes = (
(700,483,l),
(655,629,l),
(62,463,l),
(108,317,l)
);
}
);
};
guides = (
{
angle = 114.053;
pos = (69,438);
},
{
angle = 195.4132;
pos = (369,548);
}
);
layerId = "40756F1B-8CBD-42F6-8842-73C8ADC25AA8";
shapes = (
{
closed = 1;
nodes = (
(719,0,l),
(656,252,l),
(416,252,l),
(365,457,l),
(550,576,l),
(467,704,l),
(326,613,l),
(255,900,l),
(-39,900,l),
(73,451,l),
(-23,389,l),
(60,261,l),
(112,294,l),
(185,0,l)
);
}
);
width = 680;
}
);
unicode = 321;
},
{
color = 3;
glyphname = M;
kernLeft = B;
kernRight = H;
lastChange = "2024-02-17 22:45:18 +0000";
layers = (
{
guides = (
{
angle = 104.036;
pos = (136,300);
},
{
angle = 104.036;
pos = (180,300);
},
{
pos = (405,600);
},
{
pos = (1116,954);
},
{
angle = 226.7899;
pos = (548,302);
}
);
layerId = "ACBCE007-E73D-46AC-8E41-1CDF677894E7";
name = "Regular Italic";
shapes = (
{
closed = 1;
nodes = (
(255,0,l),
(110,570,ls),
(90,650,o),
(71,731,o),
(48,816,c),
(115,743,o),
(182,671,o),
(249,600,cs),
(518,315,l),
(655,600,ls),
(688,669,o),
(720,739,o),
(755,816,c),
(773,729,o),
(792,649,o),
(812,570,cs),
(957,0,l),
(999,0,l),
(766,930,l),
(764,930,l),
(506,387,l),
(-25,951,l),
(-27,951,l),
(211,0,l)
);
}
);
width = 1060;
},
{
background = {
shapes = (
{
closed = 1;
nodes = (
(228,0,l),
(228,674,l),
(120,948,l),
(120,0,l)
);
},
{
closed = 1;
nodes = (
(581,312,l),
(120,948,l),
(143,719,l),
(540,171,l)
);
},
{
closed = 1;
nodes = (
(540,171,l),
(929,720,l),
(960,948,l),
(508,312,l)
);
},
{
closed = 1;
nodes = (
(960,0,l),
(960,948,l),
(845,688,l),
(845,0,l)
);
}
);
};
guides = (
{
angle = 104.036;
pos = (126,300);
},
{
angle = 104.036;
pos = (234,300);
},
{
angle = 104.036;
pos = (840,300);
},
{
angle = 104.036;
pos = (954,300);
},
{
pos = (1116,954);
}
);
layerId = "AC72BC7B-7DA4-4629-8F76-12EBC1936C54";
name = "Regular Italic";
shapes = (
{
closed = 1;
nodes = (
(310,0,l),
(200,440,ls),
(188,489,o),
(174,545,o),
(151,616,c),
(203,554,o),
(248,508,o),
(287,467,cs),
(572,168,l),
(693,419,ls),
(717,470,o),
(745,530,o),
(773,616,c),
(786,521,o),
(803,451,o),
(818,392,cs),
(916,0,l),
(1030,0,l),
(805,906,l),
(803,906,l),
(539,353,l),
(-33,954,l),
(-35,954,l),
(202,0,l)
);
}
);
width = 1080;
},
{
background = {
shapes = (
{
closed = 1;
nodes = (
(214,0,l),
(214,416,ls),
(214,470,o),
(214,533,o),
(206,616,c),
(249,542,o),
(287,489,o),
(320,443,cs),
(520,168,l),
(714,443,ls),
(746,489,o),
(786,542,o),
(828,616,c),
(820,533,o),
(820,470,o),
(820,416,cs),
(820,0,l),
(934,0,l),
(934,930,l),
(524,354,l),
(106,930,l),
(106,0,l)
);
}
);
};
guides = (
{
angle = 104.036;
pos = (96,300);
},
{
angle = 104.036;
pos = (264,300);
},
{
angle = 104.036;
pos = (770,300);
},
{
angle = 104.036;
pos = (944,300);
}
);
layerId = "01A22628-B541-4374-9232-A2213F2D24BF";
shapes = (
{
closed = 1;
nodes = (
(339,0,l),
(268,282,ls),
(254,336,o),
(237,400,o),
(210,487,c),
(258,426,o),
(301,385,o),
(339,347,cs),
(564,125,l),
(652,299,ls),
(675,345,o),
(713,414,o),
(736,487,c),
(748,378,o),
(769,300,o),
(786,234,cs),
(845,0,l),
(1019,0,l),
(793,906,l),
(791,906,l),
(508,397,l),
(-65,954,l),
(-67,954,l),
(171,0,l)
);
}
);
width = 1040;
},
{
background = {
shapes = (
{
closed = 1;
nodes = (
(301,0,l),
(301,101,ls),
(301,160,o),
(301,234,o),
(286,342,c),
(320,284,o),
(368,224,o),
(394,194,cs),
(510,56,l),
(620,194,ls),
(648,229,o),
(684,268,o),
(722,336,c),
(708,231,o),
(708,158,o),
(708,101,cs),
(708,0,l),
(944,0,l),
(944,930,l),
(513,423,l),
(71,930,l),
(71,0,l)
);
}
);
};
guides = (
{
angle = -54.0503;
pos = (534,105);
},
{
angle = 54.05;
pos = (540,484);
}
);
layerId = "40756F1B-8CBD-42F6-8842-73C8ADC25AA8";
shapes = (
{
closed = 1;
nodes = (
(421,0,l),
(391,122,ls),
(376,182,o),
(358,253,o),
(326,340,c),
(384,276,o),
(436,226,o),
(478,187,cs),
(588,85,l),
(648,187,ls),
(670,225,o),
(696,276,o),
(722,340,c),
(734,253,o),
(752,182,o),
(767,122,cs),
(797,0,l),
(1095,0,l),
(871,900,l),
(703,900,l),
(507,484,l),
(103,900,l),
(-89,900,l),
(135,0,l)
);
}
);
width = 1080;
},
{
associatedMasterId = "40756F1B-8CBD-42F6-8842-73C8ADC25AA8";
background = {
shapes = (
{
closed = 1;
nodes = (
(301,0,l),
(301,101,ls),
(301,160,o),
(301,234,o),
(286,342,c),
(320,284,o),
(368,224,o),
(394,194,cs),
(510,56,l),
(620,194,ls),
(648,229,o),
(684,268,o),
(722,336,c),
(708,231,o),
(708,158,o),
(708,101,cs),
(708,0,l),
(944,0,l),
(944,930,l),
(513,423,l),
(71,930,l),
(71,0,l)
);
}
);
};
guides = (
{
angle = 133.0209;
pos = (310,731);
}
);
hints = (
{
horizontal = 1;
place = (0, 21);
target = up;
type = BottomGhost;
},
{
horizontal = 1;
place = (930, -20);
target = down;
type = TopGhost;
}
);
layerId = "4C2961EC-53AF-4F6C-B7D4-DA973E3D2224";
name = "4 Jan 24, 15:51";
shapes = (
{
closed = 1;
nodes = (
(333,0,l),
(333,162,ls),
(333,222,o),
(333,293,o),
(322,380,c),
(367,316,o),
(409,265,o),
(443,227,cs),
(534,125,l),
(625,227,ls),
(659,265,o),
(701,316,o),
(746,380,c),
(735,293,o),
(735,222,o),
(735,162,cs),
(735,0,l),
(1005,0,l),
(1005,978,l),
(1001,978,l),
(540,484,l),
(79,978,l),
(75,978,l),
(75,0,l)
);
}
);
width = 1080;
}
);
unicode = 77;
},
{
color = 3;
glyphname = N;
kernLeft = B;
kernRight = H;
lastChange = "2024-02-17 22:45:18 +0000";
layers = (
{
anchors = (
{
name = bottom;
pos = (560,0);
},
{
name = top;
pos = (335,900);
}
);
background = {
shapes = (
{
closed = 1;
nodes = (
(985,900,l),
(943,900,l),
(740,87,l),
(294,930,l),
(61,0,l),
(103,0,l),
(307,813,l),
(752,-30,l)
);
}
);
};
guides = (
{
angle = 104.036;
pos = (136,300);
},
{
angle = 104.036;
pos = (178,300);
},
{
angle = 104.036;
pos = (793,300);
},
{
angle = 104.036;
pos = (835,300);
}
);
layerId = "ACBCE007-E73D-46AC-8E41-1CDF677894E7";
shapes = (
{
closed = 1;
nodes = (
(917,-30,l),
(685,900,l),
(643,900,l),
(844,95,l),
(-19,930,l),
(-21,930,l),
(211,0,l),
(253,0,l),
(52,805,l),
(915,-30,l)
);
}
);
width = 970;
},
{
anchors = (
{
name = bottom;
pos = (555,60);
},
{
name = top;
pos = (360,840);
}
);
background = {
shapes = (
{
closed = 1;
nodes = (
(237,0,l),
(237,948,l),
(129,948,l),
(129,0,l)
);
},
{
closed = 1;
nodes = (
(1025,-34,l),
(129,948,l),
(-26,948,l),
(871,-34,l)
);
},
{
closed = 1;
nodes = (
(871,-34,l),
(871,914,l),
(763,914,l),
(763,-34,l)
);
}
);
};
guides = (
{
angle = 104.036;
pos = (126,300);
},
{
angle = 104.036;
pos = (234,300);
},
{
angle = 104.036;
pos = (757,300);
}
);
layerId = "AC72BC7B-7DA4-4629-8F76-12EBC1936C54";
shapes = (
{
closed = 1;
nodes = (
(947,-30,l),
(715,900,l),
(607,900,l),
(765,267,l),
(-29,930,l),
(-31,930,l),
(201,0,l),
(309,0,l),
(151,633,l),
(945,-30,l)
);
}
);
width = 990;
},
{
anchors = (
{
name = bottom;
pos = (585,60);
},
{
name = top;
pos = (292,840);
}
);
background = {
shapes = (
{
closed = 1;
nodes = (
(204,0,l),
(204,645,l),
(834,-30,l),
(834,900,l),
(726,900,l),
(726,255,l),
(96,930,l),
(96,0,l)
);
}
);
};
guides = (
{
angle = 104.036;
pos = (96,300);
},
{
angle = 104.036;
pos = (264,300);
},
{
angle = 125.044;
pos = (253,930);
},
{
angle = 104.036;
pos = (636,300);
},
{
angle = 104.036;
pos = (804,300);
}
);
layerId = "01A22628-B541-4374-9232-A2213F2D24BF";
shapes = (
{
closed = 1;
nodes = (
(887,-30,l),
(655,900,l),
(487,900,l),
(609,406,l),
(-59,930,l),
(-61,930,l),
(171,0,l),
(339,0,l),
(216,495,l),
(885,-30,l)
);
}
);
width = 900;
},
{
anchors = (
{
name = bottom;
pos = (588,30);
},
{
name = top;
pos = (288,870);
}
);
guides = (
{
angle = 133.0251;
pos = (578,521);
}
);
layerId = "40756F1B-8CBD-42F6-8842-73C8ADC25AA8";
shapes = (
{
closed = 1;
nodes = (
(935,0,l),
(711,900,l),
(429,900,l),
(523,521,l),
(81,900,l),
(-89,900,l),
(135,0,l),
(417,0,l),
(322,381,l),
(765,0,l)
);
}
);
width = 920;
},
{
anchors = (
{
name = bottom;
pos = (568,105);
},
{
name = top;
pos = (410,825);
}
);
associatedMasterId = "40756F1B-8CBD-42F6-8842-73C8ADC25AA8";
hints = (
{
horizontal = 1;
origin = (0,6);
target = up;
type = BottomGhost;
},
{
horizontal = 1;
origin = (0,2);
target = down;
type = TopGhost;
},
{
origin = (0,6);
target = (0,7);
type = Stem;
},
{
origin = (0,3);
target = (0,2);
type = Stem;
},
{
horizontal = 1;
origin = (0,9);
target = up;
type = BottomGhost;
},
{
horizontal = 1;
origin = (0,5);
target = down;
type = TopGhost;
}
);
layerId = "A661C2C3-53F0-438C-A1AC-5B383AC788E5";
name = "4 Jan 24, 15:51";
shapes = (
{
closed = 1;
nodes = (
(825,-48,l),
(825,900,l),
(567,900,l),
(567,521,l),
(79,948,l),
(75,948,l),
(75,0,l),
(333,0,l),
(333,381,l),
(821,-48,l)
);
}
);
width = 900;
}
);
unicode = 78;
},
{
color = 3;
glyphname = Eng;
kernLeft = B;
kernRight = H;
lastChange = "2024-02-24 10:04:00 +0000";
layers = (
{
anchors = (
{
name = bottom;
pos = (560,0);
},
{
name = top;
pos = (335,900);
}
);
background = {
shapes = (
{
closed = 1;
nodes = (
(869,-192,o),
(932,-96,o),
(895,56,cs),
(687,900,l),
(645,900,l),
(828,158,l),
(-18,930,l),
(211,0,l),
(253,0,l),
(54,809,l),
(845,87,l),
(852,59,ls),
(886,-76,o),
(837,-152,o),
(722,-152,cs),
(658,-152,o),
(602,-128,o),
(556,-80,c),
(554,-130,l),
(604,-170,o),
(668,-192,o),
(732,-192,cs)
);
}
);
};
guides = (
{
angle = 104.036;
pos = (136,300);
},
{
angle = 104.036;
pos = (178,300);
}
);
layerId = "ACBCE007-E73D-46AC-8E41-1CDF677894E7";
shapes = (
{
closed = 1;
nodes = (
(851,-192,o),
(930,-80,o),
(890,80,cs),
(685,900,l),
(643,900,l),
(828,158,l),
(-19,930,l),
(-21,930,l),
(211,0,l),
(253,0,l),
(52,805,l),
(845,87,l),
(850,69,ls),
(886,-62,o),
(823,-152,o),
(691,-152,cs),
(642,-152,o),
(597,-133,o),
(554,-93,c),
(554,-147,l),
(595,-176,o),
(646,-192,o),
(698,-192,cs)
);
}
);
width = 970;
},
{
anchors = (
{
name = bottom;
pos = (555,60);
},
{
name = top;
pos = (360,840);
}
);
background = {
shapes = (
{
closed = 1;
nodes = (
(630,-192,o),
(760,-114,o),
(804,61,cs),
(1014,900,l),
(906,900,l),
(744,255,l),
(283,930,l),
(51,0,l),
(159,0,l),
(321,645,l),
(702,86,l),
(700,76,ls),
(675,-48,o),
(598,-90,o),
(528,-90,cs),
(466,-90,o),
(424,-58,o),
(407,-6,c),
(344,-126,l),
(377,-174,o),
(440,-192,o),
(504,-192,cs)
);
}
);
};
guides = (
{
angle = 104.036;
pos = (126,300);
},
{
angle = 104.036;
pos = (864,300);
},
{
angle = 104.036;
pos = (757,300);
}
);
layerId = "AC72BC7B-7DA4-4629-8F76-12EBC1936C54";
shapes = (
{
closed = 1;
nodes = (
(871,-192,o),
(957,-72,o),
(913,105,cs),
(714,900,l),
(606,900,l),
(765,267,l),
(-29,930,l),
(-31,930,l),
(201,0,l),
(309,0,l),
(151,633,l),
(811,85,l),
(813,75,ls),
(833,-25,o),
(786,-90,o),
(694,-90,cs),
(638,-90,o),
(587,-66,o),
(550,-23,c),
(550,-145,l),
(592,-176,o),
(642,-192,o),
(703,-192,cs)
);
}
);
width = 990;
},
{
anchors = (
{
name = bottom;
pos = (606,-200);
},
{
name = top;
pos = (292,840);
}
);
background = {
anchors = (
{
name = bottom;
pos = (570,0);
},
{
name = top;
pos = (345,900);
}
);
shapes = (
{
closed = 1;
nodes = (
(805,-200,o),
(908,-117,o),
(861,71,cs),
(654,900,l),
(486,900,l),
(618,372,l),
(-61,930,l),
(171,0,l),
(339,0,l),
(214,503,l),
(682,118,l),
(685,103,ls),
(710,6,o),
(671,-32,o),
(609,-32,cs),
(557,-32,o),
(508,-6,o),
(472,34,c),
(467,-134,l),
(523,-179,o),
(600,-200,o),
(670,-200,cs)
);
}
);
};
guides = (
{
angle = 104.036;
pos = (96,300);
},
{
angle = 104.036;
pos = (804,300);
}
);
layerId = "01A22628-B541-4374-9232-A2213F2D24BF";
shapes = (
{
closed = 1;
nodes = (
(791,-200,o),
(895,-69,o),
(848,122,cs),
(655,900,l),
(487,900,l),
(609,406,l),
(-59,930,l),
(-61,930,l),
(171,0,l),
(339,0,l),
(216,495,l),
(677,134,l),
(682,115,ls),
(702,40,o),
(663,-32,o),
(571,-32,cs),
(525,-32,o),
(484,-15,o),
(451,18,c),
(451,-153,l),
(497,-185,o),
(547,-200,o),
(606,-200,cs)
);
}
);
width = 900;
},
{
anchors = (
{
name = bottom;
pos = (535,0);
},
{
name = top;
pos = (311,900);
}
);
background = {
shapes = (
{
closed = 1;
nodes = (
(617,-200,o),
(764,-81,o),
(811,104,cs),
(1009,900,l),
(727,900,l),
(633,521,l),
(371,900,l),
(209,900,l),
(-15,0,l),
(267,0,l),
(362,381,l),
(533,130,l),
(532,124,ls),
(522,85,o),
(485,58,o),
(449,58,cs),
(409,58,o),
(388,73,o),
(374,102,c),
(247,-134,l),
(284,-176,o),
(348,-200,o),
(433,-200,cs)
);
}
);
};
layerId = "40756F1B-8CBD-42F6-8842-73C8ADC25AA8";
shapes = (
{
closed = 1;
nodes = (
(864,-200,o),
(948,-50,o),
(900,144,cs),
(711,900,l),
(429,900,l),
(523,521,l),
(73,900,l),
(-89,900,l),
(135,0,l),
(417,0,l),
(322,381,l),
(619,130,l),
(621,122,ls),
(630,86,o),
(617,53,o),
(556,53,cs),
(521,53,o),
(493,64,o),
(468,87,c),
(468,-154,l),
(517,-184,o),
(569,-200,o),
(640,-200,cs)
);
}
);
width = 920;
}
);
unicode = 330;
},
{
color = 3;
glyphname = O;
kernLeft = C;
kernRight = D;
lastChange = "2024-03-04 21:59:56 +0000";
layers = (
{
anchors = (
{
name = bottom;
pos = (595,0);
},
{
name = center;
pos = (483,450);
},
{
name = ogonek;
pos = (576,0);
},
{
name = top;
pos = (370,900);
},
{
name = "top-vertical";
pos = (460,540);
},
{
name = topleft;
pos = (197,900);
},
{
name = topright;
pos = (824,900);
}
);
guides = (
{
angle = 104.036;
pos = (66,300);
},
{
angle = 104.036;
pos = (974,300);
}
);
layerId = "ACBCE007-E73D-46AC-8E41-1CDF677894E7";
shapes = (
{
closed = 1;
nodes = (
(760,-12,o),
(936,165,o),
(936,395,cs),
(936,665,o),
(691,912,o),
(427,912,cs),
(205,912,o),
(29,736,o),
(29,506,cs),
(29,235,o),
(275,-12,o),
(537,-12,cs)
);
},
{
closed = 1;
nodes = (
(298,30,o),
(75,256,o),
(75,504,cs),
(75,712,o),
(232,870,o),
(430,870,cs),
(668,870,o),
(890,643,o),
(890,394,cs),
(890,186,o),
(735,30,o),
(535,30,cs)
);
}
);
width = 1040;
},
{
anchors = (
{
name = bottom;
pos = (604,0);
},
{
name = center;
pos = (493,450);
},
{
name = ogonek;
pos = (634,0);
},
{
name = top;
pos = (382,900);
},
{
name = "top-vertical";
pos = (478,510);
},
{
name = topleft;
pos = (134,900);
},
{
name = topright;
pos = (850,900);
}
);
background = {
shapes = (
{
closed = 1;
nodes = (
(712,-18,o),
(973,191,o),
(1037,450,cs),
(1101,709,o),
(942,918,o),
(682,918,cs),
(422,918,o),
(161,709,o),
(97,450,cs),
(33,191,o),
(192,-18,o),
(452,-18,cs)
);
},
{
closed = 1;
nodes = (
(280,90,o),
(166,251,o),
(215,450,cs),
(264,649,o),
(458,810,o),
(656,810,cs),
(854,810,o),
(968,649,o),
(919,450,cs),
(870,251,o),
(676,90,o),
(478,90,cs)
);
}
);
};
guides = (
{
angle = 104.036;
pos = (60,300);
},
{
angle = 104.036;
pos = (1000,300);
}
);
layerId = "AC72BC7B-7DA4-4629-8F76-12EBC1936C54";
shapes = (
{
closed = 1;
nodes = (
(782,-18,o),
(962,162,o),
(962,395,cs),
(962,669,o),
(713,918,o),
(438,918,cs),
(204,918,o),
(24,738,o),
(24,505,cs),
(24,231,o),
(273,-18,o),
(548,-18,cs)
);
},
{
closed = 1;
nodes = (
(330,90,o),
(142,284,o),
(142,497,cs),
(142,675,o),
(275,810,o),
(449,810,cs),
(656,810,o),
(844,616,o),
(844,403,cs),
(844,225,o),
(711,90,o),
(537,90,cs)
);
}
);
width = 1060;
},
{
anchors = (
{
name = bottom;
pos = (605,0);
},
{
name = center;
pos = (493,450);
},
{
name = ogonek;
pos = (635,0);
},
{
name = top;
pos = (381,900);
},
{
name = "top-vertical";
pos = (486,480);
},
{
name = topleft;
pos = (-89,900);
},
{
name = topright;
pos = (851,900);
}
);
background = {
shapes = (
{
closed = 1;
nodes = (
(716,-18,o),
(980,191,o),
(1044,450,cs),
(1108,709,o),
(946,918,o),
(683,918,cs),
(420,918,o),
(156,709,o),
(92,450,cs),
(28,191,o),
(190,-18,o),
(453,-18,cs)
);
},
{
closed = 1;
nodes = (
(334,156,o),
(240,287,o),
(280,450,cs),
(320,613,o),
(478,744,o),
(640,744,cs),
(802,744,o),
(896,613,o),
(856,450,cs),
(816,287,o),
(658,156,o),
(496,156,cs)
);
}
);
};
guides = (
{
angle = 104.036;
pos = (54,300);
},
{
angle = 104.036;
pos = (1006,300);
}
);
layerId = "01A22628-B541-4374-9232-A2213F2D24BF";
shapes = (
{
closed = 1;
nodes = (
(786,-18,o),
(968,163,o),
(968,396,cs),
(968,670,o),
(718,918,o),
(439,918,cs),
(200,918,o),
(18,736,o),
(18,503,cs),
(18,230,o),
(267,-18,o),
(547,-18,cs)
);
},
{
closed = 1;
nodes = (
(358,156,o),
(208,315,o),
(208,489,cs),
(208,634,o),
(315,744,o),
(458,744,cs),
(627,744,o),
(778,586,o),
(778,413,cs),
(778,268,o),
(669,156,o),
(527,156,cs)
);
}
);
width = 1060;
},
{
anchors = (
{
name = bottom;
pos = (595,0);
},
{
name = center;
pos = (483,450);
},
{
name = ogonek;
pos = (533,0);
},
{
name = top;
pos = (371,900);
},
{
name = "top-vertical";
pos = (483,450);
},
{
name = topleft;
pos = (841,900);
},
{
name = topright;
pos = (-99,900);
}
);
background = {
shapes = (
{
closed = 1;
nodes = (
(710,-20,o),
(974,189,o),
(1039,450,cs),
(1104,710,o),
(944,920,o),
(674,920,cs),
(404,920,o),
(140,710,o),
(75,450,cs),
(10,189,o),
(170,-20,o),
(440,-20,cs)
);
},
{
closed = 1;
nodes = (
(409,268,o),
(348,350,o),
(373,450,cs),
(398,550,o),
(499,632,o),
(602,632,cs),
(705,632,o),
(766,550,o),
(741,450,cs),
(716,350,o),
(615,268,o),
(512,268,cs)
);
}
);
};
guides = (
{
angle = 104.036;
pos = (38,300);
},
{
angle = 104.036;
pos = (1002,300);
},
{
angle = 104.036;
pos = (336,300);
}
);
layerId = "40756F1B-8CBD-42F6-8842-73C8ADC25AA8";
shapes = (
{
closed = 1;
nodes = (
(780,-17,o),
(963,159,o),
(963,397,cs),
(963,675,o),
(714,917,o),
(428,917,cs),
(184,917,o),
(2,741,o),
(2,503,cs),
(2,226,o),
(250,-17,o),
(536,-17,cs)
);
},
{
closed = 1;
nodes = (
(395,268,o),
(298,364,o),
(298,472,cs),
(298,564,o),
(368,632,o),
(462,632,cs),
(571,632,o),
(667,536,o),
(667,428,cs),
(667,336,o),
(597,268,o),
(503,268,cs)
);
}
);
width = 1040;
}
);
unicode = 79;
},
{
color = 3;
glyphname = Ohorn;
kernLeft = C;
kernRight = Ohorn;
lastChange = "2024-02-26 20:34:25 +0000";
layers = (
{
anchors = (
{
name = bottom;
pos = (595,0);
},
{
name = top;
pos = (370,900);
}
);
background = {
shapes = (
{
closed = 1;
nodes = (
(848,-12,o),
(1000,194,o),
(937,450,cs),
(912,553,o),
(855,648,o),
(781,724,c),
(830,740,o),
(860,788,o),
(840,868,cs),
(834,893,o),
(820,927,o),
(795,960,c),
(752,960,l),
(782,927,o),
(795,895,o),
(802,868,cs),
(820,795,o),
(793,761,o),
(749,756,c),
(642,852,o),
(505,912,o),
(369,912,cs),
(118,912,o),
(-34,706,o),
(29,450,cs),
(92,194,o),
(346,-12,o),
(597,-12,cs)
);
},
{
closed = 1;
nodes = (
(357,30,o),
(132,218,o),
(75,450,cs),
(18,682,o),
(151,870,o),
(380,870,cs),
(610,870,o),
(834,682,o),
(891,450,cs),
(948,218,o),
(816,30,o),
(586,30,cs)
);
}
);
};
guides = (
{
angle = 104.036;
pos = (66,300);
},
{
angle = 104.036;
pos = (974,300);
}
);
layerId = "ACBCE007-E73D-46AC-8E41-1CDF677894E7";
shapes = (
{
closed = 1;
nodes = (
(760,-12,o),
(936,165,o),
(936,395,cs),
(936,525,o),
(879,650,o),
(790,745,c),
(816,764,o),
(834,796,o),
(834,840,cs),
(834,882,o),
(819,924,o),
(794,960,c),
(750,960,l),
(788,918,o),
(796,864,o),
(796,839,cs),
(796,809,o),
(784,785,o),
(764,771,c),
(672,857,o),
(551,912,o),
(427,912,cs),
(205,912,o),
(29,736,o),
(29,506,cs),
(29,235,o),
(275,-12,o),
(537,-12,cs)
);
},
{
closed = 1;
nodes = (
(298,30,o),
(75,256,o),
(75,504,cs),
(75,712,o),
(232,870,o),
(430,870,cs),
(668,870,o),
(890,643,o),
(890,394,cs),
(890,186,o),
(735,30,o),
(535,30,cs)
);
}
);
width = 1040;
},
{
anchors = (
{
name = bottom;
pos = (605,0);
},
{
name = top;
pos = (380,900);
}
);
guides = (
{
angle = 104.036;
pos = (60,300);
},
{
angle = 104.036;
pos = (1000,300);
}
);
layerId = "AC72BC7B-7DA4-4629-8F76-12EBC1936C54";
shapes = (
{
closed = 1;
nodes = (
(782,-18,o),
(962,162,o),
(962,395,cs),
(962,521,o),
(910,641,o),
(826,735,c),
(850,759,o),
(865,793,o),
(865,836,cs),
(865,871,o),
(857,917,o),
(825,960,c),
(728,960,l),
(752,929,o),
(773,884,o),
(773,847,cs),
(773,827,o),
(767,811,o),
(758,800,c),
(668,873,o),
(555,918,o),
(438,918,cs),
(204,918,o),
(24,738,o),
(24,505,cs),
(24,231,o),
(273,-18,o),
(548,-18,cs)
);
},
{
closed = 1;
nodes = (
(330,90,o),
(142,284,o),
(142,497,cs),
(142,675,o),
(275,810,o),
(449,810,cs),
(656,810,o),
(844,616,o),
(844,403,cs),
(844,225,o),
(711,90,o),
(537,90,cs)
);
}
);
width = 1060;
},
{
anchors = (
{
name = bottom;
pos = (606,0);
},
{
name = top;
pos = (381,900);
}
);
background = {
shapes = (
{
closed = 1;
nodes = (
(786,-18,o),
(968,163,o),
(968,396,cs),
(968,670,o),
(718,918,o),
(439,918,cs),
(200,918,o),
(18,736,o),
(18,503,cs),
(18,230,o),
(267,-18,o),
(547,-18,cs)
);
},
{
closed = 1;
nodes = (
(358,156,o),
(208,315,o),
(208,489,cs),
(208,634,o),
(315,744,o),
(458,744,cs),
(627,744,o),
(778,586,o),
(778,413,cs),
(778,268,o),
(669,156,o),
(527,156,cs)
);
}
);
};
guides = (
{
angle = 104.036;
pos = (54,300);
},
{
angle = 104.036;
pos = (1006,300);
}
);
layerId = "01A22628-B541-4374-9232-A2213F2D24BF";
shapes = (
{
closed = 1;
nodes = (
(786,-18,o),
(968,163,o),
(968,396,cs),
(968,515,o),
(921,628,o),
(845,719,c),
(873,744,o),
(891,781,o),
(891,829,cs),
(891,869,o),
(881,917,o),
(848,960,c),
(696,960,l),
(726,926,o),
(750,879,o),
(750,842,cs),
(750,832,o),
(748,822,o),
(744,815,c),
(656,879,o),
(550,918,o),
(439,918,cs),
(200,918,o),
(18,736,o),
(18,503,cs),
(18,230,o),
(267,-18,o),
(547,-18,cs)
);
},
{
closed = 1;
nodes = (
(358,156,o),
(208,315,o),
(208,489,cs),
(208,634,o),
(315,744,o),
(458,744,cs),
(627,744,o),
(778,586,o),
(778,413,cs),
(778,268,o),
(669,156,o),
(527,156,cs)
);
}
);
width = 1060;
},
{
anchors = (
{
name = bottom;
pos = (598,0);
},
{
name = top;
pos = (374,900);
}
);
background = {
anchors = (
{
name = bottom;
pos = (598,0);
},
{
name = top;
pos = (374,900);
}
);
shapes = (
{
closed = 1;
nodes = (
(870,-20,o),
(1030,189,o),
(965,450,cs),
(945,531,o),
(906,607,o),
(852,673,c),
(908,701,o),
(934,765,o),
(912,853,cs),
(901,898,o),
(889,928,o),
(862,960,c),
(665,960,l),
(691,927,o),
(705,891,o),
(711,868,cs),
(718,840,o),
(709,823,o),
(696,816,c),
(596,881,o),
(482,920,o),
(366,920,cs),
(96,920,o),
(-64,710,o),
(1,450,cs),
(66,189,o),
(330,-20,o),
(600,-20,cs)
);
},
{
closed = 1;
nodes = (
(425,268,o),
(324,350,o),
(299,450,cs),
(274,550,o),
(335,632,o),
(438,632,cs),
(541,632,o),
(642,550,o),
(667,450,cs),
(692,350,o),
(631,268,o),
(528,268,cs)
);
}
);
};
layerId = "40756F1B-8CBD-42F6-8842-73C8ADC25AA8";
shapes = (
{
closed = 1;
nodes = (
(780,-17,o),
(963,159,o),
(963,397,cs),
(963,505,o),
(926,607,o),
(863,692,c),
(894,720,o),
(915,762,o),
(915,815,cs),
(915,869,o),
(896,918,o),
(861,960,c),
(672,960,l),
(694,933,o),
(721,880,o),
(721,849,cs),
(721,841,o),
(719,835,o),
(717,830,c),
(632,885,o),
(533,917,o),
(428,917,cs),
(184,917,o),
(2,741,o),
(2,503,cs),
(2,226,o),
(250,-17,o),
(536,-17,cs)
);
},
{
closed = 1;
nodes = (
(395,268,o),
(298,364,o),
(298,472,cs),
(298,564,o),
(368,632,o),
(462,632,cs),
(571,632,o),
(667,536,o),
(667,428,cs),
(667,336,o),
(597,268,o),
(503,268,cs)
);
}
);
width = 1050;
}
);
unicode = 416;
},
{
color = 3;
glyphname = Oogonek;
kernLeft = C;
kernRight = D;
lastChange = "2024-02-26 20:34:18 +0000";
layers = (
{
anchors = (
{
name = top;
pos = (370,900);
}
);
layerId = "ACBCE007-E73D-46AC-8E41-1CDF677894E7";
shapes = (
{
closed = 1;
nodes = (
(686,-244,l),
(607,-244,o),
(553,-191,o),
(553,-114,cs),
(553,-80,o),
(565,-45,o),
(591,-8,c),
(788,17,o),
(936,184,o),
(936,395,cs),
(936,665,o),
(691,912,o),
(427,912,cs),
(205,912,o),
(29,736,o),
(29,506,cs),
(29,235,o),
(275,-12,o),
(547,-12,c),
(524,-50,o),
(513,-86,o),
(513,-122,cs),
(513,-214,o),
(584,-280,o),
(686,-282,c)
);
},
{
closed = 1;
nodes = (
(298,30,o),
(75,256,o),
(75,504,cs),
(75,712,o),
(232,870,o),
(430,870,cs),
(668,870,o),
(890,643,o),
(890,394,cs),
(890,186,o),
(735,30,o),
(535,30,cs)
);
}
);
width = 1040;
},
{
anchors = (
{
name = top;
pos = (380,900);
}
);
layerId = "AC72BC7B-7DA4-4629-8F76-12EBC1936C54";
shapes = (
{
closed = 1;
nodes = (
(715,-219,l),
(646,-219,o),
(606,-184,o),
(606,-121,cs),
(606,-67,o),
(636,-27,o),
(684,4,c),
(848,58,o),
(962,210,o),
(962,395,cs),
(962,669,o),
(713,918,o),
(438,918,cs),
(204,918,o),
(24,738,o),
(24,505,cs),
(24,231,o),
(273,-18,o),
(552,-18,c),
(528,-54,o),
(513,-95,o),
(513,-138,cs),
(513,-238,o),
(599,-312,o),
(715,-312,c)
);
},
{
closed = 1;
nodes = (
(330,90,o),
(142,284,o),
(142,497,cs),
(142,675,o),
(275,810,o),
(449,810,cs),
(656,810,o),
(844,616,o),
(844,403,cs),
(844,225,o),
(711,90,o),
(537,90,cs)
);
}
);
width = 1060;
},
{
anchors = (
{
name = top;
pos = (380,900);
}
);
layerId = "01A22628-B541-4374-9232-A2213F2D24BF";
shapes = (
{
closed = 1;
nodes = (
(737,-188,l),
(682,-186,o),
(644,-154,o),
(644,-105,cs),
(644,-56,o),
(671,-18,o),
(706,11,c),
(862,71,o),
(968,219,o),
(968,396,cs),
(968,670,o),
(718,918,o),
(439,918,cs),
(200,918,o),
(18,736,o),
(18,503,cs),
(18,231,o),
(265,-16,o),
(543,-18,c),
(508,-59,o),
(497,-101,o),
(497,-139,cs),
(497,-249,o),
(589,-318,o),
(737,-318,c)
);
},
{
closed = 1;
nodes = (
(358,156,o),
(208,315,o),
(208,489,cs),
(208,634,o),
(315,744,o),
(458,744,cs),
(627,744,o),
(778,586,o),
(778,413,cs),
(778,268,o),
(669,156,o),
(527,156,cs)
);
}
);
width = 1060;
},
{
anchors = (
{
name = top;
pos = (520,900);
}
);
layerId = "40756F1B-8CBD-42F6-8842-73C8ADC25AA8";
shapes = (
{
closed = 1;
nodes = (
(740,-124,l),
(701,-121,o),
(667,-90,o),
(667,-49,cs),
(667,-29,o),
(675,-6,o),
(697,11,c),
(856,70,o),
(963,216,o),
(963,397,cs),
(963,675,o),
(714,917,o),
(428,917,cs),
(184,917,o),
(2,741,o),
(2,503,cs),
(2,267,o),
(182,55,o),
(413,-2,c),
(395,-36,o),
(388,-62,o),
(388,-95,cs),
(388,-225,o),
(504,-290,o),
(740,-290,c)
);
},
{
closed = 1;
nodes = (
(395,268,o),
(298,364,o),
(298,472,cs),
(298,564,o),
(368,632,o),
(462,632,cs),
(571,632,o),
(667,536,o),
(667,428,cs),
(667,336,o),
(597,268,o),
(503,268,cs)
);
}
);
width = 1040;
}
);
unicode = 490;
},
{
color = 3;
glyphname = Oslash;
kernLeft = C;
kernRight = D;
lastChange = "2024-02-26 20:34:14 +0000";
layers = (
{
anchors = (
{
name = bottom;
pos = (597,0);
},
{
name = top;
pos = (370,900);
}
);
layerId = "ACBCE007-E73D-46AC-8E41-1CDF677894E7";
shapes = (
{
closed = 1;
nodes = (
(760,-12,o),
(936,165,o),
(936,395,cs),
(936,571,o),
(832,737,o),
(686,832,c),
(747,959,l),
(713,976,l),
(653,851,l),
(584,890,o),
(506,912,o),
(427,912,cs),
(205,912,o),
(29,736,o),
(29,506,cs),
(29,329,o),
(134,162,o),
(280,68,c),
(219,-59,l),
(253,-76,l),
(312,48,l),
(382,10,o),
(459,-12,o),
(537,-12,cs)
);
},
{
closed = 1;
nodes = (
(168,193,o),
(75,344,o),
(75,504,cs),
(75,712,o),
(232,870,o),
(430,870,cs),
(502,870,o),
(572,849,o),
(635,814,c),
(298,106,l)
);
},
{
closed = 1;
nodes = (
(464,30,o),
(393,51,o),
(330,86,c),
(668,793,l),
(798,706,o),
(890,555,o),
(890,394,cs),
(890,186,o),
(735,30,o),
(535,30,cs)
);
}
);
width = 1040;
},
{
anchors = (
{
name = bottom;
pos = (456,0);
},
{
name = top;
pos = (380,900);
}
);
layerId = "AC72BC7B-7DA4-4629-8F76-12EBC1936C54";
shapes = (
{
closed = 1;
nodes = (
(782,-18,o),
(962,162,o),
(962,395,cs),
(962,541,o),
(892,679,o),
(784,777,c),
(841,858,l),
(765,911,l),
(711,834,l),
(630,887,o),
(536,918,o),
(438,918,cs),
(204,918,o),
(24,738,o),
(24,505,cs),
(24,356,o),
(98,214,o),
(209,116,c),
(148,28,l),
(224,-25,l),
(284,61,l),
(363,11,o),
(454,-18,o),
(548,-18,cs)
);
},
{
closed = 1;
nodes = (
(193,280,o),
(142,386,o),
(142,497,cs),
(142,675,o),
(275,810,o),
(449,810,cs),
(521,810,o),
(590,787,o),
(651,747,c),
(271,204,l)
);
},
{
closed = 1;
nodes = (
(469,90,o),
(402,111,o),
(344,147,c),
(722,688,l),
(796,613,o),
(844,510,o),
(844,403,cs),
(844,225,o),
(711,90,o),
(537,90,cs)
);
}
);
width = 1060;
},
{
anchors = (
{
name = _center;
pos = (543,457);
},
{
name = bottom;
pos = (543,0);
},
{
name = center;
pos = (543,457);
},
{
name = ogonek;
pos = (977,10);
},
{
name = top;
pos = (543,914);
},
{
name = topleft;
pos = (19,914);
},
{
name = topright;
pos = (1066,914);
}
);
associatedMasterId = "AC72BC7B-7DA4-4629-8F76-12EBC1936C54";
background = {
shapes = (
{
closed = 1;
nodes = (
(805,-17,o),
(1017,195,o),
(1017,457,cs),
(1017,719,o),
(805,931,o),
(543,931,cs),
(281,931,o),
(69,719,o),
(69,457,cs),
(69,195,o),
(281,-17,o),
(543,-17,cs)
);
},
{
closed = 1;
nodes = (
(342,91,o),
(186,255,o),
(186,457,cs),
(186,659,o),
(342,823,o),
(543,823,cs),
(744,823,o),
(900,659,o),
(900,457,cs),
(900,255,o),
(744,91,o),
(543,91,cs)
);
},
{
closed = 1;
nodes = (
(215,-13,l),
(949,862,l),
(870,927,l),
(136,52,l)
);
}
);
};
guides = (
{
angle = 50;
pos = (611,444);
},
{
angle = 230;
pos = (530,516);
}
);
hints = (
{
horizontal = 1;
origin = (0,24);
target = (2,9);
type = Stem;
},
{
horizontal = 1;
origin = (0,8);
target = (1,2);
type = Stem;
},
{
origin = (0,11);
target = (1,9);
type = Stem;
},
{
origin = (2,6);
target = (0,27);
type = Stem;
}
);
layerId = "884A223D-98AD-4346-9805-AD673358EFC3";
name = "Oct 26 19, 10:49";
shapes = (
{
closed = 1;
nodes = (
(979,901,l),
(989,828,l),
(830,961,l),
(907,966,l),
(777,812,l),
(833,832,l),
(753,894,o),
(652,931,o),
(543,931,cs),
(281,931,o),
(69,719,o),
(69,457,cs),
(69,317,o),
(129,192,o),
(224,105,c),
(237,168,l),
(107,13,l),
(96,86,l),
(255,-47,l),
(178,-52,l),
(308,102,l),
(252,82,l),
(332,20,o),
(433,-17,o),
(543,-17,cs),
(805,-17,o),
(1017,195,o),
(1017,457,cs),
(1017,597,o),
(956,722,o),
(862,809,c),
(848,746,l)
);
},
{
closed = 1;
nodes = (
(186,659,o),
(342,823,o),
(543,823,cs),
(614,823,o),
(680,802,o),
(735,766,c),
(273,216,l),
(218,280,o),
(186,365,o),
(186,457,cs)
);
},
{
closed = 1;
nodes = (
(471,91,o),
(406,112,o),
(350,148,c),
(812,698,l),
(867,634,o),
(900,549,o),
(900,457,cs),
(900,255,o),
(744,91,o),
(543,91,cs)
);
}
);
width = 1085;
},
{
anchors = (
{
name = _center;
pos = (543,457);
},
{
name = bottom;
pos = (543,0);
},
{
name = center;
pos = (543,457);
},
{
name = ogonek;
pos = (977,10);
},
{
name = top;
pos = (543,914);
},
{
name = topleft;
pos = (19,914);
},
{
name = topright;
pos = (1066,914);
}
);
associatedMasterId = "AC72BC7B-7DA4-4629-8F76-12EBC1936C54";
background = {
shapes = (
{
closed = 1;
nodes = (
(805,-17,o),
(1017,195,o),
(1017,457,cs),
(1017,719,o),
(805,931,o),
(543,931,cs),
(281,931,o),
(69,719,o),
(69,457,cs),
(69,195,o),
(281,-17,o),
(543,-17,cs)
);
},
{
closed = 1;
nodes = (
(342,91,o),
(186,255,o),
(186,457,cs),
(186,659,o),
(342,823,o),
(543,823,cs),
(744,823,o),
(900,659,o),
(900,457,cs),
(900,255,o),
(744,91,o),
(543,91,cs)
);
},
{
closed = 1;
nodes = (
(215,-13,l),
(949,862,l),
(870,927,l),
(136,52,l)
);
}
);
};
guides = (
{
angle = 50;
pos = (611,444);
},
{
angle = 230;
pos = (530,516);
}
);
hints = (
{
horizontal = 1;
origin = (0,24);
target = (2,11);
type = Stem;
},
{
horizontal = 1;
origin = (0,8);
target = (1,2);
type = Stem;
},
{
origin = (0,11);
target = (1,11);
type = Stem;
},
{
origin = (2,8);
target = (0,27);
type = Stem;
}
);
layerId = "8860F5B7-6135-4D22-8C03-04789F9C35B4";
name = "Oct 26 19, 10:51";
shapes = (
{
closed = 1;
nodes = (
(979,901,l),
(989,828,l),
(830,961,l),
(907,966,l),
(777,812,l),
(833,832,l),
(753,894,o),
(652,931,o),
(543,931,cs),
(281,931,o),
(69,719,o),
(69,457,cs),
(69,317,o),
(129,192,o),
(224,105,c),
(237,168,l),
(107,13,l),
(96,86,l),
(255,-47,l),
(178,-52,l),
(308,102,l),
(252,82,l),
(332,20,o),
(433,-17,o),
(543,-17,cs),
(805,-17,o),
(1017,195,o),
(1017,457,cs),
(1017,597,o),
(956,722,o),
(862,809,c),
(848,746,l)
);
},
{
closed = 1;
nodes = (
(186,659,o),
(342,823,o),
(543,823,cs),
(626,823,o),
(702,794,o),
(762,747,c),
(770,804,l),
(242,175,l),
(296,192,l),
(227,258,o),
(186,352,o),
(186,457,cs)
);
},
{
closed = 1;
nodes = (
(459,91,o),
(384,120,o),
(324,167,c),
(315,110,l),
(844,739,l),
(789,722,l),
(859,656,o),
(900,562,o),
(900,457,cs),
(900,255,o),
(744,91,o),
(543,91,cs)
);
}
);
width = 1085;
},
{
anchors = (
{
name = bottom;
pos = (605,0);
},
{
name = top;
pos = (380,900);
}
);
layerId = "01A22628-B541-4374-9232-A2213F2D24BF";
shapes = (
{
closed = 1;
nodes = (
(786,-18,o),
(968,163,o),
(968,396,cs),
(968,530,o),
(909,657,o),
(815,753,c),
(898,852,l),
(813,920,l),
(732,823,l),
(647,882,o),
(545,918,o),
(439,918,cs),
(200,918,o),
(18,736,o),
(18,503,cs),
(18,370,o),
(77,243,o),
(170,147,c),
(88,48,l),
(173,-20,l),
(254,77,l),
(339,18,o),
(441,-18,o),
(547,-18,cs)
);
},
{
closed = 1;
nodes = (
(236,340,o),
(208,413,o),
(208,489,cs),
(208,634,o),
(315,744,o),
(458,744,cs),
(517,744,o),
(574,725,o),
(623,692,c),
(283,282,l)
);
},
{
closed = 1;
nodes = (
(468,156,o),
(411,175,o),
(363,208,c),
(704,618,l),
(750,560,o),
(778,488,o),
(778,413,cs),
(778,268,o),
(669,156,o),
(527,156,cs)
);
}
);
width = 1060;
},
{
anchors = (
{
name = _center;
pos = (543,457);
},
{
name = bottom;
pos = (543,0);
},
{
name = center;
pos = (543,457);
},
{
name = ogonek;
pos = (977,10);
},
{
name = top;
pos = (543,914);
},
{
name = topleft;
pos = (19,914);
},
{
name = topright;
pos = (1066,914);
}
);
associatedMasterId = "01A22628-B541-4374-9232-A2213F2D24BF";
background = {
shapes = (
{
closed = 1;
nodes = (
(805,-17,o),
(1017,195,o),
(1017,457,cs),
(1017,719,o),
(805,931,o),
(543,931,cs),
(281,931,o),
(69,719,o),
(69,457,cs),
(69,195,o),
(281,-17,o),
(543,-17,cs)
);
},
{
closed = 1;
nodes = (
(342,91,o),
(186,255,o),
(186,457,cs),
(186,659,o),
(342,823,o),
(543,823,cs),
(744,823,o),
(900,659,o),
(900,457,cs),
(900,255,o),
(744,91,o),
(543,91,cs)
);
},
{
closed = 1;
nodes = (
(215,-13,l),
(949,862,l),
(870,927,l),
(136,52,l)
);
}
);
};
guides = (
{
angle = 50;
pos = (611,444);
},
{
angle = 230;
pos = (530,516);
}
);
hints = (
{
horizontal = 1;
origin = (0,24);
target = (2,9);
type = Stem;
},
{
horizontal = 1;
origin = (0,8);
target = (1,2);
type = Stem;
},
{
origin = (0,11);
target = (1,9);
type = Stem;
},
{
origin = (2,6);
target = (0,27);
type = Stem;
}
);
layerId = "907CBF19-0EBC-47D6-866A-97AB6CB6A7FB";
name = "Oct 26 19, 10:49";
shapes = (
{
closed = 1;
nodes = (
(979,901,l),
(989,828,l),
(830,961,l),
(907,966,l),
(777,812,l),
(833,832,l),
(753,894,o),
(652,931,o),
(543,931,cs),
(281,931,o),
(69,719,o),
(69,457,cs),
(69,317,o),
(129,192,o),
(224,105,c),
(237,168,l),
(107,13,l),
(96,86,l),
(255,-47,l),
(178,-52,l),
(308,102,l),
(252,82,l),
(332,20,o),
(433,-17,o),
(543,-17,cs),
(805,-17,o),
(1017,195,o),
(1017,457,cs),
(1017,597,o),
(956,722,o),
(862,809,c),
(848,746,l)
);
},
{
closed = 1;
nodes = (
(186,659,o),
(342,823,o),
(543,823,cs),
(614,823,o),
(680,802,o),
(735,766,c),
(273,216,l),
(218,280,o),
(186,365,o),
(186,457,cs)
);
},
{
closed = 1;
nodes = (
(471,91,o),
(406,112,o),
(350,148,c),
(812,698,l),
(867,634,o),
(900,549,o),
(900,457,cs),
(900,255,o),
(744,91,o),
(543,91,cs)
);
}
);
width = 1085;
},
{
anchors = (
{
name = _center;
pos = (543,457);
},
{
name = bottom;
pos = (543,0);
},
{
name = center;
pos = (543,457);
},
{
name = ogonek;
pos = (977,10);
},
{
name = top;
pos = (543,914);
},
{
name = topleft;
pos = (19,914);
},
{
name = topright;
pos = (1066,914);
}
);
associatedMasterId = "01A22628-B541-4374-9232-A2213F2D24BF";
background = {
shapes = (
{
closed = 1;
nodes = (
(805,-17,o),
(1017,195,o),
(1017,457,cs),
(1017,719,o),
(805,931,o),
(543,931,cs),
(281,931,o),
(69,719,o),
(69,457,cs),
(69,195,o),
(281,-17,o),
(543,-17,cs)
);
},
{
closed = 1;
nodes = (
(342,91,o),
(186,255,o),
(186,457,cs),
(186,659,o),
(342,823,o),
(543,823,cs),
(744,823,o),
(900,659,o),
(900,457,cs),
(900,255,o),
(744,91,o),
(543,91,cs)
);
},
{
closed = 1;
nodes = (
(215,-13,l),
(949,862,l),
(870,927,l),
(136,52,l)
);
}
);
};
guides = (
{
angle = 50;
pos = (611,444);
},
{
angle = 230;
pos = (530,516);
}
);
hints = (
{
horizontal = 1;
origin = (0,24);
target = (2,11);
type = Stem;
},
{
horizontal = 1;
origin = (0,8);
target = (1,2);
type = Stem;
},
{
origin = (0,11);
target = (1,11);
type = Stem;
},
{
origin = (2,8);
target = (0,27);
type = Stem;
}
);
layerId = "97B44D5F-9D6D-4B2F-A322-790E63175B37";
name = "Oct 26 19, 10:51";
shapes = (
{
closed = 1;
nodes = (
(979,901,l),
(989,828,l),
(830,961,l),
(907,966,l),
(777,812,l),
(833,832,l),
(753,894,o),
(652,931,o),
(543,931,cs),
(281,931,o),
(69,719,o),
(69,457,cs),
(69,317,o),
(129,192,o),
(224,105,c),
(237,168,l),
(107,13,l),
(96,86,l),
(255,-47,l),
(178,-52,l),
(308,102,l),
(252,82,l),
(332,20,o),
(433,-17,o),
(543,-17,cs),
(805,-17,o),
(1017,195,o),
(1017,457,cs),
(1017,597,o),
(956,722,o),
(862,809,c),
(848,746,l)
);
},
{
closed = 1;
nodes = (
(186,659,o),
(342,823,o),
(543,823,cs),
(626,823,o),
(702,794,o),
(762,747,c),
(770,804,l),
(242,175,l),
(296,192,l),
(227,258,o),
(186,352,o),
(186,457,cs)
);
},
{
closed = 1;
nodes = (
(459,91,o),
(384,120,o),
(324,167,c),
(315,110,l),
(844,739,l),
(789,722,l),
(859,656,o),
(900,562,o),
(900,457,cs),
(900,255,o),
(744,91,o),
(543,91,cs)
);
}
);
width = 1085;
},
{
anchors = (
{
name = bottom;
pos = (520,0);
},
{
name = top;
pos = (370,900);
}
);
guides = (
{
angle = 50.4075;
pos = (426,496);
}
);
layerId = "40756F1B-8CBD-42F6-8842-73C8ADC25AA8";
shapes = (
{
closed = 1;
nodes = (
(780,-17,o),
(963,159,o),
(963,397,cs),
(963,528,o),
(908,651,o),
(820,744,c),
(887,826,l),
(774,917,l),
(707,836,l),
(625,887,o),
(529,917,o),
(428,917,cs),
(184,917,o),
(2,741,o),
(2,503,cs),
(2,373,o),
(57,250,o),
(145,156,c),
(78,75,l),
(191,-17,l),
(258,64,l),
(340,13,o),
(435,-17,o),
(536,-17,cs)
);
},
{
closed = 1;
nodes = (
(292,394,o),
(280,433,o),
(280,474,cs),
(280,575,o),
(357,650,o),
(460,650,cs),
(488,650,o),
(515,644,o),
(540,634,c),
(314,360,l)
);
},
{
closed = 1;
nodes = (
(477,250,o),
(450,256,o),
(425,266,c),
(651,540,l),
(673,506,o),
(685,467,o),
(685,426,cs),
(685,325,o),
(608,250,o),
(505,250,cs)
);
}
);
width = 1040;
}
);
unicode = 216;
},
{
color = 3;
glyphname = OE;
kernLeft = O;
kernRight = E;
lastChange = "2024-02-26 20:34:00 +0000";
layers = (
{
anchors = (
{
name = bottom;
pos = (670,0);
},
{
name = top;
pos = (836,900);
}
);
background = {
shapes = (
{
closed = 1;
nodes = (
(650,-12,o),
(796,73,o),
(891,199,c),
(841,0,l),
(1239,0,l),
(1249,40,l),
(895,40,l),
(1019,536,l),
(1301,536,l),
(1311,574,l),
(1028,574,l),
(1100,860,l),
(1451,860,l),
(1461,900,l),
(1066,900,l),
(990,596,l),
(951,780,o),
(795,912,o),
(606,912,cs),
(346,912,o),
(104,665,o),
(104,395,cs),
(104,165,o),
(278,-12,o),
(498,-12,cs)
);
},
{
closed = 1;
nodes = (
(303,30,o),
(150,186,o),
(150,394,cs),
(150,643,o),
(370,870,o),
(605,870,cs),
(802,870,o),
(957,712,o),
(957,504,cs),
(957,256,o),
(736,30,o),
(502,30,cs)
);
}
);
};
guides = (
{
angle = 104.036;
pos = (66,300);
},
{
angle = 104.036;
pos = (960,300);
}
);
layerId = "ACBCE007-E73D-46AC-8E41-1CDF677894E7";
shapes = (
{
closed = 1;
nodes = (
(720,-12,o),
(876,120,o),
(915,304,c),
(991,0,l),
(1386,0,l),
(1376,40,l),
(1025,40,l),
(901,536,l),
(1184,536,l),
(1174,574,l),
(892,574,l),
(820,860,l),
(1174,860,l),
(1164,900,l),
(766,900,l),
(816,701,l),
(721,827,o),
(575,912,o),
(423,912,cs),
(203,912,o),
(29,735,o),
(29,505,cs),
(29,235,o),
(271,-12,o),
(531,-12,cs)
);
},
{
closed = 1;
nodes = (
(295,30,o),
(75,257,o),
(75,506,cs),
(75,714,o),
(228,870,o),
(427,870,cs),
(661,870,o),
(882,644,o),
(882,396,cs),
(882,188,o),
(727,30,o),
(530,30,cs)
);
}
);
width = 1380;
},
{
anchors = (
{
name = bottom;
pos = (752,0);
},
{
name = top;
pos = (577,900);
}
);
background = {
shapes = (
{
closed = 1;
nodes = (
(606,-18,o),
(762,61,o),
(866,180,c),
(857,204,l),
(807,0,l),
(1245,0,l),
(1270,102,l),
(940,102,l),
(1041,504,l),
(1301,504,l),
(1326,606,l),
(1066,606,l),
(1115,798,l),
(1445,798,l),
(1470,900,l),
(1032,900,l),
(981,696,l),
(1000,720,l),
(957,839,o),
(839,918,o),
(683,918,cs),
(423,918,o),
(160,709,o),
(96,450,cs),
(32,191,o),
(195,-18,o),
(450,-18,cs)
);
},
{
closed = 1;
nodes = (
(279,90,o),
(165,251,o),
(214,450,cs),
(263,649,o),
(460,810,o),
(658,810,cs),
(856,810,o),
(969,649,o),
(919,450,cs),
(869,251,o),
(675,90,o),
(477,90,cs)
);
}
);
};
guides = (
{
angle = 104.036;
pos = (60,300);
},
{
angle = 104.036;
pos = (1320,300);
},
{
angle = 104.036;
pos = (990,300);
}
);
layerId = "AC72BC7B-7DA4-4629-8F76-12EBC1936C54";
shapes = (
{
closed = 1;
nodes = (
(709,-18,o),
(841,68,o),
(908,199,c),
(957,0,l),
(1395,0,l),
(1370,102,l),
(1040,102,l),
(939,504,l),
(1199,504,l),
(1174,606,l),
(914,606,l),
(865,798,l),
(1195,798,l),
(1170,900,l),
(732,900,l),
(763,774,l),
(674,862,o),
(548,918,o),
(422,918,cs),
(196,918,o),
(23,738,o),
(23,505,cs),
(23,231,o),
(272,-18,o),
(547,-18,cs)
);
},
{
closed = 1;
nodes = (
(329,90,o),
(141,284,o),
(141,497,cs),
(141,675,o),
(274,810,o),
(448,810,cs),
(655,810,o),
(843,616,o),
(843,403,cs),
(843,225,o),
(710,90,o),
(536,90,cs)
);
}
);
width = 1380;
},
{
anchors = (
{
name = bottom;
pos = (735,0);
},
{
name = top;
pos = (511,900);
}
);
background = {
shapes = (
{
closed = 1;
nodes = (
(560,-18,o),
(676,24,o),
(756,99,c),
(743,128,l),
(711,0,l),
(1191,0,l),
(1231,162,l),
(925,162,l),
(998,456,l),
(1234,456,l),
(1272,606,l),
(1036,606,l),
(1071,744,l),
(1377,744,l),
(1416,900,l),
(936,900,l),
(903,772,l),
(931,802,l),
(890,872,o),
(800,918,o),
(666,918,cs),
(413,918,o),
(156,709,o),
(91,450,cs),
(26,191,o),
(180,-18,o),
(433,-18,cs)
);
},
{
closed = 1;
nodes = (
(332,156,o),
(238,287,o),
(279,450,cs),
(320,613,o),
(479,744,o),
(641,744,cs),
(803,744,o),
(896,613,o),
(855,450,cs),
(814,287,o),
(656,156,o),
(494,156,cs)
);
}
);
};
guides = (
{
angle = 104.036;
pos = (54,300);
},
{
angle = 104.036;
pos = (1266,300);
},
{
angle = 104.036;
pos = (961,300);
}
);
layerId = "01A22628-B541-4374-9232-A2213F2D24BF";
shapes = (
{
closed = 1;
nodes = (
(663,-18,o),
(765,25,o),
(837,95,c),
(862,0,l),
(1341,0,l),
(1301,162,l),
(996,162,l),
(922,456,l),
(1157,456,l),
(1119,606,l),
(884,606,l),
(850,744,l),
(1155,744,l),
(1116,900,l),
(637,900,l),
(652,841,l),
(580,892,o),
(497,918,o),
(412,918,cs),
(189,918,o),
(18,737,o),
(18,504,cs),
(18,230,o),
(268,-18,o),
(547,-18,cs)
);
},
{
closed = 1;
nodes = (
(359,156,o),
(208,314,o),
(208,487,cs),
(208,632,o),
(317,744,o),
(459,744,cs),
(628,744,o),
(778,585,o),
(778,411,cs),
(778,266,o),
(671,156,o),
(528,156,cs)
);
}
);
width = 1320;
},
{
anchors = (
{
name = bottom;
pos = (845,0);
},
{
name = top;
pos = (621,900);
}
);
background = {
anchors = (
{
name = bottom;
pos = (845,0);
},
{
name = top;
pos = (621,900);
}
);
shapes = (
{
closed = 1;
nodes = (
(695,-20,o),
(773,8,o),
(831,58,c),
(845,0,l),
(1353,0,l),
(1293,240,l),
(1017,240,l),
(983,378,l),
(1217,378,l),
(1169,570,l),
(935,570,l),
(911,666,l),
(1187,666,l),
(1129,900,l),
(621,900,l),
(635,842,l),
(553,892,o),
(461,920,o),
(366,920,cs),
(96,920,o),
(-64,710,o),
(1,450,cs),
(66,189,o),
(330,-20,o),
(600,-20,cs)
);
},
{
closed = 1;
nodes = (
(425,268,o),
(324,350,o),
(299,450,cs),
(274,550,o),
(335,632,o),
(438,632,cs),
(541,632,o),
(642,550,o),
(667,450,cs),
(692,350,o),
(631,268,o),
(528,268,cs)
);
}
);
};
layerId = "40756F1B-8CBD-42F6-8842-73C8ADC25AA8";
shapes = (
{
closed = 1;
nodes = (
(630,-17,o),
(714,8,o),
(782,52,c),
(795,0,l),
(1353,0,l),
(1293,240,l),
(1017,240,l),
(983,378,l),
(1217,378,l),
(1169,570,l),
(935,570,l),
(911,666,l),
(1187,666,l),
(1129,900,l),
(661,900,l),
(676,838,l),
(598,888,o),
(507,917,o),
(412,917,cs),
(178,917,o),
(3,741,o),
(3,503,cs),
(3,225,o),
(252,-17,o),
(538,-17,cs)
);
},
{
closed = 1;
nodes = (
(395,268,o),
(299,364,o),
(299,472,cs),
(299,564,o),
(369,632,o),
(463,632,cs),
(571,632,o),
(668,536,o),
(668,428,cs),
(668,336,o),
(598,268,o),
(504,268,cs)
);
}
);
width = 1320;
}
);
unicode = 338;
},
{
color = 3;
glyphname = P;
kernLeft = B;
kernRight = P;
lastChange = "2024-02-17 22:45:08 +0000";
layers = (
{
guides = (
{
angle = 104.036;
pos = (136,300);
},
{
angle = 104.036;
pos = (180,300);
},
{
angle = 104.036;
pos = (640,300);
}
);
layerId = "ACBCE007-E73D-46AC-8E41-1CDF677894E7";
shapes = (
{
closed = 1;
nodes = (
(255,0,l),
(168,348,l),
(288,348,ls),
(457,348,o),
(558,451,o),
(558,592,cs),
(558,758,o),
(416,900,o),
(222,900,cs),
(-14,900,l),
(211,0,l)
);
},
{
closed = 1;
nodes = (
(39,862,l),
(219,862,ls),
(397,862,o),
(516,739,o),
(516,596,cs),
(516,475,o),
(433,386,o),
(279,386,cs),
(158,386,l)
);
}
);
width = 700;
},
{
background = {
shapes = (
{
closed = 1;
nodes = (
(339,316,ls),
(449,316,o),
(523,347,o),
(577,401,cs),
(629,454,o),
(662,526,o),
(662,608,cs),
(662,686,o),
(632,759,o),
(577,814,cs),
(523,869,o),
(452,900,o),
(339,900,cs),
(180,900,l),
(180,798,l),
(333,798,ls),
(418,798,o),
(456,779,o),
(493,744,cs),
(529,712,o),
(548,661,o),
(548,608,cs),
(548,551,o),
(527,504,o),
(493,472,cs),
(456,437,o),
(418,418,o),
(333,418,cs),
(180,418,l),
(180,316,l)
);
},
{
closed = 1;
nodes = (
(241,0,l),
(241,900,l),
(127,900,l),
(127,0,l)
);
}
);
};
guides = (
{
pos = (179,367);
},
{
angle = 104.036;
pos = (126,300);
},
{
angle = 104.036;
pos = (240,300);
},
{
angle = 104.036;
pos = (673,300);
}
);
layerId = "AC72BC7B-7DA4-4629-8F76-12EBC1936C54";
shapes = (
{
closed = 1;
nodes = (
(315,0,l),
(236,316,l),
(317,316,ls),
(479,316,o),
(596,421,o),
(596,572,cs),
(596,750,o),
(434,900,o),
(246,900,c),
(-24,900,l),
(201,0,l)
);
},
{
closed = 1;
nodes = (
(116,798,l),
(248,798,ls),
(379,798,o),
(482,699,o),
(482,582,cs),
(482,485,o),
(409,418,o),
(296,418,cs),
(211,418,l)
);
}
);
width = 720;
},
{
background = {
shapes = (
{
closed = 1;
nodes = (
(339,316,ls),
(449,316,o),
(523,347,o),
(577,401,cs),
(629,454,o),
(662,526,o),
(662,608,cs),
(662,686,o),
(632,759,o),
(577,814,cs),
(523,869,o),
(452,900,o),
(339,900,cs),
(180,900,l),
(180,798,l),
(333,798,ls),
(418,798,o),
(456,779,o),
(493,744,cs),
(529,712,o),
(548,661,o),
(548,608,cs),
(548,551,o),
(527,504,o),
(493,472,cs),
(456,437,o),
(418,418,o),
(333,418,cs),
(180,418,l),
(180,316,l)
);
},
{
closed = 1;
nodes = (
(241,0,l),
(241,900,l),
(127,900,l),
(127,0,l)
);
}
);
};
guides = (
{
angle = 104.036;
pos = (96,300);
},
{
angle = 104.036;
pos = (270,300);
},
{
angle = 104.036;
pos = (710,300);
},
{
angle = -86.6335;
pos = (425,289);
}
);
layerId = "01A22628-B541-4374-9232-A2213F2D24BF";
shapes = (
{
closed = 1;
nodes = (
(345,0,l),
(273,289,l),
(351,289,ls),
(513,289,o),
(637,407,o),
(637,560,cs),
(637,739,o),
(470,900,o),
(278,900,c),
(-54,900,l),
(171,0,l)
);
},
{
closed = 1;
nodes = (
(159,744,l),
(273,744,ls),
(377,744,o),
(457,665,o),
(457,574,cs),
(457,499,o),
(400,445,o),
(309,445,cs),
(234,445,l)
);
}
);
width = 740;
},
{
background = {
shapes = (
{
closed = 1;
nodes = (
(422,0,l),
(358,258,l),
(439,258,ls),
(644,258,o),
(759,388,o),
(712,578,cs),
(664,771,o),
(485,900,o),
(279,900,cs),
(-90,900,l),
(134,0,l)
);
},
{
closed = 1;
nodes = (
(256,666,l),
(304,666,ls),
(360,666,o),
(411,630,o),
(425,573,cs),
(440,514,o),
(409,480,o),
(351,480,cs),
(303,480,l)
);
}
);
};
layerId = "40756F1B-8CBD-42F6-8842-73C8ADC25AA8";
shapes = (
{
closed = 1;
nodes = (
(423,0,l),
(359,258,l),
(417,258,ls),
(611,258,o),
(712,390,o),
(712,543,cs),
(712,725,o),
(565,900,o),
(338,900,c),
(-89,900,l),
(135,0,l)
);
},
{
closed = 1;
nodes = (
(257,666,l),
(323,666,ls),
(384,666,o),
(428,615,o),
(428,559,cs),
(428,511,o),
(396,480,o),
(346,480,cs),
(304,480,l)
);
}
);
width = 800;
}
);
unicode = 80;
},
{
color = 3;
glyphname = Thorn;
kernLeft = B;
kernRight = Thorn;
lastChange = "2024-02-19 17:28:37 +0000";
layers = (
{
guides = (
{
angle = 104.036;
pos = (136,300);
},
{
angle = 104.036;
pos = (180,300);
}
);
layerId = "ACBCE007-E73D-46AC-8E41-1CDF677894E7";
shapes = (
{
closed = 1;
nodes = (
(255,0,l),
(198,228,l),
(318,228,ls),
(487,228,o),
(588,331,o),
(588,472,cs),
(588,638,o),
(446,780,o),
(252,780,cs),
(60,780,l),
(30,900,l),
(-14,900,l),
(211,0,l)
);
},
{
closed = 1;
nodes = (
(69,742,l),
(249,742,ls),
(427,742,o),
(546,619,o),
(546,476,cs),
(546,355,o),
(463,266,o),
(309,266,cs),
(188,266,l)
);
}
);
width = 700;
},
{
background = {
shapes = (
{
closed = 1;
nodes = (
(315,0,l),
(285,120,l),
(366,120,ls),
(528,120,o),
(645,225,o),
(645,376,cs),
(645,554,o),
(483,704,o),
(295,704,cs),
(139,704,l),
(90,900,l),
(-24,900,l),
(201,0,l)
);
},
{
closed = 1;
nodes = (
(165,602,l),
(297,602,ls),
(428,602,o),
(531,503,o),
(531,386,cs),
(531,289,o),
(458,222,o),
(345,222,cs),
(260,222,l)
);
}
);
};
guides = (
{
angle = 104.036;
pos = (126,300);
},
{
angle = 104.036;
pos = (672,300);
}
);
layerId = "AC72BC7B-7DA4-4629-8F76-12EBC1936C54";
shapes = (
{
closed = 1;
nodes = (
(315,0,l),
(266,196,l),
(347,196,ls),
(509,196,o),
(626,301,o),
(626,452,cs),
(626,630,o),
(464,780,o),
(276,780,cs),
(120,780,l),
(90,900,l),
(-24,900,l),
(201,0,l)
);
},
{
closed = 1;
nodes = (
(146,678,l),
(278,678,ls),
(409,678,o),
(512,579,o),
(512,462,cs),
(512,365,o),
(439,298,o),
(326,298,cs),
(241,298,l)
);
}
);
width = 720;
},
{
background = {
shapes = (
{
closed = 1;
nodes = (
(195,0,l),
(237,169,l),
(393,169,ls),
(585,169,o),
(752,330,o),
(752,509,cs),
(752,662,o),
(628,780,o),
(466,780,cs),
(390,780,l),
(420,900,l),
(246,900,l),
(21,0,l)
);
},
{
closed = 1;
nodes = (
(351,624,l),
(424,624,ls),
(515,624,o),
(572,570,o),
(572,495,cs),
(572,404,o),
(492,325,o),
(388,325,cs),
(276,325,l)
);
}
);
};
guides = (
{
angle = 104.036;
pos = (96,300);
},
{
angle = 104.036;
pos = (710,300);
},
{
angle = 104.036;
pos = (270,300);
}
);
layerId = "01A22628-B541-4374-9232-A2213F2D24BF";
shapes = (
{
closed = 1;
nodes = (
(345,0,l),
(303,169,l),
(379,169,ls),
(541,169,o),
(665,287,o),
(665,440,cs),
(665,619,o),
(498,780,o),
(306,780,cs),
(150,780,l),
(120,900,l),
(-54,900,l),
(171,0,l)
);
},
{
closed = 1;
nodes = (
(189,624,l),
(301,624,ls),
(405,624,o),
(485,545,o),
(485,454,cs),
(485,379,o),
(428,325,o),
(337,325,cs),
(264,325,l)
);
}
);
width = 740;
},
{
background = {
shapes = (
{
closed = 1;
nodes = (
(273,0,l),
(307,138,l),
(388,138,ls),
(593,138,o),
(774,268,o),
(821,458,cs),
(869,651,o),
(754,780,o),
(548,780,cs),
(467,780,l),
(497,900,l),
(209,900,l),
(-15,0,l)
);
},
{
closed = 1;
nodes = (
(409,546,l),
(457,546,ls),
(513,546,o),
(546,510,o),
(532,453,cs),
(517,394,o),
(469,360,o),
(411,360,cs),
(363,360,l)
);
}
);
};
guides = (
{
pos = (372,780);
}
);
layerId = "40756F1B-8CBD-42F6-8842-73C8ADC25AA8";
shapes = (
{
closed = 1;
nodes = (
(423,0,l),
(389,138,l),
(447,138,ls),
(641,138,o),
(742,270,o),
(742,423,cs),
(742,605,o),
(595,780,o),
(368,780,cs),
(229,780,l),
(199,900,l),
(-89,900,l),
(135,0,l)
);
},
{
closed = 1;
nodes = (
(284,558,l),
(350,558,ls),
(411,558,o),
(455,507,o),
(455,451,cs),
(455,403,o),
(423,372,o),
(373,372,cs),
(331,372,l)
);
}
);
width = 800;
}
);
unicode = 222;
},
{
color = 3;
glyphname = Q;
kernLeft = C;
kernRight = D;
lastChange = "2024-02-26 20:33:54 +0000";
layers = (
{
layerId = "ACBCE007-E73D-46AC-8E41-1CDF677894E7";
shapes = (
{
closed = 1;
nodes = (
(1033,-30,l),
(850,140,l),
(904,209,o),
(936,297,o),
(936,395,cs),
(936,665,o),
(691,912,o),
(427,912,cs),
(205,912,o),
(29,736,o),
(29,506,cs),
(29,235,o),
(275,-12,o),
(537,-12,cs),
(651,-12,o),
(752,34,o),
(824,110,c),
(975,-30,l)
);
},
{
closed = 1;
nodes = (
(298,30,o),
(75,256,o),
(75,504,cs),
(75,712,o),
(232,870,o),
(430,870,cs),
(668,870,o),
(890,643,o),
(890,394,cs),
(890,308,o),
(863,231,o),
(818,170,c),
(516,450,l),
(458,450,l),
(793,139,l),
(729,71,o),
(638,30,o),
(535,30,cs)
);
}
);
width = 1040;
},
{
guides = (
{
angle = 180;
pos = (530,450);
},
{
angle = 129.7449;
pos = (710,311);
},
{
angle = 104.036;
pos = (60,300);
},
{
angle = 104.036;
pos = (1000,300);
}
);
layerId = "AC72BC7B-7DA4-4629-8F76-12EBC1936C54";
shapes = (
{
closed = 1;
nodes = (
(1075,-30,l),
(883,148,l),
(933,216,o),
(962,301,o),
(962,395,cs),
(962,669,o),
(713,918,o),
(438,918,cs),
(204,918,o),
(24,738,o),
(24,505,cs),
(24,231,o),
(273,-18,o),
(548,-18,cs),
(650,-18,o),
(742,16,o),
(813,75,c),
(927,-30,l)
);
},
{
closed = 1;
nodes = (
(330,90,o),
(142,284,o),
(142,497,cs),
(142,675,o),
(275,810,o),
(449,810,cs),
(656,810,o),
(844,616,o),
(844,403,cs),
(844,338,o),
(826,278,o),
(795,229,c),
(557,450,l),
(405,450,l),
(727,154,l),
(675,114,o),
(610,90,o),
(537,90,cs)
);
}
);
width = 1060;
},
{
background = {
shapes = (
{
closed = 1;
nodes = (
(1105,-30,l),
(925,137,l),
(980,220,o),
(998,330,o),
(969,450,cs),
(904,709,o),
(639,918,o),
(376,918,cs),
(113,918,o),
(-48,709,o),
(17,450,cs),
(81,191,o),
(346,-18,o),
(609,-18,cs),
(693,-18,o),
(767,3,o),
(827,41,c),
(903,-30,l)
);
},
{
closed = 1;
nodes = (
(404,156,o),
(245,287,o),
(205,450,cs),
(164,613,o),
(257,744,o),
(419,744,cs),
(581,744,o),
(740,613,o),
(781,450,cs),
(796,386,o),
(792,328,o),
(771,280,c),
(587,450,l),
(387,450,l),
(678,181,l),
(646,165,o),
(608,156,o),
(566,156,cs)
);
}
);
};
guides = (
{
angle = 104.036;
pos = (54,300);
},
{
angle = 104.036;
pos = (1006,300);
}
);
layerId = "01A22628-B541-4374-9232-A2213F2D24BF";
shapes = (
{
closed = 1;
nodes = (
(1105,-30,l),
(899,165,l),
(943,230,o),
(968,310,o),
(968,396,cs),
(968,670,o),
(718,918,o),
(439,918,cs),
(200,918,o),
(18,736,o),
(18,503,cs),
(18,230,o),
(267,-18,o),
(547,-18,cs),
(642,-18,o),
(728,11,o),
(797,60,c),
(891,-30,l)
);
},
{
closed = 1;
nodes = (
(358,156,o),
(208,315,o),
(208,489,cs),
(208,634,o),
(315,744,o),
(458,744,cs),
(627,744,o),
(778,586,o),
(778,413,cs),
(778,373,o),
(770,335,o),
(755,302,c),
(598,450,l),
(387,450,l),
(658,192,l),
(620,169,o),
(575,156,o),
(527,156,cs)
);
}
);
width = 1060;
},
{
background = {
shapes = (
{
closed = 1;
nodes = (
(983,-30,l),
(870,165,l),
(951,244,o),
(1013,343,o),
(1039,450,cs),
(1104,710,o),
(945,920,o),
(675,920,cs),
(405,920,o),
(140,710,o),
(75,450,cs),
(10,189,o),
(170,-20,o),
(440,-20,cs),
(506,-20,o),
(571,-8,o),
(634,15,c),
(659,-30,l)
);
},
{
closed = 1;
nodes = (
(408,248,o),
(345,335,o),
(371,440,cs),
(397,546,o),
(504,632,o),
(613,632,cs),
(722,632,o),
(785,546,o),
(759,440,cs),
(753,417,o),
(743,394,o),
(730,374,c),
(685,450,l),
(396,450,l),
(512,248,l),
(510,248,o),
(509,248,o),
(507,248,cs)
);
}
);
};
layerId = "40756F1B-8CBD-42F6-8842-73C8ADC25AA8";
shapes = (
{
closed = 1;
nodes = (
(1135,-30,l),
(906,182,l),
(942,244,o),
(963,317,o),
(963,397,cs),
(963,675,o),
(714,917,o),
(428,917,cs),
(184,917,o),
(2,741,o),
(2,503,cs),
(2,226,o),
(250,-17,o),
(536,-17,cs),
(604,-17,o),
(667,-3,o),
(723,22,c),
(779,-30,l)
);
},
{
closed = 1;
nodes = (
(400,248,o),
(298,349,o),
(298,463,cs),
(298,560,o),
(372,632,o),
(471,632,cs),
(586,632,o),
(687,531,o),
(687,417,cs),
(687,410,o),
(687,403,o),
(686,396,c),
(627,450,l),
(306,450,l),
(523,248,l),
(520,248,o),
(517,248,o),
(514,248,cs)
);
}
);
width = 1040;
}
);
unicode = 81;
},
{
color = 3;
glyphname = R;
kernLeft = B;
kernRight = R;
lastChange = "2024-02-17 22:45:08 +0000";
layers = (
{
anchors = (
{
name = bottom;
pos = (490,0);
},
{
name = top;
pos = (201,900);
}
);
background = {
shapes = (
{
closed = 1;
nodes = (
(255,0,l),
(30,900,l),
(-14,900,l),
(211,0,l)
);
},
{
closed = 1;
nodes = (
(787,0,l),
(210,560,l),
(493,900,l),
(439,900,l),
(152,555,l),
(725,0,l)
);
}
);
};
guides = (
{
angle = 104.036;
pos = (136,300);
},
{
angle = 104.036;
pos = (180,300);
},
{
angle = 104.036;
pos = (585,300);
}
);
layerId = "ACBCE007-E73D-46AC-8E41-1CDF677894E7";
shapes = (
{
closed = 1;
nodes = (
(255,0,l),
(143,447,l),
(296,447,l),
(728,0,l),
(788,0,l),
(342,458,l),
(434,486,o),
(491,556,o),
(491,648,cs),
(491,781,o),
(374,900,o),
(201,900,cs),
(-14,900,l),
(211,0,l)
);
},
{
closed = 1;
nodes = (
(40,862,l),
(200,862,ls),
(347,862,o),
(448,761,o),
(448,649,cs),
(448,555,o),
(376,482,o),
(259,482,cs),
(134,482,l)
);
}
);
width = 740;
},
{
anchors = (
{
name = bottom;
pos = (490,0);
},
{
name = top;
pos = (201,900);
}
);
associatedMasterId = "ACBCE007-E73D-46AC-8E41-1CDF677894E7";
background = {
shapes = (
{
closed = 1;
nodes = (
(255,0,l),
(30,900,l),
(-14,900,l),
(211,0,l)
);
},
{
closed = 1;
nodes = (
(787,0,l),
(210,560,l),
(493,900,l),
(439,900,l),
(152,555,l),
(725,0,l)
);
}
);
};
guides = (
{
angle = 104.036;
pos = (136,300);
},
{
angle = 104.036;
pos = (180,300);
},
{
angle = 104.036;
pos = (585,300);
}
);
layerId = "025E252C-9BA1-4490-B845-1DBF6953838D";
name = "1 Dec 23, 07:45";
shapes = (
{
closed = 1;
nodes = (
(255,0,l),
(143,447,l),
(268,447,l),
(725,0,l),
(788,0,l),
(319,453,l),
(425,475,o),
(491,549,o),
(491,648,cs),
(491,781,o),
(374,900,o),
(201,900,cs),
(-14,900,l),
(211,0,l)
);
},
{
closed = 1;
nodes = (
(40,862,l),
(200,862,ls),
(347,862,o),
(448,761,o),
(448,649,cs),
(448,555,o),
(376,482,o),
(259,482,cs),
(134,482,l)
);
}
);
width = 740;
},
{
anchors = (
{
name = bottom;
pos = (514,0);
},
{
name = top;
pos = (176,900);
}
);
background = {
shapes = (
{
closed = 1;
nodes = (
(849,0,l),
(323,570,l),
(545,900,l),
(423,900,l),
(189,555,l),
(698,0,l)
);
},
{
closed = 1;
nodes = (
(315,0,l),
(91,900,l),
(-23,900,l),
(201,0,l)
);
}
);
};
guides = (
{
angle = -55.3297;
pos = (469,240);
},
{
angle = 104.036;
pos = (129,300);
},
{
angle = 104.036;
pos = (243,300);
}
);
layerId = "AC72BC7B-7DA4-4629-8F76-12EBC1936C54";
shapes = (
{
closed = 1;
nodes = (
(318,0,l),
(215,414,l),
(327,414,l),
(708,0,l),
(849,0,l),
(438,445,l),
(503,483,o),
(540,549,o),
(540,627,cs),
(540,777,o),
(405,900,o),
(239,900,cs),
(-20,900,l),
(204,0,l)
);
},
{
closed = 1;
nodes = (
(119,798,l),
(254,798,ls),
(354,798,o),
(434,725,o),
(434,635,cs),
(434,559,o),
(377,510,o),
(290,510,cs),
(191,510,l)
);
}
);
width = 780;
},
{
anchors = (
{
name = bottom;
pos = (514,0);
},
{
name = top;
pos = (176,900);
}
);
background = {
shapes = (
{
closed = 1;
nodes = (
(881,0,l),
(405,582,l),
(557,900,l),
(367,900,l),
(204,555,l),
(654,0,l)
);
},
{
closed = 1;
nodes = (
(351,0,l),
(127,900,l),
(-53,900,l),
(171,0,l)
);
}
);
};
guides = (
{
angle = 104.036;
pos = (99,300);
},
{
angle = 104.036;
pos = (273,300);
},
{
angle = 104.036;
pos = (686,300);
},
{
angle = 104.036;
pos = (512,300);
},
{
angle = -50.1944;
pos = (528,171);
},
{
angle = 129.1511;
pos = (628,0);
}
);
layerId = "01A22628-B541-4374-9232-A2213F2D24BF";
shapes = (
{
closed = 1;
nodes = (
(348,0,l),
(262,342,l),
(385,342,l),
(666,0,l),
(881,0,l),
(538,421,l),
(580,465,o),
(605,523,o),
(605,589,cs),
(605,753,o),
(453,900,o),
(277,900,cs),
(-51,900,l),
(174,0,l)
);
},
{
closed = 1;
nodes = (
(163,744,l),
(278,744,ls),
(366,744,o),
(433,677,o),
(433,601,cs),
(433,537,o),
(385,492,o),
(308,492,cs),
(226,492,l)
);
}
);
width = 800;
},
{
anchors = (
{
name = bottom;
pos = (514,0);
},
{
name = top;
pos = (176,900);
}
);
associatedMasterId = "01A22628-B541-4374-9232-A2213F2D24BF";
background = {
shapes = (
{
closed = 1;
nodes = (
(839,0,l),
(420,514,l),
(623,900,l),
(433,900,l),
(219,487,l),
(612,0,l)
);
},
{
closed = 1;
nodes = (
(351,0,l),
(127,900,l),
(-53,900,l),
(171,0,l)
);
}
);
};
guides = (
{
angle = 104.036;
pos = (99,300);
},
{
angle = 104.036;
pos = (273,300);
},
{
angle = 104.036;
pos = (686,300);
},
{
angle = 104.036;
pos = (512,300);
},
{
angle = -50.1944;
pos = (528,171);
}
);
layerId = "0CBD2088-4217-44AA-883C-2BE27D7FD2CA";
name = "1 Dec 23, 08:38";
shapes = (
{
closed = 1;
nodes = (
(348,0,l),
(262,342,l),
(385,342,l),
(670,0,l),
(881,0,l),
(530,413,l),
(577,457,o),
(605,519,o),
(605,589,cs),
(605,753,o),
(453,900,o),
(277,900,cs),
(-51,900,l),
(174,0,l)
);
},
{
closed = 1;
nodes = (
(163,744,l),
(278,744,ls),
(366,744,o),
(433,677,o),
(433,601,cs),
(433,537,o),
(385,492,o),
(308,492,cs),
(226,492,l)
);
}
);
width = 800;
},
{
anchors = (
{
name = bottom;
pos = (523,0);
},
{
name = top;
pos = (243,900);
}
);
background = {
shapes = (
{
closed = 1;
nodes = (
(423,0,l),
(350,294,l),
(411,294,l),
(619,0,l),
(931,0,l),
(659,366,l),
(713,420,o),
(733,501,o),
(710,596,cs),
(664,778,o),
(492,900,o),
(294,900,cs),
(-89,900,l),
(135,0,l)
);
},
{
closed = 1;
nodes = (
(254,678,l),
(309,678,ls),
(362,678,o),
(410,644,o),
(423,591,cs),
(437,536,o),
(408,504,o),
(353,504,cs),
(298,504,l)
);
}
);
};
guides = (
{
angle = -104.036;
pos = (783,300);
},
{
angle = -104.036;
pos = (493,300);
}
);
layerId = "40756F1B-8CBD-42F6-8842-73C8ADC25AA8";
shapes = (
{
closed = 1;
nodes = (
(423,0,l),
(350,294,l),
(411,294,l),
(611,0,l),
(931,0,l),
(650,389,l),
(689,436,o),
(708,498,o),
(708,563,cs),
(708,735,o),
(569,900,o),
(355,900,cs),
(-89,900,l),
(135,0,l)
);
},
{
closed = 1;
nodes = (
(254,678,l),
(324,678,ls),
(381,678,o),
(422,630,o),
(422,578,cs),
(422,533,o),
(392,504,o),
(345,504,cs),
(298,504,l)
);
}
);
width = 850;
}
);
unicode = 82;
},
{
color = 3;
glyphname = S;
kernLeft = S;
kernRight = S;
lastChange = "2024-03-04 21:19:55 +0000";
layers = (
{
anchors = (
{
name = bottom;
pos = (395,0);
},
{
name = top;
pos = (213,900);
}
);
background = {
shapes = (
{
closed = 1;
nodes = (
(528,-12,o),
(617,94,o),
(583,229,cs),
(559,328,o),
(476,415,o),
(351,470,cs),
(216,530,ls),
(121,573,o),
(64,630,o),
(46,702,cs),
(22,800,o),
(81,873,o),
(185,873,cs),
(253,873,o),
(329,842,o),
(393,785,c),
(392,835,l),
(325,884,o),
(247,912,o),
(176,912,cs),
(50,912,o),
(-26,820,o),
(3,703,cs),
(24,617,o),
(98,540,o),
(206,492,cs),
(340,432,ls),
(452,382,o),
(519,314,o),
(540,229,cs),
(569,113,o),
(499,27,o),
(376,27,cs),
(291,27,o),
(202,66,o),
(128,137,c),
(128,87,l),
(205,24,o),
(297,-12,o),
(383,-12,cs)
);
}
);
};
guides = (
{
angle = 104.036;
pos = (101,300);
},
{
angle = 104.036;
pos = (568,300);
}
);
layerId = "ACBCE007-E73D-46AC-8E41-1CDF677894E7";
name = Regular;
shapes = (
{
closed = 1;
nodes = (
(483,-12,o),
(586,82,o),
(586,210,cs),
(586,330,o),
(497,431,o),
(350,480,cs),
(217,524,ls),
(106,561,o),
(43,632,o),
(43,718,cs),
(43,809,o),
(113,873,o),
(213,873,cs),
(275,873,o),
(338,849,o),
(391,804,c),
(390,858,l),
(333,895,o),
(271,912,o),
(213,912,cs),
(91,912,o),
(1,830,o),
(1,719,cs),
(1,616,o),
(78,528,o),
(207,484,cs),
(340,439,ls),
(470,395,o),
(544,312,o),
(544,210,cs),
(544,103,o),
(460,27,o),
(342,27,cs),
(269,27,o),
(196,57,o),
(131,115,c),
(131,61,l),
(195,14,o),
(270,-12,o),
(344,-12,cs)
);
}
);
width = 640;
},
{
anchors = (
{
name = bottom;
pos = (385,0);
},
{
name = top;
pos = (200,900);
}
);
background = {
shapes = (
{
closed = 1;
nodes = (
(560,-12,o),
(652,99,o),
(613,253,cs),
(573,412,o),
(431,476,o),
(370,503,cs),
(244,559,ls),
(210,574,o),
(132,609,o),
(112,689,cs),
(95,758,o),
(134,812,o),
(214,812,cs),
(296,812,o),
(381,752,o),
(428,696,c),
(426,834,l),
(376,870,o),
(290,912,o),
(194,912,cs),
(47,912,o),
(-31,814,o),
(3,678,cs),
(38,538,o),
(160,483,o),
(220,456,cs),
(343,400,ls),
(382,383,o),
(479,341,o),
(503,246,cs),
(525,158,o),
(473,90,o),
(378,90,cs),
(274,90,o),
(179,161,o),
(123,236,c),
(125,98,l),
(191,37,o),
(292,-12,o),
(399,-12,cs)
);
}
);
};
guides = (
{
angle = 104.036;
pos = (73,300);
},
{
angle = 104.036;
pos = (601,300);
}
);
layerId = "AC72BC7B-7DA4-4629-8F76-12EBC1936C54";
name = Regular;
shapes = (
{
closed = 1;
nodes = (
(506,-12,o),
(612,85,o),
(612,226,cs),
(612,355,o),
(523,460,o),
(369,512,cs),
(244,554,ls),
(160,582,o),
(114,634,o),
(114,699,cs),
(114,767,o),
(163,812,o),
(234,812,cs),
(299,812,o),
(371,776,o),
(424,718,c),
(424,858,l),
(367,893,o),
(299,912,o),
(233,912,cs),
(96,912,o),
(2,829,o),
(2,701,cs),
(2,586,o),
(78,497,o),
(221,447,cs),
(342,405,ls),
(446,369,o),
(500,310,o),
(500,232,cs),
(500,147,o),
(437,90,o),
(349,90,cs),
(272,90,o),
(189,135,o),
(130,209,c),
(130,70,l),
(193,18,o),
(276,-12,o),
(358,-12,cs)
);
}
);
width = 660;
},
{
anchors = (
{
name = bottom;
pos = (379,0);
},
{
name = top;
pos = (206,900);
}
);
background = {
shapes = (
{
closed = 1;
nodes = (
(575,-20,o),
(658,100,o),
(619,256,cs),
(580,415,o),
(445,484,o),
(365,519,cs),
(245,572,ls),
(183,599,o),
(143,626,o),
(131,673,cs),
(119,722,o),
(146,760,o),
(212,760,cs),
(285,760,o),
(375,714,o),
(446,645,c),
(444,840,l),
(382,879,o),
(286,920,o),
(180,920,cs),
(9,920,o),
(-75,817,o),
(-37,666,cs),
(-2,527,o),
(104,463,o),
(208,417,cs),
(327,364,ls),
(366,347,o),
(435,314,o),
(452,245,cs),
(467,187,o),
(433,142,o),
(360,142,cs),
(271,142,o),
(162,202,o),
(94,284,c),
(95,84,l),
(169,26,o),
(284,-20,o),
(394,-20,cs)
);
}
);
};
guides = (
{
angle = 104.036;
pos = (54,300);
},
{
angle = 104.036;
pos = (608,300);
}
);
layerId = "01A22628-B541-4374-9232-A2213F2D24BF";
name = Regular;
shapes = (
{
closed = 1;
nodes = (
(509,-20,o),
(618,80,o),
(618,231,cs),
(618,368,o),
(529,475,o),
(372,527,cs),
(245,569,ls),
(171,593,o),
(134,630,o),
(134,678,cs),
(134,728,o),
(174,760,o),
(237,760,cs),
(298,760,o),
(372,728,o),
(444,668,c),
(444,865,l),
(370,902,o),
(299,920,o),
(228,920,cs),
(68,920,o),
(-37,829,o),
(-37,690,cs),
(-37,562,o),
(49,460,o),
(200,410,cs),
(326,368,ls),
(405,342,o),
(448,296,o),
(448,238,cs),
(448,180,o),
(403,142,o),
(334,142,cs),
(257,142,o),
(160,189,o),
(95,258,c),
(95,55,l),
(170,7,o),
(260,-20,o),
(345,-20,cs)
);
}
);
width = 660;
},
{
anchors = (
{
name = bottom;
pos = (352,0);
},
{
name = top;
pos = (227,900);
}
);
background = {
shapes = (
{
closed = 1;
nodes = (
(625,-20,o),
(733,95,o),
(689,268,cs),
(658,395,o),
(573,484,o),
(410,554,cs),
(276,612,ls),
(242,627,o),
(228,636,o),
(225,648,cs),
(221,664,o),
(238,672,o),
(270,672,cs),
(341,672,o),
(442,633,o),
(522,573,c),
(522,839,l),
(421,893,o),
(320,920,o),
(222,920,cs),
(20,920,o),
(-84,804,o),
(-40,626,cs),
(-9,503,o),
(74,421,o),
(256,343,cs),
(360,298,ls),
(400,280,o),
(419,268,o),
(423,253,cs),
(427,236,o),
(410,228,o),
(372,228,cs),
(286,228,o),
(174,278,o),
(85,357,c),
(85,79,l),
(171,19,o),
(302,-20,o),
(421,-20,cs)
);
}
);
};
guides = (
{
angle = 104.036;
pos = (42,300);
},
{
angle = 104.036;
pos = (682,300);
}
);
layerId = "40756F1B-8CBD-42F6-8842-73C8ADC25AA8";
name = Regular;
shapes = (
{
closed = 1;
nodes = (
(553,-20,o),
(688,79,o),
(688,245,cs),
(688,385,o),
(593,507,o),
(414,567,cs),
(282,611,ls),
(240,625,o),
(230,633,o),
(230,644,cs),
(230,663,o),
(256,672,o),
(299,672,cs),
(371,672,o),
(451,646,o),
(522,600,c),
(522,870,l),
(446,903,o),
(366,920,o),
(285,920,cs),
(96,920,o),
(-39,826,o),
(-39,654,cs),
(-39,506,o),
(61,402,o),
(257,334,cs),
(355,300,ls),
(401,284,o),
(418,274,o),
(418,260,cs),
(418,240,o),
(387,228,o),
(340,228,cs),
(256,228,o),
(162,267,o),
(85,328,c),
(85,45,l),
(154,4,o),
(253,-20,o),
(352,-20,cs)
);
}
);
width = 700;
},
{
anchors = (
{
name = bottom;
pos = (316,0);
},
{
name = top;
pos = (338,900);
}
);
associatedMasterId = "40756F1B-8CBD-42F6-8842-73C8ADC25AA8";
guides = (
{
angle = 154.1197;
pos = (244,380);
}
);
layerId = "D711218C-CD8B-41C3-BB5C-3F8992BC860A";
name = "28 Jan 24, 09:40";
shapes = (
{
closed = 1;
nodes = (
(527,-20,o),
(659,97,o),
(659,264,cs),
(659,394,o),
(591,482,o),
(447,549,cs),
(346,596,ls),
(293,621,o),
(276,636,o),
(276,655,cs),
(276,679,o),
(301,694,o),
(344,694,cs),
(415,694,o),
(501,651,o),
(562,587,c),
(623,839,l),
(545,890,o),
(446,920,o),
(351,920,cs),
(157,920,o),
(30,805,o),
(30,635,cs),
(30,506,o),
(92,433,o),
(244,361,cs),
(345,313,ls),
(393,290,o),
(413,272,o),
(413,251,cs),
(413,224,o),
(386,208,o),
(340,208,cs),
(256,208,o),
(155,264,o),
(95,343,c),
(30,81,l),
(98,21,o),
(220,-20,o),
(331,-20,cs)
);
}
);
width = 680;
}
);
unicode = 83;
},
{
color = 3;
glyphname = Scedilla;
kernLeft = S;
kernRight = S;
lastChange = "2024-02-24 09:40:46 +0000";
layers = (
{
layerId = "ACBCE007-E73D-46AC-8E41-1CDF677894E7";
shapes = (
{
closed = 1;
nodes = (
(292,-180,l),
(411,-4,l),
(515,21,o),
(586,104,o),
(586,210,cs),
(586,330,o),
(497,431,o),
(350,480,cs),
(217,524,ls),
(106,561,o),
(43,632,o),
(43,718,cs),
(43,809,o),
(113,873,o),
(213,873,cs),
(275,873,o),
(338,849,o),
(391,804,c),
(390,858,l),
(333,895,o),
(271,912,o),
(213,912,cs),
(91,912,o),
(1,830,o),
(1,719,cs),
(1,616,o),
(78,528,o),
(207,484,cs),
(340,439,ls),
(470,395,o),
(544,312,o),
(544,210,cs),
(544,103,o),
(460,27,o),
(342,27,cs),
(269,27,o),
(196,57,o),
(131,115,c),
(131,61,l),
(199,11,o),
(285,-15,o),
(368,-11,c),
(242,-180,l)
);
}
);
width = 640;
},
{
layerId = "AC72BC7B-7DA4-4629-8F76-12EBC1936C54";
shapes = (
{
closed = 1;
nodes = (
(332,-180,l),
(431,-3,l),
(540,23,o),
(612,110,o),
(612,226,cs),
(612,355,o),
(523,460,o),
(369,512,cs),
(244,554,ls),
(160,582,o),
(114,634,o),
(114,699,cs),
(114,767,o),
(163,812,o),
(234,812,cs),
(299,812,o),
(371,776,o),
(424,718,c),
(424,858,l),
(367,893,o),
(299,912,o),
(233,912,cs),
(96,912,o),
(2,829,o),
(2,701,cs),
(2,586,o),
(78,497,o),
(221,447,cs),
(342,405,ls),
(446,369,o),
(500,310,o),
(500,232,cs),
(500,147,o),
(437,90,o),
(349,90,cs),
(272,90,o),
(189,135,o),
(130,209,c),
(130,70,l),
(186,24,o),
(257,-5,o),
(329,-11,c),
(205,-180,l)
);
}
);
width = 660;
},
{
layerId = "01A22628-B541-4374-9232-A2213F2D24BF";
shapes = (
{
closed = 1;
nodes = (
(356,-192,l),
(452,-4,l),
(555,31,o),
(618,116,o),
(618,231,cs),
(618,368,o),
(529,475,o),
(372,527,cs),
(245,569,ls),
(171,593,o),
(134,630,o),
(134,678,cs),
(134,728,o),
(174,760,o),
(237,760,cs),
(298,760,o),
(372,728,o),
(444,668,c),
(444,865,l),
(370,902,o),
(299,920,o),
(228,920,cs),
(68,920,o),
(-37,829,o),
(-37,690,cs),
(-37,562,o),
(49,460,o),
(200,410,cs),
(326,368,ls),
(405,342,o),
(448,296,o),
(448,238,cs),
(448,180,o),
(403,142,o),
(334,142,cs),
(257,142,o),
(160,189,o),
(95,258,c),
(95,55,l),
(155,17,o),
(224,-8,o),
(292,-17,c),
(165,-192,l)
);
}
);
width = 660;
},
{
background = {
shapes = (
{
closed = 1;
nodes = (
(525,-221,l),
(535,-3,l),
(658,35,o),
(714,134,o),
(680,268,cs),
(649,395,o),
(564,484,o),
(401,554,cs),
(267,612,ls),
(233,627,o),
(219,636,o),
(216,648,cs),
(212,664,o),
(228,673,o),
(260,673,cs),
(331,673,o),
(433,633,o),
(513,573,c),
(513,839,l),
(412,893,o),
(310,921,o),
(212,921,cs),
(10,921,o),
(-93,804,o),
(-49,626,cs),
(-18,503,o),
(65,421,o),
(247,343,cs),
(351,298,ls),
(391,280,o),
(410,268,o),
(414,253,cs),
(418,236,o),
(401,228,o),
(363,228,cs),
(277,228,o),
(165,278,o),
(76,357,c),
(76,79,l),
(128,42,o),
(198,14,o),
(271,-3,c),
(159,-221,l)
);
}
);
};
layerId = "40756F1B-8CBD-42F6-8842-73C8ADC25AA8";
shapes = (
{
closed = 1;
nodes = (
(445,-220,l),
(514,6,l),
(622,46,o),
(688,129,o),
(688,245,cs),
(688,385,o),
(593,507,o),
(414,567,cs),
(282,611,ls),
(240,625,o),
(230,633,o),
(230,644,cs),
(230,663,o),
(256,672,o),
(299,672,cs),
(371,672,o),
(451,646,o),
(522,600,c),
(522,870,l),
(446,903,o),
(366,920,o),
(285,920,cs),
(96,920,o),
(-39,826,o),
(-39,654,cs),
(-39,506,o),
(61,402,o),
(257,334,cs),
(355,300,ls),
(401,284,o),
(418,274,o),
(418,260,cs),
(418,240,o),
(387,228,o),
(340,228,cs),
(256,228,o),
(162,267,o),
(85,328,c),
(85,45,l),
(129,19,o),
(185,0,o),
(246,-11,c),
(105,-220,l)
);
}
);
width = 700;
}
);
unicode = 350;
},
{
color = 3;
glyphname = Germandbls;
kernLeft = B;
lastChange = "2024-02-24 10:21:29 +0000";
layers = (
{
guides = (
{
angle = 104.036;
pos = (890,300);
},
{
angle = 104.036;
pos = (136,300);
},
{
angle = 104.036;
pos = (180,300);
}
);
layerId = "ACBCE007-E73D-46AC-8E41-1CDF677894E7";
shapes = (
{
closed = 1;
nodes = (
(778,-12,o),
(893,102,o),
(893,250,cs),
(893,425,o),
(734,579,o),
(554,578,c),
(664,899,l),
(664,900,l),
(-14,900,l),
(211,0,l),
(255,0,l),
(39,862,l),
(612,862,l),
(499,535,l),
(500,534,l),
(522,540,o),
(539,542,o),
(558,542,cs),
(712,542,o),
(849,405,o),
(849,252,cs),
(849,126,o),
(756,28,o),
(626,28,cs),
(536,28,o),
(442,75,o),
(383,150,c),
(369,104,l),
(435,33,o),
(528,-12,o),
(625,-12,cs)
);
}
);
width = 950;
},
{
guides = (
{
angle = 104.036;
pos = (138,300);
},
{
angle = 104.036;
pos = (922,300);
}
);
layerId = "AC72BC7B-7DA4-4629-8F76-12EBC1936C54";
shapes = (
{
closed = 1;
nodes = (
(804,-12,o),
(924,104,o),
(924,259,cs),
(924,429,o),
(779,580,o),
(607,590,c),
(696,899,l),
(696,900,l),
(-12,900,l),
(213,0,l),
(327,0,l),
(126,804,l),
(561,804,l),
(468,461,l),
(469,460,l),
(500,485,o),
(539,498,o),
(582,498,cs),
(705,498,o),
(814,391,o),
(814,268,cs),
(814,166,o),
(739,90,o),
(635,90,cs),
(544,90,o),
(456,148,o),
(417,234,c),
(383,104,l),
(448,31,o),
(542,-12,o),
(641,-12,cs)
);
}
);
width = 990;
},
{
background = {
shapes = (
{
closed = 1;
nodes = (
(886,-20,o),
(1005,118,o),
(960,299,cs),
(927,433,o),
(814,543,o),
(691,586,c),
(780,900,l),
(-54,900,l),
(171,0,l),
(356,0,l),
(172,738,l),
(561,738,l),
(480,428,l),
(512,448,o),
(545,458,o),
(585,458,cs),
(685,458,o),
(768,388,o),
(790,301,cs),
(812,211,o),
(758,142,o),
(667,142,cs),
(572,142,o),
(481,217,o),
(440,306,c),
(394,123,l),
(471,38,o),
(589,-20,o),
(706,-20,cs)
);
}
);
};
guides = (
{
angle = 104.036;
pos = (96,300);
},
{
angle = 104.036;
pos = (960,300);
}
);
layerId = "01A22628-B541-4374-9232-A2213F2D24BF";
shapes = (
{
closed = 1;
nodes = (
(828,-20,o),
(959,104,o),
(959,262,cs),
(959,413,o),
(841,556,o),
(686,592,c),
(778,899,l),
(778,900,l),
(-54,900,l),
(171,0,l),
(356,0,l),
(172,738,l),
(569,738,l),
(479,414,l),
(480,413,l),
(522,444,o),
(563,458,o),
(605,458,cs),
(705,458,o),
(787,376,o),
(787,282,cs),
(787,201,o),
(725,142,o),
(643,142,cs),
(563,142,o),
(482,198,o),
(443,279,c),
(392,94,l),
(460,24,o),
(562,-20,o),
(661,-20,cs)
);
}
);
width = 990;
},
{
background = {
shapes = (
{
closed = 1;
nodes = (
(977,-20,o),
(1095,121,o),
(1047,311,cs),
(1018,427,o),
(931,531,o),
(816,589,c),
(901,898,l),
(900,900,l),
(-90,900,l),
(135,0,l),
(429,0,l),
(263,666,l),
(576,666,l),
(505,387,l),
(508,385,l),
(548,397,o),
(597,404,o),
(636,404,cs),
(707,404,o),
(763,369,o),
(776,316,cs),
(789,263,o),
(753,226,o),
(690,226,cs),
(630,226,o),
(561,261,o),
(490,328,c),
(431,102,l),
(523,24,o),
(647,-20,o),
(772,-20,cs)
);
}
);
};
guides = (
{
angle = 243.2703;
pos = (527,388);
},
{
angle = 257.2736;
pos = (579,666);
}
);
layerId = "40756F1B-8CBD-42F6-8842-73C8ADC25AA8";
shapes = (
{
closed = 1;
nodes = (
(896,-20,o),
(1045,106,o),
(1045,278,cs),
(1045,416,o),
(955,546,o),
(819,604,c),
(901,898,l),
(901,900,l),
(-90,900,l),
(135,0,l),
(429,0,l),
(263,666,l),
(579,666,l),
(513,375,l),
(515,373,l),
(567,395,o),
(607,404,o),
(651,404,cs),
(716,404,o),
(761,363,o),
(761,306,cs),
(761,259,o),
(717,226,o),
(654,226,cs),
(606,226,o),
(555,248,o),
(494,292,c),
(439,49,l),
(510,5,o),
(600,-20,o),
(694,-20,cs)
);
}
);
width = 1080;
}
);
unicode = 7838;
},
{
color = 3;
glyphname = T;
kernLeft = T;
kernRight = T;
lastChange = "2024-02-28 05:51:25 +0000";
layers = (
{
anchors = (
{
name = bottom;
pos = (410,0);
},
{
name = center;
pos = (290,480);
},
{
name = top;
pos = (185,900);
}
);
layerId = "ACBCE007-E73D-46AC-8E41-1CDF677894E7";
shapes = (
{
closed = 1;
nodes = (
(432,0,l),
(217,860,l),
(476,860,l),
(466,900,l),
(-96,900,l),
(-86,860,l),
(173,860,l),
(388,0,l)
);
}
);
width = 670;
},
{
anchors = (
{
name = bottom;
pos = (420,0);
},
{
name = center;
pos = (309,450);
},
{
name = top;
pos = (195,900);
}
);
background = {
shapes = (
{
closed = 1;
nodes = (
(642,0,l),
(642,103,l),
(48,103,l),
(48,0,l)
);
},
{
closed = 1;
nodes = (
(402,0,l),
(402,914,l),
(288,914,l),
(288,0,l)
);
}
);
};
guides = (
{
angle = 104.036;
pos = (288,300);
},
{
angle = 104.036;
pos = (402,300);
}
);
layerId = "AC72BC7B-7DA4-4629-8F76-12EBC1936C54";
shapes = (
{
closed = 1;
nodes = (
(477,0,l),
(277,798,l),
(517,798,l),
(492,900,l),
(-102,900,l),
(-77,798,l),
(163,798,l),
(363,0,l)
);
}
);
width = 690;
},
{
anchors = (
{
name = bottom;
pos = (430,0);
},
{
name = center;
pos = (319,450);
},
{
name = top;
pos = (205,900);
}
);
background = {
shapes = (
{
closed = 1;
nodes = (
(652,0,l),
(652,103,l),
(58,103,l),
(58,0,l)
);
},
{
closed = 1;
nodes = (
(412,0,l),
(412,914,l),
(298,914,l),
(298,0,l)
);
}
);
};
guides = (
{
angle = 180;
pos = (369,578);
},
{
angle = 104.036;
pos = (262,300);
},
{
angle = 104.036;
pos = (448,300);
}
);
layerId = "01A22628-B541-4374-9232-A2213F2D24BF";
shapes = (
{
closed = 1;
nodes = (
(523,0,l),
(338,738,l),
(558,738,l),
(518,900,l),
(-108,900,l),
(-68,738,l),
(152,738,l),
(337,0,l)
);
}
);
width = 710;
},
{
anchors = (
{
name = bottom;
pos = (439,0);
},
{
name = center;
pos = (329,443);
},
{
name = top;
pos = (215,900);
}
);
layerId = "40756F1B-8CBD-42F6-8842-73C8ADC25AA8";
shapes = (
{
closed = 1;
nodes = (
(589,0,l),
(428,648,l),
(607,648,l),
(544,900,l),
(-114,900,l),
(-51,648,l),
(128,648,l),
(289,0,l)
);
}
);
width = 730;
}
);
unicode = 84;
},
